%TF.GenerationSoftware,KiCad,Pcbnew,10.0.4*%
%TF.CreationDate,2026-08-05T09:18:05-04:00*%
%TF.ProjectId,HD3SS3220-breakout,48443353-5333-4323-9230-2d627265616b,R1*%
%TF.SameCoordinates,Original*%
%TF.FileFunction,Copper,L2,Inr*%
%TF.FilePolarity,Positive*%
%FSLAX46Y46*%
G04 Gerber Fmt 4.6, Leading zero omitted, Abs format (unit mm)*
G04 Created by KiCad (PCBNEW 10.0.4) date 2026-08-05 09:18:05*
%MOMM*%
%LPD*%
G01*
G04 APERTURE LIST*
%TA.AperFunction,ComponentPad*%
%ADD10C,2.000000*%
%TD*%
%TA.AperFunction,ComponentPad*%
%ADD11R,1.700000X1.700000*%
%TD*%
%TA.AperFunction,ComponentPad*%
%ADD12C,1.700000*%
%TD*%
%TA.AperFunction,ComponentPad*%
%ADD13C,0.550000*%
%TD*%
%TA.AperFunction,ComponentPad*%
%ADD14O,1.000000X2.000000*%
%TD*%
%TA.AperFunction,ComponentPad*%
%ADD15O,1.540000X1.000000*%
%TD*%
%TA.AperFunction,ComponentPad*%
%ADD16O,1.200000X2.500000*%
%TD*%
%TA.AperFunction,ComponentPad*%
%ADD17C,0.600000*%
%TD*%
%TA.AperFunction,ViaPad*%
%ADD18C,0.600000*%
%TD*%
%TA.AperFunction,ViaPad*%
%ADD19C,0.800000*%
%TD*%
%TA.AperFunction,ViaPad*%
%ADD20C,0.560000*%
%TD*%
G04 APERTURE END LIST*
D10*
%TO.N,GND*%
%TO.C,GND*%
X111705500Y-84263927D03*
%TD*%
D11*
%TO.N,/ENn_Mux*%
%TO.C,J3*%
X112465500Y-68043927D03*
D12*
%TO.N,/ENn_CC*%
X115005500Y-68043927D03*
%TO.N,/ID*%
X112465500Y-70583927D03*
%TO.N,/VCONN*%
X115005500Y-70583927D03*
%TO.N,/SDA*%
X112465500Y-73123927D03*
%TO.N,/SCL*%
X115005500Y-73123927D03*
%TO.N,/ADDR*%
X112465500Y-75663927D03*
%TO.N,/INT_N*%
X115005500Y-75663927D03*
%TD*%
D10*
%TO.N,/CC2*%
%TO.C,CC2*%
X115705500Y-62263927D03*
%TD*%
%TO.N,V_OUT*%
%TO.C,V_OUT*%
X93305500Y-60163927D03*
%TD*%
%TO.N,GND*%
%TO.C,GND*%
X115305500Y-84263927D03*
%TD*%
%TO.N,/VCONN*%
%TO.C,VCONN*%
X111705500Y-80263927D03*
%TD*%
%TO.N,/CC1*%
%TO.C,CC1*%
X112005500Y-62263927D03*
%TD*%
D13*
%TO.N,*%
%TO.C,J1*%
X98935500Y-82958927D03*
X105735500Y-82958927D03*
D14*
%TO.N,N/C*%
X98015500Y-81608927D03*
D15*
X98315500Y-82108927D03*
X106355500Y-82108927D03*
D14*
X106655500Y-81608927D03*
D16*
X98015500Y-86158927D03*
X106655500Y-86158927D03*
%TD*%
D17*
%TO.N,GND*%
%TO.C,U1*%
X102805500Y-65313928D03*
X101605500Y-65313928D03*
X100405500Y-65313928D03*
X102805500Y-66013926D03*
X101605500Y-66013926D03*
X100405500Y-66013926D03*
%TD*%
D10*
%TO.N,VBUS*%
%TO.C,VBUS*%
X115405500Y-80263927D03*
%TD*%
D18*
%TO.N,GND*%
X113605500Y-51263927D03*
X107605500Y-39263927D03*
X113605500Y-42263927D03*
X116605500Y-48263927D03*
X95605500Y-78263927D03*
X92605500Y-81263927D03*
X113605500Y-81263927D03*
X104000000Y-86750000D03*
X113605500Y-60263927D03*
D19*
X108805500Y-68063927D03*
X105309800Y-79900000D03*
D18*
X92605500Y-45263927D03*
X111105500Y-60263927D03*
X92605500Y-72263927D03*
X110605500Y-69263927D03*
D19*
X97105500Y-63463927D03*
D18*
X110605500Y-87263927D03*
X92605500Y-42263927D03*
X113605500Y-54263927D03*
X92605500Y-39263927D03*
X101605500Y-36263927D03*
X116605500Y-72263927D03*
X116605500Y-69263927D03*
X113605500Y-36263927D03*
X116605500Y-42263927D03*
X101605500Y-39263927D03*
X92605500Y-84263927D03*
X95605500Y-75263927D03*
X100850000Y-72850000D03*
D19*
X116005500Y-57063927D03*
D18*
X101605500Y-45263927D03*
X95605500Y-51263927D03*
D19*
X99305500Y-85163927D03*
D18*
X113605500Y-78263927D03*
X110605500Y-39263927D03*
X104605500Y-39263927D03*
X107605500Y-42263927D03*
D19*
X97005500Y-67663927D03*
D18*
X116605500Y-66263927D03*
X96905500Y-59663927D03*
X99500000Y-56700000D03*
X103605500Y-52663927D03*
D19*
X98905500Y-79763927D03*
D18*
X95505500Y-87163927D03*
X113605500Y-48263927D03*
X95605500Y-36263927D03*
X104605500Y-36263927D03*
D19*
X91705500Y-57963927D03*
D18*
X99500000Y-59200000D03*
X92605500Y-48263927D03*
D19*
X100778500Y-79088955D03*
D18*
X113605500Y-87263927D03*
X113605500Y-57263927D03*
X113605500Y-45263927D03*
X116605500Y-45263927D03*
X95605500Y-39263927D03*
D19*
X107505500Y-64563927D03*
X93605500Y-51663927D03*
D18*
X116605500Y-60263927D03*
X98605500Y-36263927D03*
D19*
X106205500Y-53663927D03*
D18*
X95605500Y-42263927D03*
D19*
X103278500Y-75700000D03*
X91705500Y-52963927D03*
X110105500Y-70536927D03*
D18*
X92605500Y-78263927D03*
X110605500Y-36263927D03*
X108105500Y-59463927D03*
X95605500Y-72263927D03*
X108450000Y-53850000D03*
X107605500Y-36263927D03*
X98605500Y-42263927D03*
X107605500Y-75263927D03*
X101605500Y-42263927D03*
X100105500Y-52563927D03*
D19*
X94105500Y-68363927D03*
X116005500Y-52063927D03*
D18*
X104605500Y-42263927D03*
X110605500Y-42263927D03*
D19*
X106205500Y-45463927D03*
D18*
X116605500Y-75263927D03*
X95605500Y-69263927D03*
D19*
X101400000Y-55100000D03*
D18*
X92605500Y-75263927D03*
X107605500Y-78263927D03*
X98605500Y-39263927D03*
D19*
X105405500Y-84963927D03*
X92705500Y-69163927D03*
D18*
X96900000Y-56700000D03*
%TO.N,V_OUT*%
X101300000Y-60900000D03*
X99154300Y-62063927D03*
%TO.N,/ENn_Mux*%
X95787461Y-66053619D03*
X108405500Y-52063927D03*
%TO.N,/ENn_CC*%
X105205500Y-65263927D03*
X109005500Y-64863927D03*
X107415500Y-52743927D03*
%TO.N,/VCONN*%
X110265500Y-77663927D03*
X110265500Y-73863927D03*
%TO.N,/CC2*%
X106028146Y-61886573D03*
X103900000Y-85700000D03*
%TO.N,/DIR*%
X97205500Y-64463927D03*
X94205500Y-64663927D03*
D20*
%TO.N,/TX2+*%
X109400000Y-83618400D03*
X108481600Y-81500000D03*
%TO.N,/TX2-*%
X107718400Y-81500000D03*
X109400000Y-84381600D03*
D18*
%TO.N,/CC1*%
X106105500Y-61063927D03*
X103234713Y-74734713D03*
D20*
%TO.N,/D-*%
X102881600Y-79100000D03*
X101469832Y-53769832D03*
X102383500Y-86638443D03*
%TO.N,/D+*%
X102118400Y-79100000D03*
X100930168Y-53230168D03*
X101843836Y-86098779D03*
%TO.N,/TX1+*%
X100208893Y-73991107D03*
X101630168Y-74030168D03*
%TO.N,/TX1-*%
X99669229Y-74530771D03*
X102169832Y-74569832D03*
D19*
%TO.N,VBUS*%
X117105500Y-82063927D03*
D18*
X110605500Y-45263927D03*
%TD*%
%TA.AperFunction,Conductor*%
%TO.N,GND*%
G36*
X113958202Y-35464544D02*
G01*
X114342273Y-35481313D01*
X114353005Y-35482253D01*
X114731463Y-35532077D01*
X114742101Y-35533952D01*
X115114779Y-35616574D01*
X115125220Y-35619372D01*
X115489265Y-35734154D01*
X115499411Y-35737847D01*
X115852078Y-35883927D01*
X115861869Y-35888493D01*
X116200442Y-36064743D01*
X116209810Y-36070151D01*
X116531744Y-36275245D01*
X116540605Y-36281450D01*
X116843430Y-36513816D01*
X116851717Y-36520770D01*
X117133135Y-36778642D01*
X117140784Y-36786291D01*
X117398656Y-37067709D01*
X117405610Y-37075996D01*
X117637976Y-37378821D01*
X117644181Y-37387682D01*
X117849275Y-37709616D01*
X117854683Y-37718984D01*
X118030930Y-38057550D01*
X118035502Y-38067354D01*
X118181575Y-38420005D01*
X118185275Y-38430171D01*
X118300053Y-38794203D01*
X118302853Y-38804651D01*
X118385472Y-39177317D01*
X118387350Y-39187971D01*
X118437171Y-39566399D01*
X118438114Y-39577175D01*
X118454882Y-39961224D01*
X118455000Y-39966633D01*
X118455000Y-83261220D01*
X118454882Y-83266629D01*
X118438114Y-83650678D01*
X118437171Y-83661454D01*
X118387350Y-84039882D01*
X118385472Y-84050536D01*
X118302853Y-84423202D01*
X118300053Y-84433650D01*
X118185275Y-84797682D01*
X118181575Y-84807848D01*
X118035502Y-85160499D01*
X118030930Y-85170303D01*
X117854683Y-85508869D01*
X117849275Y-85518237D01*
X117644181Y-85840171D01*
X117637976Y-85849032D01*
X117405610Y-86151857D01*
X117398656Y-86160144D01*
X117140784Y-86441562D01*
X117133135Y-86449211D01*
X116851717Y-86707083D01*
X116843430Y-86714037D01*
X116540605Y-86946403D01*
X116531744Y-86952608D01*
X116209810Y-87157702D01*
X116200442Y-87163110D01*
X115861876Y-87339357D01*
X115852072Y-87343929D01*
X115499421Y-87490002D01*
X115489255Y-87493702D01*
X115125223Y-87608480D01*
X115114775Y-87611280D01*
X114742109Y-87693899D01*
X114731455Y-87695777D01*
X114353027Y-87745598D01*
X114342251Y-87746541D01*
X114086219Y-87757719D01*
X113966815Y-87762933D01*
X113958203Y-87763309D01*
X113952794Y-87763427D01*
X106844941Y-87763427D01*
X106777902Y-87743742D01*
X106732147Y-87690938D01*
X106722203Y-87621780D01*
X106751228Y-87558224D01*
X106810006Y-87520450D01*
X106820750Y-87517810D01*
X106840938Y-87513793D01*
X106867704Y-87508470D01*
X107000100Y-87453629D01*
X107119254Y-87374013D01*
X107220586Y-87272681D01*
X107300202Y-87153527D01*
X107355043Y-87021131D01*
X107383000Y-86880579D01*
X107383000Y-85437275D01*
X107355043Y-85296723D01*
X107300202Y-85164327D01*
X107300200Y-85164324D01*
X107300198Y-85164320D01*
X107220586Y-85045173D01*
X107220583Y-85045169D01*
X107119257Y-84943843D01*
X107119253Y-84943840D01*
X107000106Y-84864228D01*
X107000096Y-84864223D01*
X106867704Y-84809384D01*
X106867696Y-84809382D01*
X106727156Y-84781427D01*
X106727152Y-84781427D01*
X106583848Y-84781427D01*
X106583843Y-84781427D01*
X106443303Y-84809382D01*
X106443295Y-84809384D01*
X106310903Y-84864223D01*
X106310893Y-84864228D01*
X106191746Y-84943840D01*
X106191742Y-84943843D01*
X106090416Y-85045169D01*
X106090413Y-85045173D01*
X106010801Y-85164320D01*
X106010796Y-85164330D01*
X105955957Y-85296722D01*
X105955955Y-85296730D01*
X105928000Y-85437270D01*
X105928000Y-86880583D01*
X105955955Y-87021123D01*
X105955957Y-87021131D01*
X106010796Y-87153523D01*
X106010801Y-87153533D01*
X106090413Y-87272680D01*
X106090416Y-87272684D01*
X106191742Y-87374010D01*
X106191746Y-87374013D01*
X106310893Y-87453625D01*
X106310897Y-87453627D01*
X106310900Y-87453629D01*
X106443296Y-87508470D01*
X106465271Y-87512841D01*
X106490250Y-87517810D01*
X106552161Y-87550194D01*
X106586735Y-87610910D01*
X106582996Y-87680679D01*
X106542130Y-87737352D01*
X106477112Y-87762933D01*
X106466059Y-87763427D01*
X98204941Y-87763427D01*
X98137902Y-87743742D01*
X98092147Y-87690938D01*
X98082203Y-87621780D01*
X98111228Y-87558224D01*
X98170006Y-87520450D01*
X98180750Y-87517810D01*
X98200938Y-87513793D01*
X98227704Y-87508470D01*
X98360100Y-87453629D01*
X98479254Y-87374013D01*
X98580586Y-87272681D01*
X98660202Y-87153527D01*
X98715043Y-87021131D01*
X98743000Y-86880579D01*
X98743000Y-86035520D01*
X101363336Y-86035520D01*
X101363336Y-86162038D01*
X101396081Y-86284245D01*
X101459340Y-86393813D01*
X101548802Y-86483275D01*
X101658370Y-86546534D01*
X101780577Y-86579279D01*
X101780585Y-86579279D01*
X101788637Y-86580340D01*
X101788412Y-86582042D01*
X101846039Y-86598964D01*
X101891794Y-86651768D01*
X101900932Y-86693774D01*
X101901939Y-86693642D01*
X101903000Y-86701700D01*
X101903000Y-86701702D01*
X101935745Y-86823909D01*
X101999004Y-86933477D01*
X102088466Y-87022939D01*
X102198034Y-87086198D01*
X102320241Y-87118943D01*
X102320243Y-87118943D01*
X102446757Y-87118943D01*
X102446759Y-87118943D01*
X102568966Y-87086198D01*
X102678534Y-87022939D01*
X102767996Y-86933477D01*
X102831255Y-86823909D01*
X102864000Y-86701702D01*
X102864000Y-86575184D01*
X102831255Y-86452977D01*
X102767996Y-86343409D01*
X102678534Y-86253947D01*
X102568966Y-86190688D01*
X102446759Y-86157943D01*
X102446758Y-86157943D01*
X102438699Y-86156882D01*
X102438923Y-86155179D01*
X102381297Y-86138258D01*
X102335542Y-86085454D01*
X102326403Y-86043447D01*
X102325397Y-86043580D01*
X102324336Y-86035527D01*
X102324336Y-86035520D01*
X102291591Y-85913313D01*
X102228332Y-85803745D01*
X102138870Y-85714283D01*
X102029302Y-85651024D01*
X102002039Y-85643719D01*
X103472500Y-85643719D01*
X103472500Y-85756280D01*
X103501633Y-85865010D01*
X103529520Y-85913310D01*
X103557915Y-85962491D01*
X103637509Y-86042085D01*
X103734991Y-86098367D01*
X103843719Y-86127500D01*
X103843721Y-86127500D01*
X103956279Y-86127500D01*
X103956281Y-86127500D01*
X104065009Y-86098367D01*
X104162491Y-86042085D01*
X104242085Y-85962491D01*
X104298367Y-85865009D01*
X104327500Y-85756281D01*
X104327500Y-85643719D01*
X104298367Y-85534991D01*
X104242085Y-85437509D01*
X104162491Y-85357915D01*
X104113750Y-85329774D01*
X104065010Y-85301633D01*
X104010645Y-85287066D01*
X103956281Y-85272500D01*
X103843719Y-85272500D01*
X103734989Y-85301633D01*
X103637509Y-85357915D01*
X103637506Y-85357917D01*
X103557917Y-85437506D01*
X103557915Y-85437509D01*
X103501633Y-85534989D01*
X103472500Y-85643719D01*
X102002039Y-85643719D01*
X101907095Y-85618279D01*
X101780577Y-85618279D01*
X101658370Y-85651024D01*
X101658367Y-85651025D01*
X101548800Y-85714284D01*
X101459341Y-85803743D01*
X101396082Y-85913310D01*
X101396081Y-85913313D01*
X101363336Y-86035520D01*
X98743000Y-86035520D01*
X98743000Y-85437275D01*
X98715043Y-85296723D01*
X98660202Y-85164327D01*
X98660200Y-85164324D01*
X98660198Y-85164320D01*
X98580586Y-85045173D01*
X98580583Y-85045169D01*
X98479257Y-84943843D01*
X98479253Y-84943840D01*
X98360106Y-84864228D01*
X98360096Y-84864223D01*
X98227704Y-84809384D01*
X98227696Y-84809382D01*
X98087156Y-84781427D01*
X98087152Y-84781427D01*
X97943848Y-84781427D01*
X97943843Y-84781427D01*
X97803303Y-84809382D01*
X97803295Y-84809384D01*
X97670903Y-84864223D01*
X97670893Y-84864228D01*
X97551746Y-84943840D01*
X97551742Y-84943843D01*
X97450416Y-85045169D01*
X97450413Y-85045173D01*
X97370801Y-85164320D01*
X97370796Y-85164330D01*
X97315957Y-85296722D01*
X97315955Y-85296730D01*
X97288000Y-85437270D01*
X97288000Y-86880583D01*
X97315955Y-87021123D01*
X97315957Y-87021131D01*
X97370796Y-87153523D01*
X97370801Y-87153533D01*
X97450413Y-87272680D01*
X97450416Y-87272684D01*
X97551742Y-87374010D01*
X97551746Y-87374013D01*
X97670893Y-87453625D01*
X97670897Y-87453627D01*
X97670900Y-87453629D01*
X97803296Y-87508470D01*
X97825271Y-87512841D01*
X97850250Y-87517810D01*
X97912161Y-87550194D01*
X97946735Y-87610910D01*
X97942996Y-87680679D01*
X97902130Y-87737352D01*
X97837112Y-87762933D01*
X97826059Y-87763427D01*
X94908206Y-87763427D01*
X94902797Y-87763309D01*
X94894185Y-87762933D01*
X94518747Y-87746540D01*
X94507974Y-87745598D01*
X94445337Y-87737352D01*
X94129544Y-87695777D01*
X94118890Y-87693899D01*
X93746224Y-87611280D01*
X93735776Y-87608480D01*
X93371744Y-87493702D01*
X93361578Y-87490002D01*
X93008927Y-87343929D01*
X92999123Y-87339357D01*
X92660557Y-87163110D01*
X92651189Y-87157702D01*
X92329255Y-86952608D01*
X92320394Y-86946403D01*
X92017569Y-86714037D01*
X92009282Y-86707083D01*
X91727864Y-86449211D01*
X91720215Y-86441562D01*
X91462343Y-86160144D01*
X91455389Y-86151857D01*
X91223023Y-85849032D01*
X91216818Y-85840171D01*
X91011724Y-85518237D01*
X91006316Y-85508869D01*
X90969167Y-85437506D01*
X90830066Y-85170296D01*
X90825497Y-85160499D01*
X90814120Y-85133032D01*
X90679420Y-84807838D01*
X90675724Y-84797682D01*
X90665765Y-84766096D01*
X90560945Y-84433647D01*
X90558146Y-84423202D01*
X90507806Y-84196134D01*
X90475525Y-84050528D01*
X90473649Y-84039882D01*
X90471869Y-84026358D01*
X90423826Y-83661432D01*
X90422886Y-83650700D01*
X90418714Y-83555141D01*
X108919500Y-83555141D01*
X108919500Y-83681659D01*
X108941544Y-83763927D01*
X108952245Y-83803865D01*
X108952246Y-83803868D01*
X109015506Y-83913437D01*
X109020453Y-83919884D01*
X109019090Y-83920929D01*
X109047874Y-83973642D01*
X109042890Y-84043334D01*
X109019647Y-84079498D01*
X109020453Y-84080116D01*
X109015506Y-84086562D01*
X108952246Y-84196131D01*
X108952245Y-84196134D01*
X108919500Y-84318341D01*
X108919500Y-84444859D01*
X108952245Y-84567066D01*
X109015504Y-84676634D01*
X109104966Y-84766096D01*
X109214534Y-84829355D01*
X109336741Y-84862100D01*
X109336743Y-84862100D01*
X109463257Y-84862100D01*
X109463259Y-84862100D01*
X109585466Y-84829355D01*
X109695034Y-84766096D01*
X109784496Y-84676634D01*
X109847755Y-84567066D01*
X109880500Y-84444859D01*
X109880500Y-84318341D01*
X109847755Y-84196134D01*
X109818737Y-84145874D01*
X110205500Y-84145874D01*
X110205500Y-84381979D01*
X110242434Y-84615174D01*
X110315397Y-84839729D01*
X110422587Y-85050101D01*
X110482838Y-85133031D01*
X110482840Y-85133032D01*
X111222537Y-84393335D01*
X111239575Y-84456920D01*
X111305401Y-84570934D01*
X111398493Y-84664026D01*
X111512507Y-84729852D01*
X111576090Y-84746889D01*
X110836393Y-85486585D01*
X110919328Y-85546841D01*
X111129697Y-85654029D01*
X111354252Y-85726992D01*
X111354251Y-85726992D01*
X111587448Y-85763927D01*
X111823552Y-85763927D01*
X112056747Y-85726992D01*
X112281302Y-85654029D01*
X112491663Y-85546845D01*
X112491669Y-85546841D01*
X112574604Y-85486585D01*
X112574605Y-85486585D01*
X111834908Y-84746889D01*
X111898493Y-84729852D01*
X112012507Y-84664026D01*
X112105599Y-84570934D01*
X112171425Y-84456920D01*
X112188462Y-84393335D01*
X112928158Y-85133032D01*
X112928158Y-85133031D01*
X112988414Y-85050096D01*
X112988418Y-85050090D01*
X113095602Y-84839729D01*
X113168565Y-84615174D01*
X113205500Y-84381979D01*
X113205500Y-84145874D01*
X113805500Y-84145874D01*
X113805500Y-84381979D01*
X113842434Y-84615174D01*
X113915397Y-84839729D01*
X114022587Y-85050101D01*
X114082838Y-85133031D01*
X114082840Y-85133032D01*
X114822537Y-84393335D01*
X114839575Y-84456920D01*
X114905401Y-84570934D01*
X114998493Y-84664026D01*
X115112507Y-84729852D01*
X115176090Y-84746889D01*
X114436393Y-85486585D01*
X114519328Y-85546841D01*
X114729697Y-85654029D01*
X114954252Y-85726992D01*
X114954251Y-85726992D01*
X115187448Y-85763927D01*
X115423552Y-85763927D01*
X115656747Y-85726992D01*
X115881302Y-85654029D01*
X116091663Y-85546845D01*
X116091669Y-85546841D01*
X116174604Y-85486585D01*
X116174605Y-85486585D01*
X115434908Y-84746889D01*
X115498493Y-84729852D01*
X115612507Y-84664026D01*
X115705599Y-84570934D01*
X115771425Y-84456920D01*
X115788462Y-84393335D01*
X116528158Y-85133032D01*
X116528158Y-85133031D01*
X116588414Y-85050096D01*
X116588418Y-85050090D01*
X116695602Y-84839729D01*
X116768565Y-84615174D01*
X116805500Y-84381979D01*
X116805500Y-84145874D01*
X116768565Y-83912679D01*
X116695602Y-83688124D01*
X116588414Y-83477755D01*
X116528158Y-83394821D01*
X116528158Y-83394820D01*
X115788462Y-84134517D01*
X115771425Y-84070934D01*
X115705599Y-83956920D01*
X115612507Y-83863828D01*
X115498493Y-83798002D01*
X115434909Y-83780964D01*
X116174605Y-83041267D01*
X116174604Y-83041265D01*
X116091674Y-82981014D01*
X115881302Y-82873824D01*
X115656747Y-82800861D01*
X115656748Y-82800861D01*
X115423552Y-82763927D01*
X115187448Y-82763927D01*
X114954252Y-82800861D01*
X114729697Y-82873824D01*
X114519330Y-82981011D01*
X114436394Y-83041267D01*
X115176091Y-83780964D01*
X115112507Y-83798002D01*
X114998493Y-83863828D01*
X114905401Y-83956920D01*
X114839575Y-84070934D01*
X114822537Y-84134518D01*
X114082840Y-83394821D01*
X114022584Y-83477757D01*
X113915397Y-83688124D01*
X113842434Y-83912679D01*
X113805500Y-84145874D01*
X113205500Y-84145874D01*
X113168565Y-83912679D01*
X113095602Y-83688124D01*
X112988414Y-83477755D01*
X112928158Y-83394821D01*
X112928158Y-83394820D01*
X112188462Y-84134517D01*
X112171425Y-84070934D01*
X112105599Y-83956920D01*
X112012507Y-83863828D01*
X111898493Y-83798002D01*
X111834909Y-83780964D01*
X112574605Y-83041267D01*
X112574604Y-83041266D01*
X112491674Y-82981014D01*
X112281302Y-82873824D01*
X112056747Y-82800861D01*
X112056748Y-82800861D01*
X111823552Y-82763927D01*
X111587448Y-82763927D01*
X111354252Y-82800861D01*
X111129697Y-82873824D01*
X110919330Y-82981011D01*
X110836394Y-83041267D01*
X111576091Y-83780964D01*
X111512507Y-83798002D01*
X111398493Y-83863828D01*
X111305401Y-83956920D01*
X111239575Y-84070934D01*
X111222537Y-84134518D01*
X110482840Y-83394821D01*
X110422584Y-83477757D01*
X110315397Y-83688124D01*
X110242434Y-83912679D01*
X110205500Y-84145874D01*
X109818737Y-84145874D01*
X109784496Y-84086566D01*
X109784494Y-84086564D01*
X109784493Y-84086562D01*
X109779547Y-84080116D01*
X109780909Y-84079070D01*
X109752126Y-84026358D01*
X109757110Y-83956666D01*
X109780352Y-83920501D01*
X109779547Y-83919884D01*
X109784493Y-83913437D01*
X109784496Y-83913434D01*
X109847755Y-83803866D01*
X109880500Y-83681659D01*
X109880500Y-83555141D01*
X109847755Y-83432934D01*
X109784496Y-83323366D01*
X109695034Y-83233904D01*
X109585466Y-83170645D01*
X109463259Y-83137900D01*
X109336741Y-83137900D01*
X109214534Y-83170645D01*
X109214531Y-83170646D01*
X109104964Y-83233905D01*
X109015505Y-83323364D01*
X108952246Y-83432931D01*
X108952245Y-83432934D01*
X108919500Y-83555141D01*
X90418714Y-83555141D01*
X90406118Y-83266629D01*
X90406000Y-83261220D01*
X90406000Y-82170732D01*
X97387999Y-82170732D01*
X97412113Y-82291956D01*
X97412116Y-82291966D01*
X97459413Y-82406153D01*
X97459420Y-82406166D01*
X97528088Y-82508934D01*
X97528091Y-82508938D01*
X97615488Y-82596335D01*
X97615492Y-82596338D01*
X97718260Y-82665006D01*
X97718273Y-82665013D01*
X97832460Y-82712310D01*
X97832465Y-82712312D01*
X97832469Y-82712312D01*
X97832470Y-82712313D01*
X97953694Y-82736427D01*
X97953697Y-82736427D01*
X97983697Y-82736427D01*
X98341245Y-82736427D01*
X98408284Y-82756112D01*
X98454039Y-82808916D01*
X98463983Y-82878074D01*
X98461021Y-82892514D01*
X98460000Y-82896326D01*
X98460000Y-83021528D01*
X98492405Y-83142463D01*
X98555005Y-83250891D01*
X98643536Y-83339422D01*
X98751964Y-83402022D01*
X98872899Y-83434427D01*
X98872901Y-83434427D01*
X98998099Y-83434427D01*
X98998101Y-83434427D01*
X99119036Y-83402022D01*
X99227464Y-83339422D01*
X99315995Y-83250891D01*
X99378595Y-83142463D01*
X99411000Y-83021528D01*
X99411000Y-82896326D01*
X105260000Y-82896326D01*
X105260000Y-83021528D01*
X105292405Y-83142463D01*
X105355005Y-83250891D01*
X105443536Y-83339422D01*
X105551964Y-83402022D01*
X105672899Y-83434427D01*
X105672901Y-83434427D01*
X105798099Y-83434427D01*
X105798101Y-83434427D01*
X105919036Y-83402022D01*
X106027464Y-83339422D01*
X106115995Y-83250891D01*
X106178595Y-83142463D01*
X106211000Y-83021528D01*
X106211000Y-82896326D01*
X106209980Y-82892519D01*
X106210059Y-82889183D01*
X106209939Y-82888269D01*
X106210081Y-82888250D01*
X106211643Y-82822671D01*
X106250805Y-82764808D01*
X106315033Y-82737304D01*
X106329755Y-82736427D01*
X106717305Y-82736427D01*
X106798861Y-82720203D01*
X106838535Y-82712312D01*
X106952733Y-82665010D01*
X107055508Y-82596338D01*
X107142911Y-82508935D01*
X107211583Y-82406160D01*
X107258885Y-82291962D01*
X107283000Y-82170730D01*
X107283000Y-82018229D01*
X107289974Y-81994480D01*
X116578000Y-81994480D01*
X116578000Y-82133374D01*
X116588010Y-82170730D01*
X116613948Y-82267533D01*
X116613949Y-82267536D01*
X116683392Y-82387816D01*
X116683394Y-82387819D01*
X116683395Y-82387820D01*
X116781607Y-82486032D01*
X116781608Y-82486033D01*
X116781610Y-82486034D01*
X116821276Y-82508935D01*
X116901893Y-82555479D01*
X117036053Y-82591427D01*
X117036055Y-82591427D01*
X117174945Y-82591427D01*
X117174947Y-82591427D01*
X117309107Y-82555479D01*
X117429393Y-82486032D01*
X117527605Y-82387820D01*
X117597052Y-82267534D01*
X117633000Y-82133374D01*
X117633000Y-81994480D01*
X117597052Y-81860320D01*
X117527605Y-81740034D01*
X117429393Y-81641822D01*
X117429392Y-81641821D01*
X117429389Y-81641819D01*
X117309109Y-81572376D01*
X117309108Y-81572375D01*
X117309107Y-81572375D01*
X117174947Y-81536427D01*
X117036053Y-81536427D01*
X116901893Y-81572375D01*
X116901890Y-81572376D01*
X116781610Y-81641819D01*
X116781605Y-81641823D01*
X116683396Y-81740032D01*
X116683392Y-81740037D01*
X116613949Y-81860317D01*
X116613948Y-81860320D01*
X116578000Y-81994480D01*
X107289974Y-81994480D01*
X107302685Y-81951190D01*
X107355489Y-81905435D01*
X107424647Y-81895491D01*
X107468995Y-81910840D01*
X107532934Y-81947755D01*
X107655141Y-81980500D01*
X107655143Y-81980500D01*
X107781657Y-81980500D01*
X107781659Y-81980500D01*
X107903866Y-81947755D01*
X108013434Y-81884496D01*
X108013437Y-81884493D01*
X108019884Y-81879547D01*
X108020929Y-81880909D01*
X108073642Y-81852126D01*
X108143334Y-81857110D01*
X108179498Y-81880352D01*
X108180116Y-81879547D01*
X108186562Y-81884493D01*
X108186564Y-81884494D01*
X108186566Y-81884496D01*
X108296134Y-81947755D01*
X108418341Y-81980500D01*
X108418343Y-81980500D01*
X108544857Y-81980500D01*
X108544859Y-81980500D01*
X108667066Y-81947755D01*
X108776634Y-81884496D01*
X108866096Y-81795034D01*
X108929355Y-81685466D01*
X108962100Y-81563259D01*
X108962100Y-81436741D01*
X108929355Y-81314534D01*
X108866096Y-81204966D01*
X108776634Y-81115504D01*
X108667066Y-81052245D01*
X108544859Y-81019500D01*
X108418341Y-81019500D01*
X108296134Y-81052245D01*
X108296131Y-81052246D01*
X108186562Y-81115506D01*
X108180116Y-81120453D01*
X108179070Y-81119090D01*
X108126358Y-81147874D01*
X108056666Y-81142890D01*
X108020501Y-81119647D01*
X108019884Y-81120453D01*
X108013437Y-81115506D01*
X107977282Y-81094632D01*
X107903866Y-81052245D01*
X107781659Y-81019500D01*
X107655141Y-81019500D01*
X107532934Y-81052245D01*
X107532933Y-81052245D01*
X107459517Y-81094632D01*
X107391617Y-81111104D01*
X107325590Y-81088251D01*
X107282400Y-81033329D01*
X107275901Y-81011435D01*
X107258886Y-80925899D01*
X107258886Y-80925897D01*
X107258885Y-80925892D01*
X107229467Y-80854869D01*
X107211586Y-80811700D01*
X107211579Y-80811687D01*
X107142911Y-80708919D01*
X107142908Y-80708915D01*
X107055511Y-80621518D01*
X107055507Y-80621515D01*
X106952739Y-80552847D01*
X106952726Y-80552840D01*
X106838539Y-80505543D01*
X106838529Y-80505540D01*
X106717305Y-80481427D01*
X106717303Y-80481427D01*
X106593697Y-80481427D01*
X106593695Y-80481427D01*
X106472470Y-80505540D01*
X106472460Y-80505543D01*
X106358273Y-80552840D01*
X106358260Y-80552847D01*
X106255492Y-80621515D01*
X106255488Y-80621518D01*
X106168091Y-80708915D01*
X106168088Y-80708919D01*
X106099420Y-80811687D01*
X106099413Y-80811700D01*
X106052116Y-80925887D01*
X106052113Y-80925897D01*
X106028000Y-81047121D01*
X106028000Y-81378807D01*
X106008315Y-81445846D01*
X105955511Y-81491601D01*
X105928192Y-81500424D01*
X105902470Y-81505540D01*
X105902460Y-81505543D01*
X105788273Y-81552840D01*
X105788260Y-81552847D01*
X105685492Y-81621515D01*
X105685488Y-81621518D01*
X105598091Y-81708915D01*
X105598088Y-81708919D01*
X105529420Y-81811687D01*
X105529413Y-81811700D01*
X105482116Y-81925887D01*
X105482113Y-81925897D01*
X105458000Y-82047121D01*
X105458000Y-82047124D01*
X105458000Y-82170730D01*
X105458000Y-82170732D01*
X105457999Y-82170732D01*
X105482113Y-82291956D01*
X105482116Y-82291966D01*
X105528813Y-82404704D01*
X105536282Y-82474174D01*
X105505006Y-82536653D01*
X105476252Y-82559543D01*
X105443539Y-82578429D01*
X105443534Y-82578433D01*
X105355006Y-82666961D01*
X105355004Y-82666964D01*
X105292405Y-82775390D01*
X105292405Y-82775391D01*
X105260000Y-82896326D01*
X99411000Y-82896326D01*
X99378595Y-82775391D01*
X99315995Y-82666963D01*
X99227464Y-82578432D01*
X99227463Y-82578431D01*
X99208572Y-82567524D01*
X99194747Y-82559543D01*
X99146532Y-82508977D01*
X99133308Y-82440370D01*
X99142186Y-82404704D01*
X99188885Y-82291962D01*
X99213000Y-82170730D01*
X99213000Y-82047124D01*
X99213000Y-82047121D01*
X99188886Y-81925897D01*
X99188885Y-81925896D01*
X99188885Y-81925892D01*
X99182651Y-81910842D01*
X99141586Y-81811700D01*
X99141579Y-81811687D01*
X99072911Y-81708919D01*
X99072908Y-81708915D01*
X98985511Y-81621518D01*
X98985507Y-81621515D01*
X98882739Y-81552847D01*
X98882726Y-81552840D01*
X98768539Y-81505543D01*
X98768529Y-81505540D01*
X98742808Y-81500424D01*
X98680897Y-81468039D01*
X98646323Y-81407323D01*
X98643000Y-81378807D01*
X98643000Y-81047121D01*
X98618886Y-80925897D01*
X98618885Y-80925896D01*
X98618885Y-80925892D01*
X98589467Y-80854869D01*
X98571586Y-80811700D01*
X98571579Y-80811687D01*
X98502911Y-80708919D01*
X98502908Y-80708915D01*
X98415511Y-80621518D01*
X98415507Y-80621515D01*
X98312739Y-80552847D01*
X98312726Y-80552840D01*
X98198539Y-80505543D01*
X98198529Y-80505540D01*
X98077305Y-80481427D01*
X98077303Y-80481427D01*
X97953697Y-80481427D01*
X97953695Y-80481427D01*
X97832470Y-80505540D01*
X97832460Y-80505543D01*
X97718273Y-80552840D01*
X97718260Y-80552847D01*
X97615492Y-80621515D01*
X97615488Y-80621518D01*
X97528091Y-80708915D01*
X97528088Y-80708919D01*
X97459420Y-80811687D01*
X97459413Y-80811700D01*
X97412116Y-80925887D01*
X97412113Y-80925897D01*
X97388000Y-81047121D01*
X97388000Y-81047124D01*
X97388000Y-82170730D01*
X97388000Y-82170732D01*
X97387999Y-82170732D01*
X90406000Y-82170732D01*
X90406000Y-80175191D01*
X110578000Y-80175191D01*
X110578000Y-80352662D01*
X110605763Y-80527951D01*
X110605763Y-80527954D01*
X110660603Y-80696734D01*
X110741178Y-80854869D01*
X110845485Y-80998437D01*
X110845489Y-80998442D01*
X110970984Y-81123937D01*
X110970989Y-81123941D01*
X111078526Y-81202070D01*
X111114561Y-81228251D01*
X111241901Y-81293134D01*
X111272692Y-81308823D01*
X111441473Y-81363663D01*
X111441474Y-81363663D01*
X111441477Y-81363664D01*
X111616764Y-81391427D01*
X111616765Y-81391427D01*
X111794235Y-81391427D01*
X111794236Y-81391427D01*
X111969523Y-81363664D01*
X111969526Y-81363663D01*
X111969527Y-81363663D01*
X112138307Y-81308823D01*
X112138307Y-81308822D01*
X112138310Y-81308822D01*
X112296439Y-81228251D01*
X112440017Y-81123936D01*
X112565509Y-80998444D01*
X112669824Y-80854866D01*
X112750395Y-80696737D01*
X112797148Y-80552847D01*
X112805236Y-80527954D01*
X112805236Y-80527953D01*
X112805237Y-80527950D01*
X112833000Y-80352663D01*
X112833000Y-80175191D01*
X114278000Y-80175191D01*
X114278000Y-80352662D01*
X114305763Y-80527951D01*
X114305763Y-80527954D01*
X114360603Y-80696734D01*
X114441178Y-80854869D01*
X114545485Y-80998437D01*
X114545489Y-80998442D01*
X114670984Y-81123937D01*
X114670989Y-81123941D01*
X114778526Y-81202070D01*
X114814561Y-81228251D01*
X114941901Y-81293134D01*
X114972692Y-81308823D01*
X115141473Y-81363663D01*
X115141474Y-81363663D01*
X115141477Y-81363664D01*
X115316764Y-81391427D01*
X115316765Y-81391427D01*
X115494235Y-81391427D01*
X115494236Y-81391427D01*
X115669523Y-81363664D01*
X115669526Y-81363663D01*
X115669527Y-81363663D01*
X115838307Y-81308823D01*
X115838307Y-81308822D01*
X115838310Y-81308822D01*
X115996439Y-81228251D01*
X116140017Y-81123936D01*
X116265509Y-80998444D01*
X116369824Y-80854866D01*
X116450395Y-80696737D01*
X116497148Y-80552847D01*
X116505236Y-80527954D01*
X116505236Y-80527953D01*
X116505237Y-80527950D01*
X116533000Y-80352663D01*
X116533000Y-80175191D01*
X116505237Y-79999904D01*
X116505236Y-79999900D01*
X116505236Y-79999899D01*
X116450396Y-79831119D01*
X116450395Y-79831117D01*
X116369824Y-79672988D01*
X116302628Y-79580500D01*
X116265514Y-79529416D01*
X116265510Y-79529411D01*
X116140015Y-79403916D01*
X116140010Y-79403912D01*
X115996442Y-79299605D01*
X115996441Y-79299604D01*
X115996439Y-79299603D01*
X115917374Y-79259317D01*
X115838307Y-79219030D01*
X115669526Y-79164190D01*
X115538057Y-79143367D01*
X115494236Y-79136427D01*
X115316764Y-79136427D01*
X115258335Y-79145681D01*
X115141475Y-79164190D01*
X115141472Y-79164190D01*
X114972692Y-79219030D01*
X114814557Y-79299605D01*
X114670989Y-79403912D01*
X114670984Y-79403916D01*
X114545489Y-79529411D01*
X114545485Y-79529416D01*
X114441178Y-79672984D01*
X114360603Y-79831119D01*
X114305763Y-79999899D01*
X114305763Y-79999902D01*
X114278000Y-80175191D01*
X112833000Y-80175191D01*
X112805237Y-79999904D01*
X112805236Y-79999900D01*
X112805236Y-79999899D01*
X112750396Y-79831119D01*
X112750395Y-79831117D01*
X112669824Y-79672988D01*
X112602628Y-79580500D01*
X112565514Y-79529416D01*
X112565510Y-79529411D01*
X112440015Y-79403916D01*
X112440010Y-79403912D01*
X112296442Y-79299605D01*
X112296441Y-79299604D01*
X112296439Y-79299603D01*
X112217374Y-79259317D01*
X112138307Y-79219030D01*
X111969526Y-79164190D01*
X111838057Y-79143367D01*
X111794236Y-79136427D01*
X111616764Y-79136427D01*
X111558335Y-79145681D01*
X111441475Y-79164190D01*
X111441472Y-79164190D01*
X111272692Y-79219030D01*
X111114557Y-79299605D01*
X110970989Y-79403912D01*
X110970984Y-79403916D01*
X110845489Y-79529411D01*
X110845485Y-79529416D01*
X110741178Y-79672984D01*
X110660603Y-79831119D01*
X110605763Y-79999899D01*
X110605763Y-79999902D01*
X110578000Y-80175191D01*
X90406000Y-80175191D01*
X90406000Y-79036741D01*
X101637900Y-79036741D01*
X101637900Y-79163259D01*
X101670645Y-79285466D01*
X101733904Y-79395034D01*
X101823366Y-79484496D01*
X101932934Y-79547755D01*
X102055141Y-79580500D01*
X102055143Y-79580500D01*
X102181657Y-79580500D01*
X102181659Y-79580500D01*
X102303866Y-79547755D01*
X102413434Y-79484496D01*
X102413437Y-79484493D01*
X102419884Y-79479547D01*
X102420929Y-79480909D01*
X102473642Y-79452126D01*
X102543334Y-79457110D01*
X102579498Y-79480352D01*
X102580116Y-79479547D01*
X102586562Y-79484493D01*
X102586564Y-79484494D01*
X102586566Y-79484496D01*
X102696134Y-79547755D01*
X102818341Y-79580500D01*
X102818343Y-79580500D01*
X102944857Y-79580500D01*
X102944859Y-79580500D01*
X103067066Y-79547755D01*
X103176634Y-79484496D01*
X103266096Y-79395034D01*
X103329355Y-79285466D01*
X103362100Y-79163259D01*
X103362100Y-79036741D01*
X103329355Y-78914534D01*
X103266096Y-78804966D01*
X103176634Y-78715504D01*
X103067066Y-78652245D01*
X102944859Y-78619500D01*
X102818341Y-78619500D01*
X102696134Y-78652245D01*
X102696131Y-78652246D01*
X102586562Y-78715506D01*
X102580116Y-78720453D01*
X102579070Y-78719090D01*
X102526358Y-78747874D01*
X102456666Y-78742890D01*
X102420501Y-78719647D01*
X102419884Y-78720453D01*
X102413437Y-78715506D01*
X102303868Y-78652246D01*
X102303867Y-78652245D01*
X102303866Y-78652245D01*
X102181659Y-78619500D01*
X102055141Y-78619500D01*
X101932934Y-78652245D01*
X101932931Y-78652246D01*
X101823364Y-78715505D01*
X101733905Y-78804964D01*
X101670646Y-78914531D01*
X101670645Y-78914534D01*
X101637900Y-79036741D01*
X90406000Y-79036741D01*
X90406000Y-77607646D01*
X109838000Y-77607646D01*
X109838000Y-77720207D01*
X109867133Y-77828937D01*
X109895274Y-77877677D01*
X109923415Y-77926418D01*
X110003009Y-78006012D01*
X110100491Y-78062294D01*
X110209219Y-78091427D01*
X110209221Y-78091427D01*
X110321779Y-78091427D01*
X110321781Y-78091427D01*
X110430509Y-78062294D01*
X110527991Y-78006012D01*
X110607585Y-77926418D01*
X110663867Y-77828936D01*
X110693000Y-77720208D01*
X110693000Y-77607646D01*
X110663867Y-77498918D01*
X110607585Y-77401436D01*
X110527991Y-77321842D01*
X110479250Y-77293701D01*
X110430510Y-77265560D01*
X110376145Y-77250993D01*
X110321781Y-77236427D01*
X110209219Y-77236427D01*
X110100489Y-77265560D01*
X110003009Y-77321842D01*
X110003006Y-77321844D01*
X109923417Y-77401433D01*
X109923415Y-77401436D01*
X109867133Y-77498916D01*
X109838000Y-77607646D01*
X90406000Y-77607646D01*
X90406000Y-75567647D01*
X111488000Y-75567647D01*
X111488000Y-75760206D01*
X111525562Y-75949045D01*
X111525566Y-75949059D01*
X111599246Y-76126940D01*
X111599253Y-76126953D01*
X111706225Y-76287046D01*
X111706228Y-76287050D01*
X111842376Y-76423198D01*
X111842380Y-76423201D01*
X112002473Y-76530173D01*
X112002486Y-76530180D01*
X112151306Y-76591823D01*
X112180374Y-76603863D01*
X112369220Y-76641426D01*
X112369224Y-76641427D01*
X112369225Y-76641427D01*
X112561776Y-76641427D01*
X112561777Y-76641426D01*
X112750626Y-76603863D01*
X112928520Y-76530177D01*
X113088620Y-76423201D01*
X113224774Y-76287047D01*
X113331750Y-76126947D01*
X113405436Y-75949053D01*
X113443000Y-75760202D01*
X113443000Y-75567652D01*
X113442999Y-75567647D01*
X114028000Y-75567647D01*
X114028000Y-75760206D01*
X114065562Y-75949045D01*
X114065566Y-75949059D01*
X114139246Y-76126940D01*
X114139253Y-76126953D01*
X114246225Y-76287046D01*
X114246228Y-76287050D01*
X114382376Y-76423198D01*
X114382380Y-76423201D01*
X114542473Y-76530173D01*
X114542486Y-76530180D01*
X114691306Y-76591823D01*
X114720374Y-76603863D01*
X114909220Y-76641426D01*
X114909224Y-76641427D01*
X114909225Y-76641427D01*
X115101776Y-76641427D01*
X115101777Y-76641426D01*
X115290626Y-76603863D01*
X115468520Y-76530177D01*
X115628620Y-76423201D01*
X115764774Y-76287047D01*
X115871750Y-76126947D01*
X115945436Y-75949053D01*
X115983000Y-75760202D01*
X115983000Y-75567652D01*
X115945436Y-75378801D01*
X115933396Y-75349733D01*
X115871753Y-75200913D01*
X115871746Y-75200900D01*
X115764774Y-75040807D01*
X115764771Y-75040803D01*
X115628623Y-74904655D01*
X115628619Y-74904652D01*
X115468526Y-74797680D01*
X115468513Y-74797673D01*
X115290632Y-74723993D01*
X115290628Y-74723991D01*
X115290626Y-74723991D01*
X115290622Y-74723990D01*
X115290618Y-74723989D01*
X115101779Y-74686427D01*
X115101775Y-74686427D01*
X114909225Y-74686427D01*
X114909220Y-74686427D01*
X114720381Y-74723989D01*
X114720367Y-74723993D01*
X114542486Y-74797673D01*
X114542473Y-74797680D01*
X114382380Y-74904652D01*
X114382376Y-74904655D01*
X114246228Y-75040803D01*
X114246225Y-75040807D01*
X114139253Y-75200900D01*
X114139246Y-75200913D01*
X114065566Y-75378794D01*
X114065562Y-75378808D01*
X114028000Y-75567647D01*
X113442999Y-75567647D01*
X113405436Y-75378801D01*
X113393396Y-75349733D01*
X113331753Y-75200913D01*
X113331746Y-75200900D01*
X113224774Y-75040807D01*
X113224771Y-75040803D01*
X113088623Y-74904655D01*
X113088619Y-74904652D01*
X112928526Y-74797680D01*
X112928513Y-74797673D01*
X112750632Y-74723993D01*
X112750628Y-74723991D01*
X112750626Y-74723991D01*
X112750622Y-74723990D01*
X112750618Y-74723989D01*
X112561779Y-74686427D01*
X112561775Y-74686427D01*
X112369225Y-74686427D01*
X112369220Y-74686427D01*
X112180381Y-74723989D01*
X112180367Y-74723993D01*
X112002486Y-74797673D01*
X112002473Y-74797680D01*
X111842380Y-74904652D01*
X111842376Y-74904655D01*
X111706228Y-75040803D01*
X111706225Y-75040807D01*
X111599253Y-75200900D01*
X111599246Y-75200913D01*
X111525566Y-75378794D01*
X111525562Y-75378808D01*
X111488000Y-75567647D01*
X90406000Y-75567647D01*
X90406000Y-74467512D01*
X99188729Y-74467512D01*
X99188729Y-74594030D01*
X99213487Y-74686427D01*
X99221474Y-74716236D01*
X99221475Y-74716239D01*
X99225951Y-74723991D01*
X99284733Y-74825805D01*
X99374195Y-74915267D01*
X99483763Y-74978526D01*
X99605970Y-75011271D01*
X99605972Y-75011271D01*
X99732486Y-75011271D01*
X99732488Y-75011271D01*
X99854695Y-74978526D01*
X99964263Y-74915267D01*
X100053725Y-74825805D01*
X100116984Y-74716237D01*
X100149729Y-74594030D01*
X100149729Y-74594021D01*
X100150790Y-74585970D01*
X100152492Y-74586194D01*
X100169414Y-74528568D01*
X100222218Y-74482813D01*
X100264224Y-74473674D01*
X100264092Y-74472668D01*
X100272143Y-74471607D01*
X100272152Y-74471607D01*
X100394359Y-74438862D01*
X100503927Y-74375603D01*
X100593389Y-74286141D01*
X100656648Y-74176573D01*
X100689393Y-74054366D01*
X100689393Y-73966909D01*
X101149668Y-73966909D01*
X101149668Y-74093427D01*
X101182413Y-74215634D01*
X101245672Y-74325202D01*
X101335134Y-74414664D01*
X101444702Y-74477923D01*
X101566909Y-74510668D01*
X101566917Y-74510668D01*
X101574969Y-74511729D01*
X101574744Y-74513431D01*
X101632371Y-74530353D01*
X101678126Y-74583157D01*
X101687264Y-74625163D01*
X101688271Y-74625031D01*
X101689332Y-74633090D01*
X101689332Y-74633091D01*
X101722077Y-74755298D01*
X101785336Y-74864866D01*
X101874798Y-74954328D01*
X101984366Y-75017587D01*
X102106573Y-75050332D01*
X102106575Y-75050332D01*
X102233089Y-75050332D01*
X102233091Y-75050332D01*
X102355298Y-75017587D01*
X102464866Y-74954328D01*
X102554328Y-74864866D01*
X102590890Y-74801537D01*
X102641457Y-74753322D01*
X102710064Y-74740100D01*
X102774929Y-74766068D01*
X102815457Y-74822982D01*
X102818052Y-74831445D01*
X102836346Y-74899723D01*
X102845321Y-74915267D01*
X102892628Y-74997204D01*
X102972222Y-75076798D01*
X103069704Y-75133080D01*
X103178432Y-75162213D01*
X103178434Y-75162213D01*
X103290992Y-75162213D01*
X103290994Y-75162213D01*
X103399722Y-75133080D01*
X103497204Y-75076798D01*
X103576798Y-74997204D01*
X103633080Y-74899722D01*
X103662213Y-74790994D01*
X103662213Y-74678432D01*
X103633080Y-74569704D01*
X103576798Y-74472222D01*
X103497204Y-74392628D01*
X103448463Y-74364487D01*
X103399723Y-74336346D01*
X103345358Y-74321779D01*
X103290994Y-74307213D01*
X103178432Y-74307213D01*
X103069702Y-74336346D01*
X102972222Y-74392628D01*
X102972219Y-74392630D01*
X102892630Y-74472219D01*
X102892624Y-74472228D01*
X102870528Y-74510497D01*
X102819960Y-74558711D01*
X102751353Y-74571932D01*
X102686489Y-74545962D01*
X102645962Y-74489047D01*
X102643374Y-74480608D01*
X102617587Y-74384366D01*
X102554328Y-74274798D01*
X102464866Y-74185336D01*
X102384658Y-74139028D01*
X102355300Y-74122078D01*
X102355299Y-74122077D01*
X102355298Y-74122077D01*
X102233091Y-74089332D01*
X102233090Y-74089332D01*
X102225031Y-74088271D01*
X102225255Y-74086568D01*
X102167629Y-74069647D01*
X102121874Y-74016843D01*
X102114335Y-73995263D01*
X102110668Y-73980520D01*
X102110668Y-73966909D01*
X102077923Y-73844702D01*
X102056529Y-73807646D01*
X109838000Y-73807646D01*
X109838000Y-73920208D01*
X109842207Y-73935908D01*
X109867133Y-74028937D01*
X109887298Y-74063863D01*
X109923415Y-74126418D01*
X110003009Y-74206012D01*
X110100491Y-74262294D01*
X110209219Y-74291427D01*
X110209221Y-74291427D01*
X110321779Y-74291427D01*
X110321781Y-74291427D01*
X110430509Y-74262294D01*
X110527991Y-74206012D01*
X110607585Y-74126418D01*
X110663867Y-74028936D01*
X110693000Y-73920208D01*
X110693000Y-73807646D01*
X110663867Y-73698918D01*
X110662224Y-73696073D01*
X110656325Y-73685855D01*
X110607585Y-73601436D01*
X110527991Y-73521842D01*
X110479250Y-73493701D01*
X110430510Y-73465560D01*
X110376145Y-73450993D01*
X110321781Y-73436427D01*
X110209219Y-73436427D01*
X110100489Y-73465560D01*
X110003009Y-73521842D01*
X110003006Y-73521844D01*
X109923417Y-73601433D01*
X109923415Y-73601436D01*
X109867133Y-73698916D01*
X109857429Y-73735134D01*
X109838000Y-73807646D01*
X102056529Y-73807646D01*
X102014664Y-73735134D01*
X101925202Y-73645672D01*
X101815634Y-73582413D01*
X101693427Y-73549668D01*
X101566909Y-73549668D01*
X101444702Y-73582413D01*
X101444699Y-73582414D01*
X101335132Y-73645673D01*
X101245673Y-73735132D01*
X101182414Y-73844699D01*
X101182413Y-73844702D01*
X101149668Y-73966909D01*
X100689393Y-73966909D01*
X100689393Y-73927848D01*
X100656648Y-73805641D01*
X100593389Y-73696073D01*
X100503927Y-73606611D01*
X100394359Y-73543352D01*
X100272152Y-73510607D01*
X100145634Y-73510607D01*
X100023427Y-73543352D01*
X100023424Y-73543353D01*
X99913857Y-73606612D01*
X99824398Y-73696071D01*
X99761139Y-73805638D01*
X99761138Y-73805641D01*
X99728393Y-73927848D01*
X99727332Y-73935908D01*
X99725629Y-73935683D01*
X99708708Y-73993310D01*
X99655904Y-74039065D01*
X99613897Y-74048203D01*
X99614030Y-74049210D01*
X99605970Y-74050271D01*
X99483763Y-74083016D01*
X99483760Y-74083017D01*
X99374193Y-74146276D01*
X99284734Y-74235735D01*
X99221475Y-74345302D01*
X99221474Y-74345305D01*
X99188729Y-74467512D01*
X90406000Y-74467512D01*
X90406000Y-73027647D01*
X111488000Y-73027647D01*
X111488000Y-73220206D01*
X111525562Y-73409045D01*
X111525566Y-73409059D01*
X111599246Y-73586940D01*
X111599253Y-73586953D01*
X111706225Y-73747046D01*
X111706228Y-73747050D01*
X111842376Y-73883198D01*
X111842380Y-73883201D01*
X112002473Y-73990173D01*
X112002486Y-73990180D01*
X112096055Y-74028937D01*
X112180374Y-74063863D01*
X112369220Y-74101426D01*
X112369224Y-74101427D01*
X112369225Y-74101427D01*
X112561776Y-74101427D01*
X112561777Y-74101426D01*
X112750626Y-74063863D01*
X112928520Y-73990177D01*
X113088620Y-73883201D01*
X113224774Y-73747047D01*
X113331750Y-73586947D01*
X113405436Y-73409053D01*
X113443000Y-73220202D01*
X113443000Y-73027652D01*
X113442999Y-73027647D01*
X114028000Y-73027647D01*
X114028000Y-73220206D01*
X114065562Y-73409045D01*
X114065566Y-73409059D01*
X114139246Y-73586940D01*
X114139253Y-73586953D01*
X114246225Y-73747046D01*
X114246228Y-73747050D01*
X114382376Y-73883198D01*
X114382380Y-73883201D01*
X114542473Y-73990173D01*
X114542486Y-73990180D01*
X114636055Y-74028937D01*
X114720374Y-74063863D01*
X114909220Y-74101426D01*
X114909224Y-74101427D01*
X114909225Y-74101427D01*
X115101776Y-74101427D01*
X115101777Y-74101426D01*
X115290626Y-74063863D01*
X115468520Y-73990177D01*
X115628620Y-73883201D01*
X115764774Y-73747047D01*
X115871750Y-73586947D01*
X115945436Y-73409053D01*
X115983000Y-73220202D01*
X115983000Y-73027652D01*
X115945436Y-72838801D01*
X115933396Y-72809733D01*
X115871753Y-72660913D01*
X115871746Y-72660900D01*
X115764774Y-72500807D01*
X115764771Y-72500803D01*
X115628623Y-72364655D01*
X115628619Y-72364652D01*
X115468526Y-72257680D01*
X115468513Y-72257673D01*
X115290632Y-72183993D01*
X115290628Y-72183991D01*
X115290626Y-72183991D01*
X115290622Y-72183990D01*
X115290618Y-72183989D01*
X115101779Y-72146427D01*
X115101775Y-72146427D01*
X114909225Y-72146427D01*
X114909220Y-72146427D01*
X114720381Y-72183989D01*
X114720367Y-72183993D01*
X114542486Y-72257673D01*
X114542473Y-72257680D01*
X114382380Y-72364652D01*
X114382376Y-72364655D01*
X114246228Y-72500803D01*
X114246225Y-72500807D01*
X114139253Y-72660900D01*
X114139246Y-72660913D01*
X114065566Y-72838794D01*
X114065562Y-72838808D01*
X114028000Y-73027647D01*
X113442999Y-73027647D01*
X113405436Y-72838801D01*
X113393396Y-72809733D01*
X113331753Y-72660913D01*
X113331746Y-72660900D01*
X113224774Y-72500807D01*
X113224771Y-72500803D01*
X113088623Y-72364655D01*
X113088619Y-72364652D01*
X112928526Y-72257680D01*
X112928513Y-72257673D01*
X112750632Y-72183993D01*
X112750628Y-72183991D01*
X112750626Y-72183991D01*
X112750622Y-72183990D01*
X112750618Y-72183989D01*
X112561779Y-72146427D01*
X112561775Y-72146427D01*
X112369225Y-72146427D01*
X112369220Y-72146427D01*
X112180381Y-72183989D01*
X112180367Y-72183993D01*
X112002486Y-72257673D01*
X112002473Y-72257680D01*
X111842380Y-72364652D01*
X111842376Y-72364655D01*
X111706228Y-72500803D01*
X111706225Y-72500807D01*
X111599253Y-72660900D01*
X111599246Y-72660913D01*
X111525566Y-72838794D01*
X111525562Y-72838808D01*
X111488000Y-73027647D01*
X90406000Y-73027647D01*
X90406000Y-70487647D01*
X111488000Y-70487647D01*
X111488000Y-70680206D01*
X111525562Y-70869045D01*
X111525566Y-70869059D01*
X111599246Y-71046940D01*
X111599253Y-71046953D01*
X111706225Y-71207046D01*
X111706228Y-71207050D01*
X111842376Y-71343198D01*
X111842380Y-71343201D01*
X112002473Y-71450173D01*
X112002486Y-71450180D01*
X112151306Y-71511823D01*
X112180374Y-71523863D01*
X112369220Y-71561426D01*
X112369224Y-71561427D01*
X112369225Y-71561427D01*
X112561776Y-71561427D01*
X112561777Y-71561426D01*
X112750626Y-71523863D01*
X112928520Y-71450177D01*
X113088620Y-71343201D01*
X113224774Y-71207047D01*
X113331750Y-71046947D01*
X113405436Y-70869053D01*
X113443000Y-70680202D01*
X113443000Y-70487652D01*
X113442999Y-70487647D01*
X114028000Y-70487647D01*
X114028000Y-70680206D01*
X114065562Y-70869045D01*
X114065566Y-70869059D01*
X114139246Y-71046940D01*
X114139253Y-71046953D01*
X114246225Y-71207046D01*
X114246228Y-71207050D01*
X114382376Y-71343198D01*
X114382380Y-71343201D01*
X114542473Y-71450173D01*
X114542486Y-71450180D01*
X114691306Y-71511823D01*
X114720374Y-71523863D01*
X114909220Y-71561426D01*
X114909224Y-71561427D01*
X114909225Y-71561427D01*
X115101776Y-71561427D01*
X115101777Y-71561426D01*
X115290626Y-71523863D01*
X115468520Y-71450177D01*
X115628620Y-71343201D01*
X115764774Y-71207047D01*
X115871750Y-71046947D01*
X115945436Y-70869053D01*
X115983000Y-70680202D01*
X115983000Y-70487652D01*
X115945436Y-70298801D01*
X115933396Y-70269733D01*
X115871753Y-70120913D01*
X115871746Y-70120900D01*
X115764774Y-69960807D01*
X115764771Y-69960803D01*
X115628623Y-69824655D01*
X115628619Y-69824652D01*
X115468526Y-69717680D01*
X115468513Y-69717673D01*
X115290632Y-69643993D01*
X115290628Y-69643991D01*
X115290626Y-69643991D01*
X115290622Y-69643990D01*
X115290618Y-69643989D01*
X115101779Y-69606427D01*
X115101775Y-69606427D01*
X114909225Y-69606427D01*
X114909220Y-69606427D01*
X114720381Y-69643989D01*
X114720367Y-69643993D01*
X114542486Y-69717673D01*
X114542473Y-69717680D01*
X114382380Y-69824652D01*
X114382376Y-69824655D01*
X114246228Y-69960803D01*
X114246225Y-69960807D01*
X114139253Y-70120900D01*
X114139246Y-70120913D01*
X114065566Y-70298794D01*
X114065562Y-70298808D01*
X114028000Y-70487647D01*
X113442999Y-70487647D01*
X113405436Y-70298801D01*
X113393396Y-70269733D01*
X113331753Y-70120913D01*
X113331746Y-70120900D01*
X113224774Y-69960807D01*
X113224771Y-69960803D01*
X113088623Y-69824655D01*
X113088619Y-69824652D01*
X112928526Y-69717680D01*
X112928513Y-69717673D01*
X112750632Y-69643993D01*
X112750628Y-69643991D01*
X112750626Y-69643991D01*
X112750622Y-69643990D01*
X112750618Y-69643989D01*
X112561779Y-69606427D01*
X112561775Y-69606427D01*
X112369225Y-69606427D01*
X112369220Y-69606427D01*
X112180381Y-69643989D01*
X112180367Y-69643993D01*
X112002486Y-69717673D01*
X112002473Y-69717680D01*
X111842380Y-69824652D01*
X111842376Y-69824655D01*
X111706228Y-69960803D01*
X111706225Y-69960807D01*
X111599253Y-70120900D01*
X111599246Y-70120913D01*
X111525566Y-70298794D01*
X111525562Y-70298808D01*
X111488000Y-70487647D01*
X90406000Y-70487647D01*
X90406000Y-67181368D01*
X111488000Y-67181368D01*
X111488000Y-68906485D01*
X111495398Y-68943676D01*
X111523577Y-68985849D01*
X111565750Y-69014028D01*
X111565752Y-69014029D01*
X111593705Y-69019589D01*
X111602941Y-69021427D01*
X111602942Y-69021427D01*
X113328059Y-69021427D01*
X113335457Y-69019955D01*
X113365248Y-69014029D01*
X113407422Y-68985849D01*
X113435602Y-68943675D01*
X113443000Y-68906485D01*
X113443000Y-67947647D01*
X114028000Y-67947647D01*
X114028000Y-68140206D01*
X114065562Y-68329045D01*
X114065566Y-68329059D01*
X114139246Y-68506940D01*
X114139253Y-68506953D01*
X114246225Y-68667046D01*
X114246228Y-68667050D01*
X114382376Y-68803198D01*
X114382380Y-68803201D01*
X114542473Y-68910173D01*
X114542486Y-68910180D01*
X114691306Y-68971823D01*
X114720374Y-68983863D01*
X114872027Y-69014028D01*
X114909220Y-69021426D01*
X114909224Y-69021427D01*
X114909225Y-69021427D01*
X115101776Y-69021427D01*
X115101777Y-69021426D01*
X115290626Y-68983863D01*
X115468520Y-68910177D01*
X115628620Y-68803201D01*
X115764774Y-68667047D01*
X115871750Y-68506947D01*
X115945436Y-68329053D01*
X115983000Y-68140202D01*
X115983000Y-67947652D01*
X115945436Y-67758801D01*
X115933396Y-67729733D01*
X115871753Y-67580913D01*
X115871746Y-67580900D01*
X115764774Y-67420807D01*
X115764771Y-67420803D01*
X115628623Y-67284655D01*
X115628619Y-67284652D01*
X115468526Y-67177680D01*
X115468513Y-67177673D01*
X115290632Y-67103993D01*
X115290628Y-67103991D01*
X115290626Y-67103991D01*
X115290622Y-67103990D01*
X115290618Y-67103989D01*
X115101779Y-67066427D01*
X115101775Y-67066427D01*
X114909225Y-67066427D01*
X114909220Y-67066427D01*
X114720381Y-67103989D01*
X114720367Y-67103993D01*
X114542486Y-67177673D01*
X114542473Y-67177680D01*
X114382380Y-67284652D01*
X114382376Y-67284655D01*
X114246228Y-67420803D01*
X114246225Y-67420807D01*
X114139253Y-67580900D01*
X114139246Y-67580913D01*
X114065566Y-67758794D01*
X114065562Y-67758808D01*
X114028000Y-67947647D01*
X113443000Y-67947647D01*
X113443000Y-67181369D01*
X113435602Y-67144179D01*
X113435601Y-67144177D01*
X113407422Y-67102004D01*
X113365249Y-67073825D01*
X113328059Y-67066427D01*
X113328058Y-67066427D01*
X111602942Y-67066427D01*
X111602941Y-67066427D01*
X111565750Y-67073825D01*
X111523577Y-67102004D01*
X111495398Y-67144177D01*
X111488000Y-67181368D01*
X90406000Y-67181368D01*
X90406000Y-66729771D01*
X100043206Y-66729771D01*
X100172152Y-66783183D01*
X100172156Y-66783184D01*
X100326702Y-66813925D01*
X100326706Y-66813926D01*
X100484294Y-66813926D01*
X100484297Y-66813925D01*
X100638843Y-66783184D01*
X100638847Y-66783183D01*
X100767793Y-66729771D01*
X101243206Y-66729771D01*
X101372152Y-66783183D01*
X101372156Y-66783184D01*
X101526702Y-66813925D01*
X101526706Y-66813926D01*
X101684294Y-66813926D01*
X101684297Y-66813925D01*
X101838843Y-66783184D01*
X101838847Y-66783183D01*
X101967793Y-66729771D01*
X102443206Y-66729771D01*
X102572152Y-66783183D01*
X102572156Y-66783184D01*
X102726702Y-66813925D01*
X102726706Y-66813926D01*
X102884294Y-66813926D01*
X102884297Y-66813925D01*
X103038843Y-66783184D01*
X103038847Y-66783183D01*
X103167793Y-66729771D01*
X102805501Y-66367479D01*
X102805500Y-66367479D01*
X102443206Y-66729771D01*
X101967793Y-66729771D01*
X101605501Y-66367479D01*
X101605500Y-66367479D01*
X101243206Y-66729771D01*
X100767793Y-66729771D01*
X100405501Y-66367479D01*
X100405500Y-66367479D01*
X100043206Y-66729771D01*
X90406000Y-66729771D01*
X90406000Y-65997338D01*
X95359961Y-65997338D01*
X95359961Y-66109899D01*
X95389094Y-66218629D01*
X95413195Y-66260371D01*
X95445376Y-66316110D01*
X95524970Y-66395704D01*
X95622452Y-66451986D01*
X95731180Y-66481119D01*
X95731182Y-66481119D01*
X95843740Y-66481119D01*
X95843742Y-66481119D01*
X95952470Y-66451986D01*
X96049952Y-66395704D01*
X96129546Y-66316110D01*
X96185828Y-66218628D01*
X96214961Y-66109900D01*
X96214961Y-65997338D01*
X96185828Y-65888610D01*
X96129546Y-65791128D01*
X96049952Y-65711534D01*
X96001211Y-65683393D01*
X95952471Y-65655252D01*
X95898106Y-65640685D01*
X95843742Y-65626119D01*
X95731180Y-65626119D01*
X95622450Y-65655252D01*
X95524970Y-65711534D01*
X95524967Y-65711536D01*
X95445378Y-65791125D01*
X95445376Y-65791128D01*
X95389094Y-65888608D01*
X95359961Y-65997338D01*
X90406000Y-65997338D01*
X90406000Y-65235130D01*
X99605500Y-65235130D01*
X99605500Y-65392725D01*
X99636241Y-65547271D01*
X99636244Y-65547283D01*
X99664904Y-65616475D01*
X99672373Y-65685945D01*
X99664904Y-65711379D01*
X99636244Y-65780570D01*
X99636241Y-65780582D01*
X99605500Y-65935128D01*
X99605500Y-66092723D01*
X99636241Y-66247269D01*
X99636243Y-66247277D01*
X99689653Y-66376219D01*
X100081783Y-65984089D01*
X100255500Y-65984089D01*
X100255500Y-66043763D01*
X100278336Y-66098894D01*
X100320532Y-66141090D01*
X100375663Y-66163926D01*
X100435337Y-66163926D01*
X100481610Y-66144759D01*
X100889887Y-66144759D01*
X101005499Y-66260371D01*
X101121111Y-66144759D01*
X101005500Y-66029146D01*
X100889887Y-66144759D01*
X100481610Y-66144759D01*
X100490468Y-66141090D01*
X100532664Y-66098894D01*
X100555500Y-66043763D01*
X100555500Y-65984089D01*
X101455500Y-65984089D01*
X101455500Y-66043763D01*
X101478336Y-66098894D01*
X101520532Y-66141090D01*
X101575663Y-66163926D01*
X101635337Y-66163926D01*
X101681610Y-66144759D01*
X102089887Y-66144759D01*
X102205499Y-66260371D01*
X102321111Y-66144759D01*
X102205500Y-66029146D01*
X102089887Y-66144759D01*
X101681610Y-66144759D01*
X101690468Y-66141090D01*
X101732664Y-66098894D01*
X101755500Y-66043763D01*
X101755500Y-65984089D01*
X102655500Y-65984089D01*
X102655500Y-66043763D01*
X102678336Y-66098894D01*
X102720532Y-66141090D01*
X102775663Y-66163926D01*
X102835337Y-66163926D01*
X102890468Y-66141090D01*
X102932664Y-66098894D01*
X102955500Y-66043763D01*
X102955500Y-65984089D01*
X102932664Y-65928958D01*
X102890468Y-65886762D01*
X102835337Y-65863926D01*
X102775663Y-65863926D01*
X102720532Y-65886762D01*
X102678336Y-65928958D01*
X102655500Y-65984089D01*
X101755500Y-65984089D01*
X101732664Y-65928958D01*
X101690468Y-65886762D01*
X101635337Y-65863926D01*
X101575663Y-65863926D01*
X101520532Y-65886762D01*
X101478336Y-65928958D01*
X101455500Y-65984089D01*
X100555500Y-65984089D01*
X100532664Y-65928958D01*
X100490468Y-65886762D01*
X100435337Y-65863926D01*
X100375663Y-65863926D01*
X100320532Y-65886762D01*
X100278336Y-65928958D01*
X100255500Y-65984089D01*
X100081783Y-65984089D01*
X100401945Y-65663927D01*
X102809054Y-65663927D01*
X102982277Y-65837148D01*
X102982277Y-65837149D01*
X103521345Y-66376219D01*
X103574757Y-66247273D01*
X103574758Y-66247269D01*
X103605499Y-66092723D01*
X103605500Y-66092720D01*
X103605500Y-65935132D01*
X103605499Y-65935128D01*
X103574758Y-65780582D01*
X103574755Y-65780570D01*
X103546095Y-65711381D01*
X103538625Y-65641912D01*
X103546095Y-65616473D01*
X103574755Y-65547283D01*
X103574758Y-65547271D01*
X103605499Y-65392725D01*
X103605500Y-65392722D01*
X103605500Y-65235134D01*
X103605499Y-65235130D01*
X103603228Y-65223710D01*
X103600033Y-65207646D01*
X104778000Y-65207646D01*
X104778000Y-65320207D01*
X104807133Y-65428937D01*
X104814151Y-65441092D01*
X104863415Y-65526418D01*
X104943009Y-65606012D01*
X105040491Y-65662294D01*
X105149219Y-65691427D01*
X105149221Y-65691427D01*
X105261779Y-65691427D01*
X105261781Y-65691427D01*
X105370509Y-65662294D01*
X105467991Y-65606012D01*
X105547585Y-65526418D01*
X105603867Y-65428936D01*
X105633000Y-65320208D01*
X105633000Y-65207646D01*
X105603867Y-65098918D01*
X105599541Y-65091426D01*
X105593277Y-65080576D01*
X105547585Y-65001436D01*
X105467991Y-64921842D01*
X105467988Y-64921840D01*
X105467984Y-64921837D01*
X105442124Y-64906906D01*
X105442121Y-64906906D01*
X105370510Y-64865560D01*
X105316145Y-64850993D01*
X105261781Y-64836427D01*
X105149219Y-64836427D01*
X105040489Y-64865560D01*
X104943009Y-64921842D01*
X104943006Y-64921844D01*
X104863417Y-65001433D01*
X104863415Y-65001436D01*
X104807133Y-65098916D01*
X104778000Y-65207646D01*
X103600033Y-65207646D01*
X103574758Y-65080584D01*
X103574757Y-65080580D01*
X103521345Y-64951634D01*
X102982277Y-65490705D01*
X102982277Y-65490706D01*
X102809054Y-65663927D01*
X100401945Y-65663927D01*
X100228723Y-65490705D01*
X100022110Y-65284091D01*
X100255500Y-65284091D01*
X100255500Y-65343765D01*
X100278336Y-65398896D01*
X100320532Y-65441092D01*
X100375663Y-65463928D01*
X100435337Y-65463928D01*
X100490468Y-65441092D01*
X100532664Y-65398896D01*
X100555500Y-65343765D01*
X100555500Y-65284091D01*
X100532664Y-65228960D01*
X100490468Y-65186764D01*
X100481608Y-65183094D01*
X100889887Y-65183094D01*
X101005499Y-65298706D01*
X101020114Y-65284091D01*
X101455500Y-65284091D01*
X101455500Y-65343765D01*
X101478336Y-65398896D01*
X101520532Y-65441092D01*
X101575663Y-65463928D01*
X101635337Y-65463928D01*
X101690468Y-65441092D01*
X101732664Y-65398896D01*
X101755500Y-65343765D01*
X101755500Y-65284091D01*
X101732664Y-65228960D01*
X101690468Y-65186764D01*
X101681608Y-65183094D01*
X102089887Y-65183094D01*
X102205499Y-65298706D01*
X102220114Y-65284091D01*
X102655500Y-65284091D01*
X102655500Y-65343765D01*
X102678336Y-65398896D01*
X102720532Y-65441092D01*
X102775663Y-65463928D01*
X102835337Y-65463928D01*
X102890468Y-65441092D01*
X102932664Y-65398896D01*
X102955500Y-65343765D01*
X102955500Y-65284091D01*
X102932664Y-65228960D01*
X102890468Y-65186764D01*
X102835337Y-65163928D01*
X102775663Y-65163928D01*
X102720532Y-65186764D01*
X102678336Y-65228960D01*
X102655500Y-65284091D01*
X102220114Y-65284091D01*
X102321111Y-65183094D01*
X102205500Y-65067481D01*
X102089887Y-65183094D01*
X101681608Y-65183094D01*
X101635337Y-65163928D01*
X101575663Y-65163928D01*
X101520532Y-65186764D01*
X101478336Y-65228960D01*
X101455500Y-65284091D01*
X101020114Y-65284091D01*
X101121111Y-65183094D01*
X101005500Y-65067481D01*
X100889887Y-65183094D01*
X100481608Y-65183094D01*
X100435337Y-65163928D01*
X100375663Y-65163928D01*
X100320532Y-65186764D01*
X100278336Y-65228960D01*
X100255500Y-65284091D01*
X100022110Y-65284091D01*
X99957432Y-65219413D01*
X99689653Y-64951633D01*
X99636243Y-65080576D01*
X99636241Y-65080584D01*
X99605500Y-65235130D01*
X90406000Y-65235130D01*
X90406000Y-64607646D01*
X93778000Y-64607646D01*
X93778000Y-64720208D01*
X93792566Y-64774572D01*
X93807133Y-64828937D01*
X93828278Y-64865560D01*
X93863415Y-64926418D01*
X93943009Y-65006012D01*
X94040491Y-65062294D01*
X94149219Y-65091427D01*
X94149221Y-65091427D01*
X94261779Y-65091427D01*
X94261781Y-65091427D01*
X94370509Y-65062294D01*
X94467991Y-65006012D01*
X94547585Y-64926418D01*
X94603867Y-64828936D01*
X94633000Y-64720208D01*
X94633000Y-64607646D01*
X94603867Y-64498918D01*
X94584607Y-64465560D01*
X94582275Y-64461520D01*
X94582274Y-64461517D01*
X94551171Y-64407646D01*
X96778000Y-64407646D01*
X96778000Y-64520208D01*
X96784554Y-64544669D01*
X96807133Y-64628937D01*
X96835274Y-64677677D01*
X96863415Y-64726418D01*
X96943009Y-64806012D01*
X97040491Y-64862294D01*
X97149219Y-64891427D01*
X97149221Y-64891427D01*
X97261779Y-64891427D01*
X97261781Y-64891427D01*
X97370509Y-64862294D01*
X97467991Y-64806012D01*
X97547585Y-64726418D01*
X97603867Y-64628936D01*
X97612134Y-64598081D01*
X100043205Y-64598081D01*
X100405500Y-64960374D01*
X100405501Y-64960374D01*
X100767793Y-64598081D01*
X101243205Y-64598081D01*
X101605500Y-64960374D01*
X101605501Y-64960374D01*
X101967793Y-64598081D01*
X102443205Y-64598081D01*
X102805500Y-64960374D01*
X102805501Y-64960374D01*
X102958229Y-64807646D01*
X108578000Y-64807646D01*
X108578000Y-64920208D01*
X108588762Y-64960374D01*
X108607133Y-65028937D01*
X108629387Y-65067481D01*
X108663415Y-65126418D01*
X108743009Y-65206012D01*
X108840491Y-65262294D01*
X108949219Y-65291427D01*
X108949221Y-65291427D01*
X109061779Y-65291427D01*
X109061781Y-65291427D01*
X109170509Y-65262294D01*
X109267991Y-65206012D01*
X109347585Y-65126418D01*
X109403867Y-65028936D01*
X109433000Y-64920208D01*
X109433000Y-64807646D01*
X109403867Y-64698918D01*
X109347585Y-64601436D01*
X109267991Y-64521842D01*
X109219250Y-64493701D01*
X109170510Y-64465560D01*
X109116145Y-64450993D01*
X109061781Y-64436427D01*
X108949219Y-64436427D01*
X108840489Y-64465560D01*
X108743009Y-64521842D01*
X108743006Y-64521844D01*
X108663417Y-64601433D01*
X108663415Y-64601436D01*
X108607133Y-64698916D01*
X108599764Y-64726420D01*
X108578000Y-64807646D01*
X102958229Y-64807646D01*
X103167793Y-64598081D01*
X103038851Y-64544671D01*
X103038843Y-64544669D01*
X102884297Y-64513928D01*
X102726702Y-64513928D01*
X102572156Y-64544669D01*
X102572148Y-64544671D01*
X102443205Y-64598081D01*
X101967793Y-64598081D01*
X101838851Y-64544671D01*
X101838843Y-64544669D01*
X101684297Y-64513928D01*
X101526702Y-64513928D01*
X101372156Y-64544669D01*
X101372148Y-64544671D01*
X101243205Y-64598081D01*
X100767793Y-64598081D01*
X100638851Y-64544671D01*
X100638843Y-64544669D01*
X100484297Y-64513928D01*
X100326702Y-64513928D01*
X100172156Y-64544669D01*
X100172148Y-64544671D01*
X100043205Y-64598081D01*
X97612134Y-64598081D01*
X97633000Y-64520208D01*
X97633000Y-64407646D01*
X97603867Y-64298918D01*
X97547585Y-64201436D01*
X97467991Y-64121842D01*
X97419250Y-64093701D01*
X97370510Y-64065560D01*
X97316145Y-64050993D01*
X97261781Y-64036427D01*
X97149219Y-64036427D01*
X97040489Y-64065560D01*
X96943009Y-64121842D01*
X96943006Y-64121844D01*
X96863417Y-64201433D01*
X96863415Y-64201436D01*
X96807133Y-64298916D01*
X96800990Y-64321844D01*
X96778000Y-64407646D01*
X94551171Y-64407646D01*
X94547589Y-64401442D01*
X94547586Y-64401439D01*
X94547585Y-64401436D01*
X94467991Y-64321842D01*
X94419250Y-64293701D01*
X94370510Y-64265560D01*
X94316145Y-64250993D01*
X94261781Y-64236427D01*
X94149219Y-64236427D01*
X94040489Y-64265560D01*
X93943009Y-64321842D01*
X93943006Y-64321844D01*
X93863417Y-64401433D01*
X93863415Y-64401436D01*
X93807133Y-64498916D01*
X93780563Y-64598081D01*
X93778000Y-64607646D01*
X90406000Y-64607646D01*
X90406000Y-62007646D01*
X98726800Y-62007646D01*
X98726800Y-62120207D01*
X98755933Y-62228937D01*
X98784074Y-62277677D01*
X98812215Y-62326418D01*
X98891809Y-62406012D01*
X98989291Y-62462294D01*
X99098019Y-62491427D01*
X99098021Y-62491427D01*
X99210579Y-62491427D01*
X99210581Y-62491427D01*
X99319309Y-62462294D01*
X99416791Y-62406012D01*
X99496385Y-62326418D01*
X99552667Y-62228936D01*
X99581800Y-62120208D01*
X99581800Y-62007646D01*
X99552667Y-61898918D01*
X99552665Y-61898914D01*
X99544150Y-61884165D01*
X99544149Y-61884163D01*
X99513046Y-61830292D01*
X105600646Y-61830292D01*
X105600646Y-61942853D01*
X105629779Y-62051583D01*
X105657920Y-62100323D01*
X105686061Y-62149064D01*
X105765655Y-62228658D01*
X105863137Y-62284940D01*
X105971865Y-62314073D01*
X105971867Y-62314073D01*
X106084425Y-62314073D01*
X106084427Y-62314073D01*
X106193155Y-62284940D01*
X106290637Y-62228658D01*
X106344104Y-62175191D01*
X110878000Y-62175191D01*
X110878000Y-62352662D01*
X110905763Y-62527951D01*
X110905763Y-62527954D01*
X110960603Y-62696734D01*
X111041178Y-62854869D01*
X111145485Y-62998437D01*
X111145489Y-62998442D01*
X111270984Y-63123937D01*
X111270989Y-63123941D01*
X111396216Y-63214923D01*
X111414561Y-63228251D01*
X111572690Y-63308822D01*
X111572692Y-63308823D01*
X111741473Y-63363663D01*
X111741474Y-63363663D01*
X111741477Y-63363664D01*
X111916764Y-63391427D01*
X111916765Y-63391427D01*
X112094235Y-63391427D01*
X112094236Y-63391427D01*
X112269523Y-63363664D01*
X112269526Y-63363663D01*
X112269527Y-63363663D01*
X112438307Y-63308823D01*
X112438307Y-63308822D01*
X112438310Y-63308822D01*
X112596439Y-63228251D01*
X112740017Y-63123936D01*
X112865509Y-62998444D01*
X112969824Y-62854866D01*
X113050395Y-62696737D01*
X113105237Y-62527950D01*
X113133000Y-62352663D01*
X113133000Y-62175191D01*
X114578000Y-62175191D01*
X114578000Y-62352662D01*
X114605763Y-62527951D01*
X114605763Y-62527954D01*
X114660603Y-62696734D01*
X114741178Y-62854869D01*
X114845485Y-62998437D01*
X114845489Y-62998442D01*
X114970984Y-63123937D01*
X114970989Y-63123941D01*
X115096216Y-63214923D01*
X115114561Y-63228251D01*
X115272690Y-63308822D01*
X115272692Y-63308823D01*
X115441473Y-63363663D01*
X115441474Y-63363663D01*
X115441477Y-63363664D01*
X115616764Y-63391427D01*
X115616765Y-63391427D01*
X115794235Y-63391427D01*
X115794236Y-63391427D01*
X115969523Y-63363664D01*
X115969526Y-63363663D01*
X115969527Y-63363663D01*
X116138307Y-63308823D01*
X116138307Y-63308822D01*
X116138310Y-63308822D01*
X116296439Y-63228251D01*
X116440017Y-63123936D01*
X116565509Y-62998444D01*
X116669824Y-62854866D01*
X116750395Y-62696737D01*
X116805237Y-62527950D01*
X116833000Y-62352663D01*
X116833000Y-62175191D01*
X116805237Y-61999904D01*
X116805236Y-61999900D01*
X116805236Y-61999899D01*
X116750396Y-61831119D01*
X116694716Y-61721842D01*
X116669824Y-61672988D01*
X116616272Y-61599279D01*
X116565514Y-61529416D01*
X116565510Y-61529411D01*
X116440015Y-61403916D01*
X116440010Y-61403912D01*
X116296442Y-61299605D01*
X116296441Y-61299604D01*
X116296439Y-61299603D01*
X116157748Y-61228936D01*
X116138307Y-61219030D01*
X115969526Y-61164190D01*
X115838057Y-61143367D01*
X115794236Y-61136427D01*
X115616764Y-61136427D01*
X115558335Y-61145681D01*
X115441475Y-61164190D01*
X115441472Y-61164190D01*
X115272692Y-61219030D01*
X115114557Y-61299605D01*
X114970989Y-61403912D01*
X114970984Y-61403916D01*
X114845489Y-61529411D01*
X114845485Y-61529416D01*
X114741178Y-61672984D01*
X114660603Y-61831119D01*
X114605763Y-61999899D01*
X114605763Y-61999902D01*
X114578000Y-62175191D01*
X113133000Y-62175191D01*
X113105237Y-61999904D01*
X113105236Y-61999900D01*
X113105236Y-61999899D01*
X113050396Y-61831119D01*
X112994716Y-61721842D01*
X112969824Y-61672988D01*
X112916272Y-61599279D01*
X112865514Y-61529416D01*
X112865510Y-61529411D01*
X112740015Y-61403916D01*
X112740010Y-61403912D01*
X112596442Y-61299605D01*
X112596441Y-61299604D01*
X112596439Y-61299603D01*
X112457748Y-61228936D01*
X112438307Y-61219030D01*
X112269526Y-61164190D01*
X112138057Y-61143367D01*
X112094236Y-61136427D01*
X111916764Y-61136427D01*
X111858335Y-61145681D01*
X111741475Y-61164190D01*
X111741472Y-61164190D01*
X111572692Y-61219030D01*
X111414557Y-61299605D01*
X111270989Y-61403912D01*
X111270984Y-61403916D01*
X111145489Y-61529411D01*
X111145485Y-61529416D01*
X111041178Y-61672984D01*
X110960603Y-61831119D01*
X110905763Y-61999899D01*
X110905763Y-61999902D01*
X110878000Y-62175191D01*
X106344104Y-62175191D01*
X106370231Y-62149064D01*
X106426513Y-62051582D01*
X106455646Y-61942854D01*
X106455646Y-61830292D01*
X106426513Y-61721564D01*
X106370231Y-61624082D01*
X106345428Y-61599279D01*
X106311943Y-61537956D01*
X106316927Y-61468264D01*
X106358799Y-61412331D01*
X106365608Y-61407839D01*
X106367983Y-61406016D01*
X106367991Y-61406012D01*
X106447585Y-61326418D01*
X106503867Y-61228936D01*
X106533000Y-61120208D01*
X106533000Y-61007646D01*
X106503867Y-60898918D01*
X106447585Y-60801436D01*
X106367991Y-60721842D01*
X106319250Y-60693701D01*
X106270510Y-60665560D01*
X106216145Y-60650993D01*
X106161781Y-60636427D01*
X106049219Y-60636427D01*
X105940489Y-60665560D01*
X105843009Y-60721842D01*
X105843006Y-60721844D01*
X105763417Y-60801433D01*
X105763415Y-60801436D01*
X105707133Y-60898916D01*
X105691763Y-60956279D01*
X105678000Y-61007646D01*
X105678000Y-61120208D01*
X105689330Y-61162493D01*
X105707133Y-61228937D01*
X105727183Y-61263663D01*
X105763415Y-61326418D01*
X105763417Y-61326420D01*
X105788217Y-61351220D01*
X105821702Y-61412543D01*
X105816718Y-61482235D01*
X105774846Y-61538168D01*
X105768042Y-61542656D01*
X105765652Y-61544490D01*
X105686063Y-61624079D01*
X105686061Y-61624082D01*
X105629779Y-61721562D01*
X105600646Y-61830292D01*
X99513046Y-61830292D01*
X99496389Y-61801442D01*
X99496386Y-61801439D01*
X99496385Y-61801436D01*
X99416791Y-61721842D01*
X99332168Y-61672984D01*
X99319310Y-61665560D01*
X99264945Y-61650993D01*
X99210581Y-61636427D01*
X99098019Y-61636427D01*
X98989289Y-61665560D01*
X98891809Y-61721842D01*
X98891806Y-61721844D01*
X98812217Y-61801433D01*
X98812215Y-61801436D01*
X98755933Y-61898916D01*
X98726800Y-62007646D01*
X90406000Y-62007646D01*
X90406000Y-60075191D01*
X92178000Y-60075191D01*
X92178000Y-60252662D01*
X92205763Y-60427951D01*
X92205763Y-60427954D01*
X92260603Y-60596734D01*
X92260605Y-60596737D01*
X92341175Y-60754865D01*
X92341178Y-60754869D01*
X92445485Y-60898437D01*
X92445489Y-60898442D01*
X92570984Y-61023937D01*
X92570989Y-61023941D01*
X92696216Y-61114923D01*
X92714561Y-61128251D01*
X92872690Y-61208822D01*
X92872692Y-61208823D01*
X93041473Y-61263663D01*
X93041474Y-61263663D01*
X93041477Y-61263664D01*
X93216764Y-61291427D01*
X93216765Y-61291427D01*
X93394235Y-61291427D01*
X93394236Y-61291427D01*
X93569523Y-61263664D01*
X93569526Y-61263663D01*
X93569527Y-61263663D01*
X93738307Y-61208823D01*
X93738307Y-61208822D01*
X93738310Y-61208822D01*
X93896439Y-61128251D01*
X94040017Y-61023936D01*
X94165509Y-60898444D01*
X94205269Y-60843719D01*
X100872500Y-60843719D01*
X100872500Y-60956280D01*
X100901633Y-61065010D01*
X100929774Y-61113750D01*
X100957915Y-61162491D01*
X101037509Y-61242085D01*
X101134991Y-61298367D01*
X101243719Y-61327500D01*
X101243721Y-61327500D01*
X101356279Y-61327500D01*
X101356281Y-61327500D01*
X101465009Y-61298367D01*
X101562491Y-61242085D01*
X101642085Y-61162491D01*
X101698367Y-61065009D01*
X101727500Y-60956281D01*
X101727500Y-60843719D01*
X101698367Y-60734991D01*
X101642085Y-60637509D01*
X101562491Y-60557915D01*
X101513750Y-60529774D01*
X101465010Y-60501633D01*
X101410645Y-60487066D01*
X101356281Y-60472500D01*
X101243719Y-60472500D01*
X101134989Y-60501633D01*
X101037509Y-60557915D01*
X101037506Y-60557917D01*
X100957917Y-60637506D01*
X100957915Y-60637509D01*
X100901633Y-60734989D01*
X100872500Y-60843719D01*
X94205269Y-60843719D01*
X94269824Y-60754866D01*
X94350395Y-60596737D01*
X94405237Y-60427950D01*
X94433000Y-60252663D01*
X94433000Y-60075191D01*
X94405237Y-59899904D01*
X94405236Y-59899900D01*
X94405236Y-59899899D01*
X94350396Y-59731119D01*
X94350395Y-59731117D01*
X94269824Y-59572988D01*
X94256496Y-59554643D01*
X94165514Y-59429416D01*
X94165510Y-59429411D01*
X94040015Y-59303916D01*
X94040010Y-59303912D01*
X93896442Y-59199605D01*
X93896441Y-59199604D01*
X93896439Y-59199603D01*
X93817374Y-59159317D01*
X93738307Y-59119030D01*
X93569526Y-59064190D01*
X93438057Y-59043367D01*
X93394236Y-59036427D01*
X93216764Y-59036427D01*
X93158335Y-59045681D01*
X93041475Y-59064190D01*
X93041472Y-59064190D01*
X92872692Y-59119030D01*
X92714557Y-59199605D01*
X92570989Y-59303912D01*
X92570984Y-59303916D01*
X92445489Y-59429411D01*
X92445485Y-59429416D01*
X92341178Y-59572984D01*
X92260603Y-59731119D01*
X92205763Y-59899899D01*
X92205763Y-59899902D01*
X92178000Y-60075191D01*
X90406000Y-60075191D01*
X90406000Y-53166909D01*
X100449668Y-53166909D01*
X100449668Y-53293427D01*
X100482413Y-53415634D01*
X100545672Y-53525202D01*
X100635134Y-53614664D01*
X100744702Y-53677923D01*
X100866909Y-53710668D01*
X100866917Y-53710668D01*
X100874969Y-53711729D01*
X100874744Y-53713431D01*
X100932371Y-53730353D01*
X100978126Y-53783157D01*
X100987264Y-53825163D01*
X100988271Y-53825031D01*
X100989332Y-53833089D01*
X100989332Y-53833091D01*
X101022077Y-53955298D01*
X101085336Y-54064866D01*
X101174798Y-54154328D01*
X101284366Y-54217587D01*
X101406573Y-54250332D01*
X101406575Y-54250332D01*
X101533089Y-54250332D01*
X101533091Y-54250332D01*
X101655298Y-54217587D01*
X101764866Y-54154328D01*
X101854328Y-54064866D01*
X101917587Y-53955298D01*
X101950332Y-53833091D01*
X101950332Y-53706573D01*
X101917587Y-53584366D01*
X101854328Y-53474798D01*
X101764866Y-53385336D01*
X101655298Y-53322077D01*
X101533091Y-53289332D01*
X101533090Y-53289332D01*
X101525031Y-53288271D01*
X101525255Y-53286568D01*
X101467629Y-53269647D01*
X101421874Y-53216843D01*
X101412735Y-53174836D01*
X101411729Y-53174969D01*
X101410668Y-53166916D01*
X101410668Y-53166909D01*
X101377923Y-53044702D01*
X101314664Y-52935134D01*
X101225202Y-52845672D01*
X101115634Y-52782413D01*
X100993427Y-52749668D01*
X100866909Y-52749668D01*
X100744702Y-52782413D01*
X100744699Y-52782414D01*
X100635132Y-52845673D01*
X100545673Y-52935132D01*
X100482414Y-53044699D01*
X100482413Y-53044702D01*
X100449668Y-53166909D01*
X90406000Y-53166909D01*
X90406000Y-52687646D01*
X106988000Y-52687646D01*
X106988000Y-52800207D01*
X107017133Y-52908937D01*
X107045274Y-52957677D01*
X107073415Y-53006418D01*
X107153009Y-53086012D01*
X107250491Y-53142294D01*
X107359219Y-53171427D01*
X107359221Y-53171427D01*
X107471779Y-53171427D01*
X107471781Y-53171427D01*
X107580509Y-53142294D01*
X107677991Y-53086012D01*
X107757585Y-53006418D01*
X107813867Y-52908936D01*
X107843000Y-52800208D01*
X107843000Y-52687646D01*
X107813867Y-52578918D01*
X107757585Y-52481436D01*
X107677991Y-52401842D01*
X107629250Y-52373701D01*
X107580510Y-52345560D01*
X107509076Y-52326420D01*
X107471781Y-52316427D01*
X107359219Y-52316427D01*
X107250489Y-52345560D01*
X107153009Y-52401842D01*
X107153006Y-52401844D01*
X107073417Y-52481433D01*
X107073415Y-52481436D01*
X107017133Y-52578916D01*
X106988000Y-52687646D01*
X90406000Y-52687646D01*
X90406000Y-52007646D01*
X107978000Y-52007646D01*
X107978000Y-52120207D01*
X108007133Y-52228937D01*
X108035274Y-52277677D01*
X108063415Y-52326418D01*
X108143009Y-52406012D01*
X108240491Y-52462294D01*
X108349219Y-52491427D01*
X108349221Y-52491427D01*
X108461779Y-52491427D01*
X108461781Y-52491427D01*
X108570509Y-52462294D01*
X108667991Y-52406012D01*
X108747585Y-52326418D01*
X108803867Y-52228936D01*
X108833000Y-52120208D01*
X108833000Y-52007646D01*
X108803867Y-51898918D01*
X108747585Y-51801436D01*
X108667991Y-51721842D01*
X108619250Y-51693701D01*
X108570510Y-51665560D01*
X108516145Y-51650993D01*
X108461781Y-51636427D01*
X108349219Y-51636427D01*
X108240489Y-51665560D01*
X108143009Y-51721842D01*
X108143006Y-51721844D01*
X108063417Y-51801433D01*
X108063415Y-51801436D01*
X108007133Y-51898916D01*
X107978000Y-52007646D01*
X90406000Y-52007646D01*
X90406000Y-45547697D01*
X98455164Y-45547697D01*
X98487848Y-45712005D01*
X98487850Y-45712013D01*
X98551960Y-45866791D01*
X98551961Y-45866793D01*
X98645041Y-46006096D01*
X98645044Y-46006100D01*
X98763504Y-46124560D01*
X98763508Y-46124563D01*
X98902809Y-46217642D01*
X98902810Y-46217642D01*
X98902811Y-46217643D01*
X98902813Y-46217644D01*
X99005998Y-46260384D01*
X99057593Y-46281755D01*
X99097829Y-46289758D01*
X99221907Y-46314440D01*
X99221910Y-46314440D01*
X99389448Y-46314440D01*
X99472166Y-46297985D01*
X99553763Y-46281755D01*
X99708547Y-46217642D01*
X99847848Y-46124563D01*
X99966314Y-46006097D01*
X100059393Y-45866796D01*
X100123506Y-45712012D01*
X100156191Y-45547697D01*
X103554986Y-45547697D01*
X103587670Y-45712005D01*
X103587672Y-45712013D01*
X103651782Y-45866791D01*
X103651783Y-45866793D01*
X103744863Y-46006096D01*
X103744866Y-46006100D01*
X103863326Y-46124560D01*
X103863330Y-46124563D01*
X104002631Y-46217642D01*
X104002632Y-46217642D01*
X104002633Y-46217643D01*
X104002635Y-46217644D01*
X104105820Y-46260384D01*
X104157415Y-46281755D01*
X104197651Y-46289758D01*
X104321729Y-46314440D01*
X104321732Y-46314440D01*
X104489270Y-46314440D01*
X104571988Y-46297985D01*
X104653585Y-46281755D01*
X104808369Y-46217642D01*
X104947670Y-46124563D01*
X105066136Y-46006097D01*
X105159215Y-45866796D01*
X105223328Y-45712012D01*
X105256013Y-45547695D01*
X105256013Y-45380159D01*
X105256013Y-45380156D01*
X105256012Y-45380154D01*
X105224896Y-45223720D01*
X105224894Y-45223714D01*
X105223328Y-45215844D01*
X105223327Y-45215840D01*
X105219933Y-45207646D01*
X110178000Y-45207646D01*
X110178000Y-45320207D01*
X110207133Y-45428937D01*
X110235274Y-45477677D01*
X110263415Y-45526418D01*
X110343009Y-45606012D01*
X110440491Y-45662294D01*
X110549219Y-45691427D01*
X110549221Y-45691427D01*
X110661779Y-45691427D01*
X110661781Y-45691427D01*
X110770509Y-45662294D01*
X110867991Y-45606012D01*
X110947585Y-45526418D01*
X111003867Y-45428936D01*
X111033000Y-45320208D01*
X111033000Y-45207646D01*
X111003867Y-45098918D01*
X110947585Y-45001436D01*
X110867991Y-44921842D01*
X110819250Y-44893701D01*
X110770510Y-44865560D01*
X110716145Y-44850993D01*
X110661781Y-44836427D01*
X110549219Y-44836427D01*
X110440489Y-44865560D01*
X110343009Y-44921842D01*
X110343006Y-44921844D01*
X110263417Y-45001433D01*
X110263415Y-45001436D01*
X110207133Y-45098916D01*
X110178000Y-45207646D01*
X105219933Y-45207646D01*
X105159217Y-45061062D01*
X105159216Y-45061060D01*
X105066136Y-44921757D01*
X105066133Y-44921753D01*
X104947673Y-44803293D01*
X104947669Y-44803290D01*
X104808366Y-44710210D01*
X104808364Y-44710209D01*
X104653586Y-44646099D01*
X104653578Y-44646097D01*
X104489270Y-44613414D01*
X104489268Y-44613414D01*
X104321732Y-44613414D01*
X104321730Y-44613414D01*
X104157421Y-44646097D01*
X104157413Y-44646099D01*
X104002635Y-44710209D01*
X104002633Y-44710210D01*
X103863330Y-44803290D01*
X103863326Y-44803293D01*
X103744866Y-44921753D01*
X103744863Y-44921757D01*
X103651783Y-45061060D01*
X103651782Y-45061062D01*
X103587672Y-45215840D01*
X103587670Y-45215848D01*
X103554987Y-45380156D01*
X103554987Y-45380159D01*
X103554987Y-45547695D01*
X103554987Y-45547697D01*
X103554986Y-45547697D01*
X100156191Y-45547697D01*
X100156191Y-45547695D01*
X100156191Y-45380159D01*
X100156191Y-45380156D01*
X100123507Y-45215848D01*
X100123506Y-45215844D01*
X100123506Y-45215842D01*
X100059393Y-45061058D01*
X99966314Y-44921757D01*
X99966311Y-44921753D01*
X99847851Y-44803293D01*
X99847847Y-44803290D01*
X99708544Y-44710210D01*
X99708542Y-44710209D01*
X99553764Y-44646099D01*
X99553756Y-44646097D01*
X99389448Y-44613414D01*
X99389446Y-44613414D01*
X99221910Y-44613414D01*
X99221908Y-44613414D01*
X99057599Y-44646097D01*
X99057591Y-44646099D01*
X98902813Y-44710209D01*
X98902811Y-44710210D01*
X98763508Y-44803290D01*
X98763504Y-44803293D01*
X98645044Y-44921753D01*
X98645041Y-44921757D01*
X98551961Y-45061060D01*
X98551960Y-45061062D01*
X98487850Y-45215840D01*
X98487848Y-45215848D01*
X98455165Y-45380156D01*
X98455165Y-45380159D01*
X98455165Y-45547695D01*
X98455165Y-45547697D01*
X98455164Y-45547697D01*
X90406000Y-45547697D01*
X90406000Y-39966633D01*
X90406118Y-39961224D01*
X90408877Y-39898035D01*
X90422887Y-39577151D01*
X90423825Y-39566423D01*
X90473651Y-39187959D01*
X90475524Y-39177329D01*
X90487459Y-39123495D01*
X111855000Y-39123495D01*
X111855000Y-39404358D01*
X111886442Y-39683421D01*
X111886445Y-39683439D01*
X111948939Y-39957244D01*
X111948943Y-39957256D01*
X112041700Y-40222338D01*
X112163553Y-40475369D01*
X112163555Y-40475372D01*
X112312977Y-40713175D01*
X112488084Y-40932752D01*
X112686675Y-41131343D01*
X112906252Y-41306450D01*
X113144055Y-41455872D01*
X113397092Y-41577728D01*
X113596180Y-41647392D01*
X113662170Y-41670483D01*
X113662182Y-41670487D01*
X113935991Y-41732982D01*
X113935997Y-41732982D01*
X113936005Y-41732984D01*
X114122047Y-41753945D01*
X114215069Y-41764426D01*
X114215072Y-41764427D01*
X114215075Y-41764427D01*
X114495928Y-41764427D01*
X114495929Y-41764426D01*
X114638555Y-41748356D01*
X114774994Y-41732984D01*
X114774999Y-41732983D01*
X114775009Y-41732982D01*
X115048818Y-41670487D01*
X115313908Y-41577728D01*
X115566945Y-41455872D01*
X115804748Y-41306450D01*
X116024325Y-41131343D01*
X116222916Y-40932752D01*
X116398023Y-40713175D01*
X116547445Y-40475372D01*
X116669301Y-40222335D01*
X116762060Y-39957245D01*
X116824555Y-39683436D01*
X116856000Y-39404352D01*
X116856000Y-39123502D01*
X116824555Y-38844418D01*
X116762060Y-38570609D01*
X116669301Y-38305519D01*
X116547445Y-38052482D01*
X116398023Y-37814679D01*
X116222916Y-37595102D01*
X116024325Y-37396511D01*
X116002142Y-37378821D01*
X115968560Y-37352040D01*
X115804748Y-37221404D01*
X115566945Y-37071982D01*
X115566942Y-37071980D01*
X115313911Y-36950127D01*
X115048829Y-36857370D01*
X115048817Y-36857366D01*
X114775012Y-36794872D01*
X114774994Y-36794869D01*
X114495931Y-36763427D01*
X114495925Y-36763427D01*
X114215075Y-36763427D01*
X114215068Y-36763427D01*
X113936005Y-36794869D01*
X113935987Y-36794872D01*
X113662182Y-36857366D01*
X113662170Y-36857370D01*
X113397088Y-36950127D01*
X113144057Y-37071980D01*
X112906253Y-37221403D01*
X112686675Y-37396510D01*
X112488083Y-37595102D01*
X112312976Y-37814680D01*
X112163553Y-38052484D01*
X112041700Y-38305515D01*
X111948943Y-38570597D01*
X111948939Y-38570609D01*
X111886445Y-38844414D01*
X111886442Y-38844432D01*
X111855000Y-39123495D01*
X90487459Y-39123495D01*
X90558148Y-38804641D01*
X90560946Y-38794203D01*
X90593772Y-38690093D01*
X90675730Y-38430154D01*
X90679417Y-38420022D01*
X90825503Y-38067339D01*
X90830061Y-38057565D01*
X91006322Y-37718972D01*
X91011717Y-37709627D01*
X91216825Y-37387671D01*
X91223015Y-37378832D01*
X91455396Y-37075987D01*
X91462334Y-37067718D01*
X91720226Y-36786279D01*
X91727852Y-36778653D01*
X92009291Y-36520761D01*
X92017560Y-36513823D01*
X92320405Y-36281442D01*
X92329244Y-36275252D01*
X92651200Y-36070144D01*
X92660545Y-36064749D01*
X92999138Y-35888488D01*
X93008912Y-35883930D01*
X93361595Y-35737844D01*
X93371727Y-35734157D01*
X93735785Y-35619370D01*
X93746214Y-35616575D01*
X94118902Y-35533951D01*
X94129532Y-35532078D01*
X94507996Y-35482252D01*
X94518724Y-35481314D01*
X94902797Y-35464544D01*
X94908206Y-35464427D01*
X94971392Y-35464427D01*
X113889608Y-35464427D01*
X113952794Y-35464427D01*
X113958202Y-35464544D01*
G37*
%TD.AperFunction*%
%TD*%
M02*
