M48
; DRILL file KiCad 10.0.4 date 2026-08-05T09:30:39
; FORMAT={-:-/ absolute / metric / decimal}
; #@! TF.CreationDate,2026-08-05T09:30:39-04:00
; #@! TF.GenerationSoftware,Kicad,Pcbnew,10.0.4
; #@! TF.FileFunction,Plated,1,4,PTH
FMAT,2
METRIC
; #@! TA.AperFunction,Plated,PTH,ViaDrill
T1C0.300
; #@! TA.AperFunction,Plated,PTH,ComponentDrill
T2C0.300
; #@! TA.AperFunction,Plated,PTH,ViaDrill
T3C0.400
; #@! TA.AperFunction,Plated,PTH,ComponentDrill
T4C0.550
; #@! TA.AperFunction,Plated,PTH,ComponentDrill
T5C0.600
; #@! TA.AperFunction,Plated,PTH,ComponentDrill
T6C1.000
%
G90
G05
T1
X92.605Y-39.264
X92.605Y-42.264
X92.605Y-45.264
X92.605Y-48.264
X92.605Y-72.264
X92.605Y-75.264
X92.605Y-78.264
X92.605Y-81.264
X92.605Y-84.264
X94.206Y-64.664
X95.505Y-87.164
X95.605Y-36.264
X95.605Y-39.264
X95.605Y-42.264
X95.605Y-51.264
X95.605Y-69.264
X95.605Y-72.264
X95.605Y-75.264
X95.605Y-78.264
X95.787Y-66.054
X96.9Y-56.7
X96.905Y-59.664
X97.206Y-64.464
X98.605Y-36.264
X98.605Y-39.264
X98.605Y-42.264
X99.154Y-62.064
X99.5Y-56.7
X99.5Y-59.2
X99.669Y-74.531
X100.105Y-52.564
X100.209Y-73.991
X100.85Y-72.85
X100.93Y-53.23
X101.3Y-60.9
X101.47Y-53.77
X101.605Y-36.264
X101.605Y-39.264
X101.605Y-42.264
X101.605Y-45.264
X101.63Y-74.03
X101.844Y-86.099
X102.118Y-79.1
X102.17Y-74.57
X102.383Y-86.638
X102.882Y-79.1
X103.235Y-74.735
X103.605Y-52.664
X103.9Y-85.7
X104.0Y-86.75
X104.605Y-36.264
X104.605Y-39.264
X104.605Y-42.264
X105.206Y-65.264
X106.028Y-61.887
X106.105Y-61.064
X107.415Y-52.744
X107.605Y-36.264
X107.605Y-39.264
X107.605Y-42.264
X107.605Y-75.264
X107.605Y-78.264
X107.718Y-81.5
X108.105Y-59.464
X108.405Y-52.064
X108.45Y-53.85
X108.482Y-81.5
X109.005Y-64.864
X109.4Y-83.618
X109.4Y-84.382
X110.265Y-73.864
X110.265Y-77.664
X110.605Y-36.264
X110.605Y-39.264
X110.605Y-42.264
X110.605Y-45.264
X110.605Y-69.264
X110.605Y-87.264
X111.105Y-60.264
X113.605Y-36.264
X113.605Y-42.264
X113.605Y-45.264
X113.605Y-48.264
X113.605Y-51.264
X113.605Y-54.264
X113.605Y-57.264
X113.605Y-60.264
X113.605Y-78.264
X113.605Y-81.264
X113.605Y-87.264
X116.605Y-42.264
X116.605Y-45.264
X116.605Y-48.264
X116.605Y-60.264
X116.605Y-66.264
X116.605Y-69.264
X116.605Y-72.264
X116.605Y-75.264
T2
X100.405Y-65.314
X100.405Y-66.014
X101.605Y-65.314
X101.605Y-66.014
X102.805Y-65.314
X102.805Y-66.014
T3
X91.706Y-52.964
X91.706Y-57.964
X92.706Y-69.164
X93.605Y-51.664
X94.105Y-68.364
X97.005Y-67.664
X97.105Y-63.464
X98.905Y-79.764
X99.305Y-85.164
X100.778Y-79.089
X101.4Y-55.1
X103.278Y-75.7
X105.31Y-79.9
X105.405Y-84.964
X106.206Y-45.464
X106.206Y-53.664
X107.505Y-64.564
X108.805Y-68.064
X110.105Y-70.537
X116.005Y-52.064
X116.005Y-57.064
X117.105Y-82.064
T4
X98.935Y-82.959
X105.736Y-82.959
T6
X93.305Y-60.164
X111.706Y-80.264
X111.706Y-84.264
X112.005Y-62.264
X112.465Y-68.044
X112.465Y-70.584
X112.465Y-73.124
X112.465Y-75.664
X115.005Y-68.044
X115.005Y-70.584
X115.005Y-73.124
X115.005Y-75.664
X115.305Y-84.264
X115.405Y-80.264
X115.706Y-62.264
T5
G00X98.015Y-82.089
M15
G01X98.015Y-81.129
M16
G05
G00X98.015Y-85.509
M15
G01X98.015Y-86.809
M16
G05
G00X98.615Y-82.109
M15
G01X98.015Y-82.109
M16
G05
G00X106.655Y-82.109
M15
G01X106.055Y-82.109
M16
G05
G00X106.655Y-82.109
M15
G01X106.655Y-81.109
M16
G05
G00X106.655Y-85.509
M15
G01X106.655Y-86.809
M16
G05
M30
