%TF.GenerationSoftware,KiCad,Pcbnew,10.0.5*%
%TF.CreationDate,2026-08-06T17:17:46-04:00*%
%TF.ProjectId,HD3SS3220-breakout,48443353-5333-4323-9230-2d627265616b,R1*%
%TF.SameCoordinates,Original*%
%TF.FileFunction,Legend,Top*%
%TF.FilePolarity,Positive*%
%FSLAX46Y46*%
G04 Gerber Fmt 4.6, Leading zero omitted, Abs format (unit mm)*
G04 Created by KiCad (PCBNEW 10.0.5) date 2026-08-06 17:17:46*
%MOMM*%
%LPD*%
G01*
G04 APERTURE LIST*
%ADD10C,0.150000*%
%ADD11C,0.200000*%
%ADD12C,0.093750*%
%ADD13C,0.080000*%
%ADD14C,0.120000*%
%ADD15C,0.250000*%
%ADD16C,0.060000*%
%ADD17C,0.000000*%
%ADD18C,0.254001*%
%ADD19C,0.059995*%
G04 APERTURE END LIST*
D10*
X91548456Y-44586671D02*
X92155599Y-44586671D01*
X92155599Y-44586671D02*
X92227027Y-44550957D01*
X92227027Y-44550957D02*
X92262742Y-44515243D01*
X92262742Y-44515243D02*
X92298456Y-44443814D01*
X92298456Y-44443814D02*
X92298456Y-44300957D01*
X92298456Y-44300957D02*
X92262742Y-44229528D01*
X92262742Y-44229528D02*
X92227027Y-44193814D01*
X92227027Y-44193814D02*
X92155599Y-44158100D01*
X92155599Y-44158100D02*
X91548456Y-44158100D01*
X92262742Y-43836671D02*
X92298456Y-43729529D01*
X92298456Y-43729529D02*
X92298456Y-43550957D01*
X92298456Y-43550957D02*
X92262742Y-43479529D01*
X92262742Y-43479529D02*
X92227027Y-43443814D01*
X92227027Y-43443814D02*
X92155599Y-43408100D01*
X92155599Y-43408100D02*
X92084170Y-43408100D01*
X92084170Y-43408100D02*
X92012742Y-43443814D01*
X92012742Y-43443814D02*
X91977027Y-43479529D01*
X91977027Y-43479529D02*
X91941313Y-43550957D01*
X91941313Y-43550957D02*
X91905599Y-43693814D01*
X91905599Y-43693814D02*
X91869884Y-43765243D01*
X91869884Y-43765243D02*
X91834170Y-43800957D01*
X91834170Y-43800957D02*
X91762742Y-43836671D01*
X91762742Y-43836671D02*
X91691313Y-43836671D01*
X91691313Y-43836671D02*
X91619884Y-43800957D01*
X91619884Y-43800957D02*
X91584170Y-43765243D01*
X91584170Y-43765243D02*
X91548456Y-43693814D01*
X91548456Y-43693814D02*
X91548456Y-43515243D01*
X91548456Y-43515243D02*
X91584170Y-43408100D01*
X91905599Y-42836671D02*
X91941313Y-42729528D01*
X91941313Y-42729528D02*
X91977027Y-42693814D01*
X91977027Y-42693814D02*
X92048456Y-42658100D01*
X92048456Y-42658100D02*
X92155599Y-42658100D01*
X92155599Y-42658100D02*
X92227027Y-42693814D01*
X92227027Y-42693814D02*
X92262742Y-42729528D01*
X92262742Y-42729528D02*
X92298456Y-42800957D01*
X92298456Y-42800957D02*
X92298456Y-43086671D01*
X92298456Y-43086671D02*
X91548456Y-43086671D01*
X91548456Y-43086671D02*
X91548456Y-42836671D01*
X91548456Y-42836671D02*
X91584170Y-42765243D01*
X91584170Y-42765243D02*
X91619884Y-42729528D01*
X91619884Y-42729528D02*
X91691313Y-42693814D01*
X91691313Y-42693814D02*
X91762742Y-42693814D01*
X91762742Y-42693814D02*
X91834170Y-42729528D01*
X91834170Y-42729528D02*
X91869884Y-42765243D01*
X91869884Y-42765243D02*
X91905599Y-42836671D01*
X91905599Y-42836671D02*
X91905599Y-43086671D01*
X92012742Y-42336671D02*
X92012742Y-41765243D01*
X91548456Y-41479529D02*
X91548456Y-41015243D01*
X91548456Y-41015243D02*
X91834170Y-41265243D01*
X91834170Y-41265243D02*
X91834170Y-41158100D01*
X91834170Y-41158100D02*
X91869884Y-41086672D01*
X91869884Y-41086672D02*
X91905599Y-41050957D01*
X91905599Y-41050957D02*
X91977027Y-41015243D01*
X91977027Y-41015243D02*
X92155599Y-41015243D01*
X92155599Y-41015243D02*
X92227027Y-41050957D01*
X92227027Y-41050957D02*
X92262742Y-41086672D01*
X92262742Y-41086672D02*
X92298456Y-41158100D01*
X92298456Y-41158100D02*
X92298456Y-41372386D01*
X92298456Y-41372386D02*
X92262742Y-41443814D01*
X92262742Y-41443814D02*
X92227027Y-41479529D01*
X92227027Y-40693814D02*
X92262742Y-40658100D01*
X92262742Y-40658100D02*
X92298456Y-40693814D01*
X92298456Y-40693814D02*
X92262742Y-40729528D01*
X92262742Y-40729528D02*
X92227027Y-40693814D01*
X92227027Y-40693814D02*
X92298456Y-40693814D01*
X91548456Y-40193814D02*
X91548456Y-40122385D01*
X91548456Y-40122385D02*
X91584170Y-40050957D01*
X91584170Y-40050957D02*
X91619884Y-40015243D01*
X91619884Y-40015243D02*
X91691313Y-39979528D01*
X91691313Y-39979528D02*
X91834170Y-39943814D01*
X91834170Y-39943814D02*
X92012742Y-39943814D01*
X92012742Y-39943814D02*
X92155599Y-39979528D01*
X92155599Y-39979528D02*
X92227027Y-40015243D01*
X92227027Y-40015243D02*
X92262742Y-40050957D01*
X92262742Y-40050957D02*
X92298456Y-40122385D01*
X92298456Y-40122385D02*
X92298456Y-40193814D01*
X92298456Y-40193814D02*
X92262742Y-40265243D01*
X92262742Y-40265243D02*
X92227027Y-40300957D01*
X92227027Y-40300957D02*
X92155599Y-40336671D01*
X92155599Y-40336671D02*
X92012742Y-40372385D01*
X92012742Y-40372385D02*
X91834170Y-40372385D01*
X91834170Y-40372385D02*
X91691313Y-40336671D01*
X91691313Y-40336671D02*
X91619884Y-40300957D01*
X91619884Y-40300957D02*
X91584170Y-40265243D01*
X91584170Y-40265243D02*
X91548456Y-40193814D01*
X93113057Y-44336671D02*
X93148771Y-44229528D01*
X93148771Y-44229528D02*
X93184485Y-44193814D01*
X93184485Y-44193814D02*
X93255914Y-44158100D01*
X93255914Y-44158100D02*
X93363057Y-44158100D01*
X93363057Y-44158100D02*
X93434485Y-44193814D01*
X93434485Y-44193814D02*
X93470200Y-44229528D01*
X93470200Y-44229528D02*
X93505914Y-44300957D01*
X93505914Y-44300957D02*
X93505914Y-44586671D01*
X93505914Y-44586671D02*
X92755914Y-44586671D01*
X92755914Y-44586671D02*
X92755914Y-44336671D01*
X92755914Y-44336671D02*
X92791628Y-44265243D01*
X92791628Y-44265243D02*
X92827342Y-44229528D01*
X92827342Y-44229528D02*
X92898771Y-44193814D01*
X92898771Y-44193814D02*
X92970200Y-44193814D01*
X92970200Y-44193814D02*
X93041628Y-44229528D01*
X93041628Y-44229528D02*
X93077342Y-44265243D01*
X93077342Y-44265243D02*
X93113057Y-44336671D01*
X93113057Y-44336671D02*
X93113057Y-44586671D01*
X93505914Y-43836671D02*
X93005914Y-43836671D01*
X93148771Y-43836671D02*
X93077342Y-43800957D01*
X93077342Y-43800957D02*
X93041628Y-43765243D01*
X93041628Y-43765243D02*
X93005914Y-43693814D01*
X93005914Y-43693814D02*
X93005914Y-43622385D01*
X93505914Y-43372385D02*
X93005914Y-43372385D01*
X92755914Y-43372385D02*
X92791628Y-43408099D01*
X92791628Y-43408099D02*
X92827342Y-43372385D01*
X92827342Y-43372385D02*
X92791628Y-43336671D01*
X92791628Y-43336671D02*
X92755914Y-43372385D01*
X92755914Y-43372385D02*
X92827342Y-43372385D01*
X93505914Y-42693814D02*
X92755914Y-42693814D01*
X93470200Y-42693814D02*
X93505914Y-42765242D01*
X93505914Y-42765242D02*
X93505914Y-42908099D01*
X93505914Y-42908099D02*
X93470200Y-42979528D01*
X93470200Y-42979528D02*
X93434485Y-43015242D01*
X93434485Y-43015242D02*
X93363057Y-43050956D01*
X93363057Y-43050956D02*
X93148771Y-43050956D01*
X93148771Y-43050956D02*
X93077342Y-43015242D01*
X93077342Y-43015242D02*
X93041628Y-42979528D01*
X93041628Y-42979528D02*
X93005914Y-42908099D01*
X93005914Y-42908099D02*
X93005914Y-42765242D01*
X93005914Y-42765242D02*
X93041628Y-42693814D01*
X93005914Y-42015243D02*
X93613057Y-42015243D01*
X93613057Y-42015243D02*
X93684485Y-42050957D01*
X93684485Y-42050957D02*
X93720200Y-42086671D01*
X93720200Y-42086671D02*
X93755914Y-42158100D01*
X93755914Y-42158100D02*
X93755914Y-42265243D01*
X93755914Y-42265243D02*
X93720200Y-42336671D01*
X93470200Y-42015243D02*
X93505914Y-42086671D01*
X93505914Y-42086671D02*
X93505914Y-42229528D01*
X93505914Y-42229528D02*
X93470200Y-42300957D01*
X93470200Y-42300957D02*
X93434485Y-42336671D01*
X93434485Y-42336671D02*
X93363057Y-42372385D01*
X93363057Y-42372385D02*
X93148771Y-42372385D01*
X93148771Y-42372385D02*
X93077342Y-42336671D01*
X93077342Y-42336671D02*
X93041628Y-42300957D01*
X93041628Y-42300957D02*
X93005914Y-42229528D01*
X93005914Y-42229528D02*
X93005914Y-42086671D01*
X93005914Y-42086671D02*
X93041628Y-42015243D01*
X93505914Y-41658100D02*
X93005914Y-41658100D01*
X92755914Y-41658100D02*
X92791628Y-41693814D01*
X92791628Y-41693814D02*
X92827342Y-41658100D01*
X92827342Y-41658100D02*
X92791628Y-41622386D01*
X92791628Y-41622386D02*
X92755914Y-41658100D01*
X92755914Y-41658100D02*
X92827342Y-41658100D01*
X93005914Y-41300957D02*
X93505914Y-41300957D01*
X93077342Y-41300957D02*
X93041628Y-41265243D01*
X93041628Y-41265243D02*
X93005914Y-41193814D01*
X93005914Y-41193814D02*
X93005914Y-41086671D01*
X93005914Y-41086671D02*
X93041628Y-41015243D01*
X93041628Y-41015243D02*
X93113057Y-40979529D01*
X93113057Y-40979529D02*
X93505914Y-40979529D01*
X93005914Y-40300958D02*
X93613057Y-40300958D01*
X93613057Y-40300958D02*
X93684485Y-40336672D01*
X93684485Y-40336672D02*
X93720200Y-40372386D01*
X93720200Y-40372386D02*
X93755914Y-40443815D01*
X93755914Y-40443815D02*
X93755914Y-40550958D01*
X93755914Y-40550958D02*
X93720200Y-40622386D01*
X93470200Y-40300958D02*
X93505914Y-40372386D01*
X93505914Y-40372386D02*
X93505914Y-40515243D01*
X93505914Y-40515243D02*
X93470200Y-40586672D01*
X93470200Y-40586672D02*
X93434485Y-40622386D01*
X93434485Y-40622386D02*
X93363057Y-40658100D01*
X93363057Y-40658100D02*
X93148771Y-40658100D01*
X93148771Y-40658100D02*
X93077342Y-40622386D01*
X93077342Y-40622386D02*
X93041628Y-40586672D01*
X93041628Y-40586672D02*
X93005914Y-40515243D01*
X93005914Y-40515243D02*
X93005914Y-40372386D01*
X93005914Y-40372386D02*
X93041628Y-40300958D01*
X93113057Y-39122386D02*
X93148771Y-39015243D01*
X93148771Y-39015243D02*
X93184485Y-38979529D01*
X93184485Y-38979529D02*
X93255914Y-38943815D01*
X93255914Y-38943815D02*
X93363057Y-38943815D01*
X93363057Y-38943815D02*
X93434485Y-38979529D01*
X93434485Y-38979529D02*
X93470200Y-39015243D01*
X93470200Y-39015243D02*
X93505914Y-39086672D01*
X93505914Y-39086672D02*
X93505914Y-39372386D01*
X93505914Y-39372386D02*
X92755914Y-39372386D01*
X92755914Y-39372386D02*
X92755914Y-39122386D01*
X92755914Y-39122386D02*
X92791628Y-39050958D01*
X92791628Y-39050958D02*
X92827342Y-39015243D01*
X92827342Y-39015243D02*
X92898771Y-38979529D01*
X92898771Y-38979529D02*
X92970200Y-38979529D01*
X92970200Y-38979529D02*
X93041628Y-39015243D01*
X93041628Y-39015243D02*
X93077342Y-39050958D01*
X93077342Y-39050958D02*
X93113057Y-39122386D01*
X93113057Y-39122386D02*
X93113057Y-39372386D01*
X93505914Y-38515243D02*
X93470200Y-38586672D01*
X93470200Y-38586672D02*
X93434485Y-38622386D01*
X93434485Y-38622386D02*
X93363057Y-38658100D01*
X93363057Y-38658100D02*
X93148771Y-38658100D01*
X93148771Y-38658100D02*
X93077342Y-38622386D01*
X93077342Y-38622386D02*
X93041628Y-38586672D01*
X93041628Y-38586672D02*
X93005914Y-38515243D01*
X93005914Y-38515243D02*
X93005914Y-38408100D01*
X93005914Y-38408100D02*
X93041628Y-38336672D01*
X93041628Y-38336672D02*
X93077342Y-38300958D01*
X93077342Y-38300958D02*
X93148771Y-38265243D01*
X93148771Y-38265243D02*
X93363057Y-38265243D01*
X93363057Y-38265243D02*
X93434485Y-38300958D01*
X93434485Y-38300958D02*
X93470200Y-38336672D01*
X93470200Y-38336672D02*
X93505914Y-38408100D01*
X93505914Y-38408100D02*
X93505914Y-38515243D01*
X93505914Y-37622387D02*
X93113057Y-37622387D01*
X93113057Y-37622387D02*
X93041628Y-37658101D01*
X93041628Y-37658101D02*
X93005914Y-37729529D01*
X93005914Y-37729529D02*
X93005914Y-37872387D01*
X93005914Y-37872387D02*
X93041628Y-37943815D01*
X93470200Y-37622387D02*
X93505914Y-37693815D01*
X93505914Y-37693815D02*
X93505914Y-37872387D01*
X93505914Y-37872387D02*
X93470200Y-37943815D01*
X93470200Y-37943815D02*
X93398771Y-37979529D01*
X93398771Y-37979529D02*
X93327342Y-37979529D01*
X93327342Y-37979529D02*
X93255914Y-37943815D01*
X93255914Y-37943815D02*
X93220200Y-37872387D01*
X93220200Y-37872387D02*
X93220200Y-37693815D01*
X93220200Y-37693815D02*
X93184485Y-37622387D01*
X93505914Y-37265244D02*
X93005914Y-37265244D01*
X93148771Y-37265244D02*
X93077342Y-37229530D01*
X93077342Y-37229530D02*
X93041628Y-37193816D01*
X93041628Y-37193816D02*
X93005914Y-37122387D01*
X93005914Y-37122387D02*
X93005914Y-37050958D01*
X93505914Y-36479530D02*
X92755914Y-36479530D01*
X93470200Y-36479530D02*
X93505914Y-36550958D01*
X93505914Y-36550958D02*
X93505914Y-36693815D01*
X93505914Y-36693815D02*
X93470200Y-36765244D01*
X93470200Y-36765244D02*
X93434485Y-36800958D01*
X93434485Y-36800958D02*
X93363057Y-36836672D01*
X93363057Y-36836672D02*
X93148771Y-36836672D01*
X93148771Y-36836672D02*
X93077342Y-36800958D01*
X93077342Y-36800958D02*
X93041628Y-36765244D01*
X93041628Y-36765244D02*
X93005914Y-36693815D01*
X93005914Y-36693815D02*
X93005914Y-36550958D01*
X93005914Y-36550958D02*
X93041628Y-36479530D01*
X91940998Y-82186671D02*
X92548141Y-82186671D01*
X92548141Y-82186671D02*
X92619569Y-82150957D01*
X92619569Y-82150957D02*
X92655284Y-82115243D01*
X92655284Y-82115243D02*
X92690998Y-82043814D01*
X92690998Y-82043814D02*
X92690998Y-81900957D01*
X92690998Y-81900957D02*
X92655284Y-81829528D01*
X92655284Y-81829528D02*
X92619569Y-81793814D01*
X92619569Y-81793814D02*
X92548141Y-81758100D01*
X92548141Y-81758100D02*
X91940998Y-81758100D01*
X91940998Y-81472386D02*
X92690998Y-81293814D01*
X92690998Y-81293814D02*
X92155284Y-81150957D01*
X92155284Y-81150957D02*
X92690998Y-81008100D01*
X92690998Y-81008100D02*
X91940998Y-80829529D01*
X92690998Y-80222386D02*
X92298141Y-80222386D01*
X92298141Y-80222386D02*
X92226712Y-80258100D01*
X92226712Y-80258100D02*
X92190998Y-80329528D01*
X92190998Y-80329528D02*
X92190998Y-80472386D01*
X92190998Y-80472386D02*
X92226712Y-80543814D01*
X92655284Y-80222386D02*
X92690998Y-80293814D01*
X92690998Y-80293814D02*
X92690998Y-80472386D01*
X92690998Y-80472386D02*
X92655284Y-80543814D01*
X92655284Y-80543814D02*
X92583855Y-80579528D01*
X92583855Y-80579528D02*
X92512426Y-80579528D01*
X92512426Y-80579528D02*
X92440998Y-80543814D01*
X92440998Y-80543814D02*
X92405284Y-80472386D01*
X92405284Y-80472386D02*
X92405284Y-80293814D01*
X92405284Y-80293814D02*
X92369569Y-80222386D01*
X92190998Y-79972386D02*
X92190998Y-79686672D01*
X91940998Y-79865243D02*
X92583855Y-79865243D01*
X92583855Y-79865243D02*
X92655284Y-79829529D01*
X92655284Y-79829529D02*
X92690998Y-79758100D01*
X92690998Y-79758100D02*
X92690998Y-79686672D01*
X92655284Y-79150958D02*
X92690998Y-79222386D01*
X92690998Y-79222386D02*
X92690998Y-79365244D01*
X92690998Y-79365244D02*
X92655284Y-79436672D01*
X92655284Y-79436672D02*
X92583855Y-79472386D01*
X92583855Y-79472386D02*
X92298141Y-79472386D01*
X92298141Y-79472386D02*
X92226712Y-79436672D01*
X92226712Y-79436672D02*
X92190998Y-79365244D01*
X92190998Y-79365244D02*
X92190998Y-79222386D01*
X92190998Y-79222386D02*
X92226712Y-79150958D01*
X92226712Y-79150958D02*
X92298141Y-79115244D01*
X92298141Y-79115244D02*
X92369569Y-79115244D01*
X92369569Y-79115244D02*
X92440998Y-79472386D01*
X92690998Y-78793815D02*
X92190998Y-78793815D01*
X92333855Y-78793815D02*
X92262426Y-78758101D01*
X92262426Y-78758101D02*
X92226712Y-78722387D01*
X92226712Y-78722387D02*
X92190998Y-78650958D01*
X92190998Y-78650958D02*
X92190998Y-78579529D01*
X92690998Y-78222386D02*
X92655284Y-78293815D01*
X92655284Y-78293815D02*
X92583855Y-78329529D01*
X92583855Y-78329529D02*
X91940998Y-78329529D01*
X92690998Y-77829529D02*
X92655284Y-77900958D01*
X92655284Y-77900958D02*
X92619569Y-77936672D01*
X92619569Y-77936672D02*
X92548141Y-77972386D01*
X92548141Y-77972386D02*
X92333855Y-77972386D01*
X92333855Y-77972386D02*
X92262426Y-77936672D01*
X92262426Y-77936672D02*
X92226712Y-77900958D01*
X92226712Y-77900958D02*
X92190998Y-77829529D01*
X92190998Y-77829529D02*
X92190998Y-77722386D01*
X92190998Y-77722386D02*
X92226712Y-77650958D01*
X92226712Y-77650958D02*
X92262426Y-77615244D01*
X92262426Y-77615244D02*
X92333855Y-77579529D01*
X92333855Y-77579529D02*
X92548141Y-77579529D01*
X92548141Y-77579529D02*
X92619569Y-77615244D01*
X92619569Y-77615244D02*
X92655284Y-77650958D01*
X92655284Y-77650958D02*
X92690998Y-77722386D01*
X92690998Y-77722386D02*
X92690998Y-77829529D01*
X92690998Y-77150958D02*
X92655284Y-77222387D01*
X92655284Y-77222387D02*
X92619569Y-77258101D01*
X92619569Y-77258101D02*
X92548141Y-77293815D01*
X92548141Y-77293815D02*
X92333855Y-77293815D01*
X92333855Y-77293815D02*
X92262426Y-77258101D01*
X92262426Y-77258101D02*
X92226712Y-77222387D01*
X92226712Y-77222387D02*
X92190998Y-77150958D01*
X92190998Y-77150958D02*
X92190998Y-77043815D01*
X92190998Y-77043815D02*
X92226712Y-76972387D01*
X92226712Y-76972387D02*
X92262426Y-76936673D01*
X92262426Y-76936673D02*
X92333855Y-76900958D01*
X92333855Y-76900958D02*
X92548141Y-76900958D01*
X92548141Y-76900958D02*
X92619569Y-76936673D01*
X92619569Y-76936673D02*
X92655284Y-76972387D01*
X92655284Y-76972387D02*
X92690998Y-77043815D01*
X92690998Y-77043815D02*
X92690998Y-77150958D01*
X93898456Y-81758100D02*
X93541313Y-82008100D01*
X93898456Y-82186671D02*
X93148456Y-82186671D01*
X93148456Y-82186671D02*
X93148456Y-81900957D01*
X93148456Y-81900957D02*
X93184170Y-81829528D01*
X93184170Y-81829528D02*
X93219884Y-81793814D01*
X93219884Y-81793814D02*
X93291313Y-81758100D01*
X93291313Y-81758100D02*
X93398456Y-81758100D01*
X93398456Y-81758100D02*
X93469884Y-81793814D01*
X93469884Y-81793814D02*
X93505599Y-81829528D01*
X93505599Y-81829528D02*
X93541313Y-81900957D01*
X93541313Y-81900957D02*
X93541313Y-82186671D01*
X93862742Y-81150957D02*
X93898456Y-81222385D01*
X93898456Y-81222385D02*
X93898456Y-81365243D01*
X93898456Y-81365243D02*
X93862742Y-81436671D01*
X93862742Y-81436671D02*
X93791313Y-81472385D01*
X93791313Y-81472385D02*
X93505599Y-81472385D01*
X93505599Y-81472385D02*
X93434170Y-81436671D01*
X93434170Y-81436671D02*
X93398456Y-81365243D01*
X93398456Y-81365243D02*
X93398456Y-81222385D01*
X93398456Y-81222385D02*
X93434170Y-81150957D01*
X93434170Y-81150957D02*
X93505599Y-81115243D01*
X93505599Y-81115243D02*
X93577027Y-81115243D01*
X93577027Y-81115243D02*
X93648456Y-81472385D01*
X93898456Y-80472386D02*
X93505599Y-80472386D01*
X93505599Y-80472386D02*
X93434170Y-80508100D01*
X93434170Y-80508100D02*
X93398456Y-80579528D01*
X93398456Y-80579528D02*
X93398456Y-80722386D01*
X93398456Y-80722386D02*
X93434170Y-80793814D01*
X93862742Y-80472386D02*
X93898456Y-80543814D01*
X93898456Y-80543814D02*
X93898456Y-80722386D01*
X93898456Y-80722386D02*
X93862742Y-80793814D01*
X93862742Y-80793814D02*
X93791313Y-80829528D01*
X93791313Y-80829528D02*
X93719884Y-80829528D01*
X93719884Y-80829528D02*
X93648456Y-80793814D01*
X93648456Y-80793814D02*
X93612742Y-80722386D01*
X93612742Y-80722386D02*
X93612742Y-80543814D01*
X93612742Y-80543814D02*
X93577027Y-80472386D01*
X93898456Y-80008100D02*
X93862742Y-80079529D01*
X93862742Y-80079529D02*
X93791313Y-80115243D01*
X93791313Y-80115243D02*
X93148456Y-80115243D01*
X93898456Y-79722386D02*
X93398456Y-79722386D01*
X93148456Y-79722386D02*
X93184170Y-79758100D01*
X93184170Y-79758100D02*
X93219884Y-79722386D01*
X93219884Y-79722386D02*
X93184170Y-79686672D01*
X93184170Y-79686672D02*
X93148456Y-79722386D01*
X93148456Y-79722386D02*
X93219884Y-79722386D01*
X93398456Y-79472386D02*
X93398456Y-79186672D01*
X93148456Y-79365243D02*
X93791313Y-79365243D01*
X93791313Y-79365243D02*
X93862742Y-79329529D01*
X93862742Y-79329529D02*
X93898456Y-79258100D01*
X93898456Y-79258100D02*
X93898456Y-79186672D01*
X93398456Y-79008101D02*
X93898456Y-78829529D01*
X93398456Y-78650958D02*
X93898456Y-78829529D01*
X93898456Y-78829529D02*
X94077027Y-78900958D01*
X94077027Y-78900958D02*
X94112742Y-78936672D01*
X94112742Y-78936672D02*
X94148456Y-79008101D01*
X95105914Y-81829528D02*
X95105914Y-82186671D01*
X95105914Y-82186671D02*
X94355914Y-82186671D01*
X95105914Y-81258100D02*
X94713057Y-81258100D01*
X94713057Y-81258100D02*
X94641628Y-81293814D01*
X94641628Y-81293814D02*
X94605914Y-81365242D01*
X94605914Y-81365242D02*
X94605914Y-81508100D01*
X94605914Y-81508100D02*
X94641628Y-81579528D01*
X95070200Y-81258100D02*
X95105914Y-81329528D01*
X95105914Y-81329528D02*
X95105914Y-81508100D01*
X95105914Y-81508100D02*
X95070200Y-81579528D01*
X95070200Y-81579528D02*
X94998771Y-81615242D01*
X94998771Y-81615242D02*
X94927342Y-81615242D01*
X94927342Y-81615242D02*
X94855914Y-81579528D01*
X94855914Y-81579528D02*
X94820200Y-81508100D01*
X94820200Y-81508100D02*
X94820200Y-81329528D01*
X94820200Y-81329528D02*
X94784485Y-81258100D01*
X95105914Y-80900957D02*
X94355914Y-80900957D01*
X94641628Y-80900957D02*
X94605914Y-80829529D01*
X94605914Y-80829529D02*
X94605914Y-80686671D01*
X94605914Y-80686671D02*
X94641628Y-80615243D01*
X94641628Y-80615243D02*
X94677342Y-80579529D01*
X94677342Y-80579529D02*
X94748771Y-80543814D01*
X94748771Y-80543814D02*
X94963057Y-80543814D01*
X94963057Y-80543814D02*
X95034485Y-80579529D01*
X95034485Y-80579529D02*
X95070200Y-80615243D01*
X95070200Y-80615243D02*
X95105914Y-80686671D01*
X95105914Y-80686671D02*
X95105914Y-80829529D01*
X95105914Y-80829529D02*
X95070200Y-80900957D01*
X95070200Y-80258100D02*
X95105914Y-80186672D01*
X95105914Y-80186672D02*
X95105914Y-80043815D01*
X95105914Y-80043815D02*
X95070200Y-79972386D01*
X95070200Y-79972386D02*
X94998771Y-79936672D01*
X94998771Y-79936672D02*
X94963057Y-79936672D01*
X94963057Y-79936672D02*
X94891628Y-79972386D01*
X94891628Y-79972386D02*
X94855914Y-80043815D01*
X94855914Y-80043815D02*
X94855914Y-80150958D01*
X94855914Y-80150958D02*
X94820200Y-80222386D01*
X94820200Y-80222386D02*
X94748771Y-80258100D01*
X94748771Y-80258100D02*
X94713057Y-80258100D01*
X94713057Y-80258100D02*
X94641628Y-80222386D01*
X94641628Y-80222386D02*
X94605914Y-80150958D01*
X94605914Y-80150958D02*
X94605914Y-80043815D01*
X94605914Y-80043815D02*
X94641628Y-79972386D01*
X94498141Y-74736671D02*
X94533855Y-74629528D01*
X94533855Y-74629528D02*
X94569569Y-74593814D01*
X94569569Y-74593814D02*
X94640998Y-74558100D01*
X94640998Y-74558100D02*
X94748141Y-74558100D01*
X94748141Y-74558100D02*
X94819569Y-74593814D01*
X94819569Y-74593814D02*
X94855284Y-74629528D01*
X94855284Y-74629528D02*
X94890998Y-74700957D01*
X94890998Y-74700957D02*
X94890998Y-74986671D01*
X94890998Y-74986671D02*
X94140998Y-74986671D01*
X94140998Y-74986671D02*
X94140998Y-74736671D01*
X94140998Y-74736671D02*
X94176712Y-74665243D01*
X94176712Y-74665243D02*
X94212426Y-74629528D01*
X94212426Y-74629528D02*
X94283855Y-74593814D01*
X94283855Y-74593814D02*
X94355284Y-74593814D01*
X94355284Y-74593814D02*
X94426712Y-74629528D01*
X94426712Y-74629528D02*
X94462426Y-74665243D01*
X94462426Y-74665243D02*
X94498141Y-74736671D01*
X94498141Y-74736671D02*
X94498141Y-74986671D01*
X94890998Y-74236671D02*
X94390998Y-74236671D01*
X94533855Y-74236671D02*
X94462426Y-74200957D01*
X94462426Y-74200957D02*
X94426712Y-74165243D01*
X94426712Y-74165243D02*
X94390998Y-74093814D01*
X94390998Y-74093814D02*
X94390998Y-74022385D01*
X94890998Y-73450957D02*
X94498141Y-73450957D01*
X94498141Y-73450957D02*
X94426712Y-73486671D01*
X94426712Y-73486671D02*
X94390998Y-73558099D01*
X94390998Y-73558099D02*
X94390998Y-73700957D01*
X94390998Y-73700957D02*
X94426712Y-73772385D01*
X94855284Y-73450957D02*
X94890998Y-73522385D01*
X94890998Y-73522385D02*
X94890998Y-73700957D01*
X94890998Y-73700957D02*
X94855284Y-73772385D01*
X94855284Y-73772385D02*
X94783855Y-73808099D01*
X94783855Y-73808099D02*
X94712426Y-73808099D01*
X94712426Y-73808099D02*
X94640998Y-73772385D01*
X94640998Y-73772385D02*
X94605284Y-73700957D01*
X94605284Y-73700957D02*
X94605284Y-73522385D01*
X94605284Y-73522385D02*
X94569569Y-73450957D01*
X94390998Y-73093814D02*
X94890998Y-73093814D01*
X94462426Y-73093814D02*
X94426712Y-73058100D01*
X94426712Y-73058100D02*
X94390998Y-72986671D01*
X94390998Y-72986671D02*
X94390998Y-72879528D01*
X94390998Y-72879528D02*
X94426712Y-72808100D01*
X94426712Y-72808100D02*
X94498141Y-72772386D01*
X94498141Y-72772386D02*
X94890998Y-72772386D01*
X94890998Y-72093815D02*
X94140998Y-72093815D01*
X94855284Y-72093815D02*
X94890998Y-72165243D01*
X94890998Y-72165243D02*
X94890998Y-72308100D01*
X94890998Y-72308100D02*
X94855284Y-72379529D01*
X94855284Y-72379529D02*
X94819569Y-72415243D01*
X94819569Y-72415243D02*
X94748141Y-72450957D01*
X94748141Y-72450957D02*
X94533855Y-72450957D01*
X94533855Y-72450957D02*
X94462426Y-72415243D01*
X94462426Y-72415243D02*
X94426712Y-72379529D01*
X94426712Y-72379529D02*
X94390998Y-72308100D01*
X94390998Y-72308100D02*
X94390998Y-72165243D01*
X94390998Y-72165243D02*
X94426712Y-72093815D01*
X94890998Y-71629529D02*
X94855284Y-71700958D01*
X94855284Y-71700958D02*
X94819569Y-71736672D01*
X94819569Y-71736672D02*
X94748141Y-71772386D01*
X94748141Y-71772386D02*
X94533855Y-71772386D01*
X94533855Y-71772386D02*
X94462426Y-71736672D01*
X94462426Y-71736672D02*
X94426712Y-71700958D01*
X94426712Y-71700958D02*
X94390998Y-71629529D01*
X94390998Y-71629529D02*
X94390998Y-71522386D01*
X94390998Y-71522386D02*
X94426712Y-71450958D01*
X94426712Y-71450958D02*
X94462426Y-71415244D01*
X94462426Y-71415244D02*
X94533855Y-71379529D01*
X94533855Y-71379529D02*
X94748141Y-71379529D01*
X94748141Y-71379529D02*
X94819569Y-71415244D01*
X94819569Y-71415244D02*
X94855284Y-71450958D01*
X94855284Y-71450958D02*
X94890998Y-71522386D01*
X94890998Y-71522386D02*
X94890998Y-71629529D01*
X94390998Y-71058101D02*
X94890998Y-71058101D01*
X94462426Y-71058101D02*
X94426712Y-71022387D01*
X94426712Y-71022387D02*
X94390998Y-70950958D01*
X94390998Y-70950958D02*
X94390998Y-70843815D01*
X94390998Y-70843815D02*
X94426712Y-70772387D01*
X94426712Y-70772387D02*
X94498141Y-70736673D01*
X94498141Y-70736673D02*
X94890998Y-70736673D01*
X94140998Y-69915244D02*
X94140998Y-69486673D01*
X94890998Y-69700958D02*
X94140998Y-69700958D01*
X94855284Y-69200958D02*
X94890998Y-69200958D01*
X94890998Y-69200958D02*
X94962426Y-69236672D01*
X94962426Y-69236672D02*
X94998141Y-69272386D01*
X96098456Y-74986671D02*
X95348456Y-74986671D01*
X95348456Y-74986671D02*
X95348456Y-74808100D01*
X95348456Y-74808100D02*
X95384170Y-74700957D01*
X95384170Y-74700957D02*
X95455599Y-74629528D01*
X95455599Y-74629528D02*
X95527027Y-74593814D01*
X95527027Y-74593814D02*
X95669884Y-74558100D01*
X95669884Y-74558100D02*
X95777027Y-74558100D01*
X95777027Y-74558100D02*
X95919884Y-74593814D01*
X95919884Y-74593814D02*
X95991313Y-74629528D01*
X95991313Y-74629528D02*
X96062742Y-74700957D01*
X96062742Y-74700957D02*
X96098456Y-74808100D01*
X96098456Y-74808100D02*
X96098456Y-74986671D01*
X96098456Y-74236671D02*
X95598456Y-74236671D01*
X95348456Y-74236671D02*
X95384170Y-74272385D01*
X95384170Y-74272385D02*
X95419884Y-74236671D01*
X95419884Y-74236671D02*
X95384170Y-74200957D01*
X95384170Y-74200957D02*
X95348456Y-74236671D01*
X95348456Y-74236671D02*
X95419884Y-74236671D01*
X95598456Y-73879528D02*
X96098456Y-73879528D01*
X95669884Y-73879528D02*
X95634170Y-73843814D01*
X95634170Y-73843814D02*
X95598456Y-73772385D01*
X95598456Y-73772385D02*
X95598456Y-73665242D01*
X95598456Y-73665242D02*
X95634170Y-73593814D01*
X95634170Y-73593814D02*
X95705599Y-73558100D01*
X95705599Y-73558100D02*
X96098456Y-73558100D01*
X96098456Y-73200957D02*
X95348456Y-73200957D01*
X96098456Y-72879529D02*
X95705599Y-72879529D01*
X95705599Y-72879529D02*
X95634170Y-72915243D01*
X95634170Y-72915243D02*
X95598456Y-72986671D01*
X95598456Y-72986671D02*
X95598456Y-73093814D01*
X95598456Y-73093814D02*
X95634170Y-73165243D01*
X95634170Y-73165243D02*
X95669884Y-73200957D01*
X96098456Y-71593814D02*
X96098456Y-71950957D01*
X96098456Y-71950957D02*
X95348456Y-71950957D01*
X96062742Y-71308100D02*
X96098456Y-71308100D01*
X96098456Y-71308100D02*
X96169884Y-71343814D01*
X96169884Y-71343814D02*
X96205599Y-71379528D01*
X97305914Y-74986671D02*
X96555914Y-74986671D01*
X96555914Y-74986671D02*
X97091628Y-74736671D01*
X97091628Y-74736671D02*
X96555914Y-74486671D01*
X96555914Y-74486671D02*
X97305914Y-74486671D01*
X97305914Y-73808100D02*
X96913057Y-73808100D01*
X96913057Y-73808100D02*
X96841628Y-73843814D01*
X96841628Y-73843814D02*
X96805914Y-73915242D01*
X96805914Y-73915242D02*
X96805914Y-74058100D01*
X96805914Y-74058100D02*
X96841628Y-74129528D01*
X97270200Y-73808100D02*
X97305914Y-73879528D01*
X97305914Y-73879528D02*
X97305914Y-74058100D01*
X97305914Y-74058100D02*
X97270200Y-74129528D01*
X97270200Y-74129528D02*
X97198771Y-74165242D01*
X97198771Y-74165242D02*
X97127342Y-74165242D01*
X97127342Y-74165242D02*
X97055914Y-74129528D01*
X97055914Y-74129528D02*
X97020200Y-74058100D01*
X97020200Y-74058100D02*
X97020200Y-73879528D01*
X97020200Y-73879528D02*
X96984485Y-73808100D01*
X97305914Y-73450957D02*
X96805914Y-73450957D01*
X96948771Y-73450957D02*
X96877342Y-73415243D01*
X96877342Y-73415243D02*
X96841628Y-73379529D01*
X96841628Y-73379529D02*
X96805914Y-73308100D01*
X96805914Y-73308100D02*
X96805914Y-73236671D01*
X97270200Y-72665243D02*
X97305914Y-72736671D01*
X97305914Y-72736671D02*
X97305914Y-72879528D01*
X97305914Y-72879528D02*
X97270200Y-72950957D01*
X97270200Y-72950957D02*
X97234485Y-72986671D01*
X97234485Y-72986671D02*
X97163057Y-73022385D01*
X97163057Y-73022385D02*
X96948771Y-73022385D01*
X96948771Y-73022385D02*
X96877342Y-72986671D01*
X96877342Y-72986671D02*
X96841628Y-72950957D01*
X96841628Y-72950957D02*
X96805914Y-72879528D01*
X96805914Y-72879528D02*
X96805914Y-72736671D01*
X96805914Y-72736671D02*
X96841628Y-72665243D01*
X96805914Y-72022386D02*
X97305914Y-72022386D01*
X96805914Y-72343814D02*
X97198771Y-72343814D01*
X97198771Y-72343814D02*
X97270200Y-72308100D01*
X97270200Y-72308100D02*
X97305914Y-72236671D01*
X97305914Y-72236671D02*
X97305914Y-72129528D01*
X97305914Y-72129528D02*
X97270200Y-72058100D01*
X97270200Y-72058100D02*
X97234485Y-72022386D01*
X97270200Y-71700957D02*
X97305914Y-71629529D01*
X97305914Y-71629529D02*
X97305914Y-71486672D01*
X97305914Y-71486672D02*
X97270200Y-71415243D01*
X97270200Y-71415243D02*
X97198771Y-71379529D01*
X97198771Y-71379529D02*
X97163057Y-71379529D01*
X97163057Y-71379529D02*
X97091628Y-71415243D01*
X97091628Y-71415243D02*
X97055914Y-71486672D01*
X97055914Y-71486672D02*
X97055914Y-71593815D01*
X97055914Y-71593815D02*
X97020200Y-71665243D01*
X97020200Y-71665243D02*
X96948771Y-71700957D01*
X96948771Y-71700957D02*
X96913057Y-71700957D01*
X96913057Y-71700957D02*
X96841628Y-71665243D01*
X96841628Y-71665243D02*
X96805914Y-71593815D01*
X96805914Y-71593815D02*
X96805914Y-71486672D01*
X96805914Y-71486672D02*
X96841628Y-71415243D01*
X97305914Y-70129528D02*
X97305914Y-70486671D01*
X97305914Y-70486671D02*
X96555914Y-70486671D01*
X97270200Y-69843814D02*
X97305914Y-69843814D01*
X97305914Y-69843814D02*
X97377342Y-69879528D01*
X97377342Y-69879528D02*
X97413057Y-69915242D01*
D11*
X110367957Y-40741872D02*
X110320338Y-40694253D01*
X110320338Y-40694253D02*
X110272719Y-40599015D01*
X110272719Y-40599015D02*
X110272719Y-40360920D01*
X110272719Y-40360920D02*
X110320338Y-40265682D01*
X110320338Y-40265682D02*
X110367957Y-40218063D01*
X110367957Y-40218063D02*
X110463195Y-40170444D01*
X110463195Y-40170444D02*
X110558433Y-40170444D01*
X110558433Y-40170444D02*
X110701290Y-40218063D01*
X110701290Y-40218063D02*
X111272719Y-40789491D01*
X111272719Y-40789491D02*
X111272719Y-40170444D01*
X110272719Y-39551396D02*
X110272719Y-39456158D01*
X110272719Y-39456158D02*
X110320338Y-39360920D01*
X110320338Y-39360920D02*
X110367957Y-39313301D01*
X110367957Y-39313301D02*
X110463195Y-39265682D01*
X110463195Y-39265682D02*
X110653671Y-39218063D01*
X110653671Y-39218063D02*
X110891766Y-39218063D01*
X110891766Y-39218063D02*
X111082242Y-39265682D01*
X111082242Y-39265682D02*
X111177480Y-39313301D01*
X111177480Y-39313301D02*
X111225100Y-39360920D01*
X111225100Y-39360920D02*
X111272719Y-39456158D01*
X111272719Y-39456158D02*
X111272719Y-39551396D01*
X111272719Y-39551396D02*
X111225100Y-39646634D01*
X111225100Y-39646634D02*
X111177480Y-39694253D01*
X111177480Y-39694253D02*
X111082242Y-39741872D01*
X111082242Y-39741872D02*
X110891766Y-39789491D01*
X110891766Y-39789491D02*
X110653671Y-39789491D01*
X110653671Y-39789491D02*
X110463195Y-39741872D01*
X110463195Y-39741872D02*
X110367957Y-39694253D01*
X110367957Y-39694253D02*
X110320338Y-39646634D01*
X110320338Y-39646634D02*
X110272719Y-39551396D01*
X110367957Y-38837110D02*
X110320338Y-38789491D01*
X110320338Y-38789491D02*
X110272719Y-38694253D01*
X110272719Y-38694253D02*
X110272719Y-38456158D01*
X110272719Y-38456158D02*
X110320338Y-38360920D01*
X110320338Y-38360920D02*
X110367957Y-38313301D01*
X110367957Y-38313301D02*
X110463195Y-38265682D01*
X110463195Y-38265682D02*
X110558433Y-38265682D01*
X110558433Y-38265682D02*
X110701290Y-38313301D01*
X110701290Y-38313301D02*
X111272719Y-38884729D01*
X111272719Y-38884729D02*
X111272719Y-38265682D01*
X110272719Y-37408539D02*
X110272719Y-37599015D01*
X110272719Y-37599015D02*
X110320338Y-37694253D01*
X110320338Y-37694253D02*
X110367957Y-37741872D01*
X110367957Y-37741872D02*
X110510814Y-37837110D01*
X110510814Y-37837110D02*
X110701290Y-37884729D01*
X110701290Y-37884729D02*
X111082242Y-37884729D01*
X111082242Y-37884729D02*
X111177480Y-37837110D01*
X111177480Y-37837110D02*
X111225100Y-37789491D01*
X111225100Y-37789491D02*
X111272719Y-37694253D01*
X111272719Y-37694253D02*
X111272719Y-37503777D01*
X111272719Y-37503777D02*
X111225100Y-37408539D01*
X111225100Y-37408539D02*
X111177480Y-37360920D01*
X111177480Y-37360920D02*
X111082242Y-37313301D01*
X111082242Y-37313301D02*
X110844147Y-37313301D01*
X110844147Y-37313301D02*
X110748909Y-37360920D01*
X110748909Y-37360920D02*
X110701290Y-37408539D01*
X110701290Y-37408539D02*
X110653671Y-37503777D01*
X110653671Y-37503777D02*
X110653671Y-37694253D01*
X110653671Y-37694253D02*
X110701290Y-37789491D01*
X110701290Y-37789491D02*
X110748909Y-37837110D01*
X110748909Y-37837110D02*
X110844147Y-37884729D01*
D12*
X110759071Y-86156016D02*
X111187643Y-86156016D01*
X110973357Y-86906016D02*
X110973357Y-86156016D01*
X111437643Y-86906016D02*
X111437643Y-86156016D01*
X111437643Y-86156016D02*
X111723357Y-86156016D01*
X111723357Y-86156016D02*
X111794786Y-86191730D01*
X111794786Y-86191730D02*
X111830500Y-86227444D01*
X111830500Y-86227444D02*
X111866214Y-86298873D01*
X111866214Y-86298873D02*
X111866214Y-86406016D01*
X111866214Y-86406016D02*
X111830500Y-86477444D01*
X111830500Y-86477444D02*
X111794786Y-86513159D01*
X111794786Y-86513159D02*
X111723357Y-86548873D01*
X111723357Y-86548873D02*
X111437643Y-86548873D01*
X112544786Y-86156016D02*
X112187643Y-86156016D01*
X112187643Y-86156016D02*
X112151929Y-86513159D01*
X112151929Y-86513159D02*
X112187643Y-86477444D01*
X112187643Y-86477444D02*
X112259072Y-86441730D01*
X112259072Y-86441730D02*
X112437643Y-86441730D01*
X112437643Y-86441730D02*
X112509072Y-86477444D01*
X112509072Y-86477444D02*
X112544786Y-86513159D01*
X112544786Y-86513159D02*
X112580500Y-86584587D01*
X112580500Y-86584587D02*
X112580500Y-86763159D01*
X112580500Y-86763159D02*
X112544786Y-86834587D01*
X112544786Y-86834587D02*
X112509072Y-86870302D01*
X112509072Y-86870302D02*
X112437643Y-86906016D01*
X112437643Y-86906016D02*
X112259072Y-86906016D01*
X112259072Y-86906016D02*
X112187643Y-86870302D01*
X112187643Y-86870302D02*
X112151929Y-86834587D01*
X98997589Y-58235355D02*
X99604732Y-58235355D01*
X99604732Y-58235355D02*
X99676160Y-58199641D01*
X99676160Y-58199641D02*
X99711875Y-58163927D01*
X99711875Y-58163927D02*
X99747589Y-58092498D01*
X99747589Y-58092498D02*
X99747589Y-57949641D01*
X99747589Y-57949641D02*
X99711875Y-57878212D01*
X99711875Y-57878212D02*
X99676160Y-57842498D01*
X99676160Y-57842498D02*
X99604732Y-57806784D01*
X99604732Y-57806784D02*
X98997589Y-57806784D01*
X99247589Y-57128213D02*
X99747589Y-57128213D01*
X98961875Y-57306784D02*
X99497589Y-57485355D01*
X99497589Y-57485355D02*
X99497589Y-57021070D01*
X114337589Y-59388927D02*
X113980446Y-59638927D01*
X114337589Y-59817498D02*
X113587589Y-59817498D01*
X113587589Y-59817498D02*
X113587589Y-59531784D01*
X113587589Y-59531784D02*
X113623303Y-59460355D01*
X113623303Y-59460355D02*
X113659017Y-59424641D01*
X113659017Y-59424641D02*
X113730446Y-59388927D01*
X113730446Y-59388927D02*
X113837589Y-59388927D01*
X113837589Y-59388927D02*
X113909017Y-59424641D01*
X113909017Y-59424641D02*
X113944732Y-59460355D01*
X113944732Y-59460355D02*
X113980446Y-59531784D01*
X113980446Y-59531784D02*
X113980446Y-59817498D01*
X113587589Y-59138927D02*
X113587589Y-58674641D01*
X113587589Y-58674641D02*
X113873303Y-58924641D01*
X113873303Y-58924641D02*
X113873303Y-58817498D01*
X113873303Y-58817498D02*
X113909017Y-58746070D01*
X113909017Y-58746070D02*
X113944732Y-58710355D01*
X113944732Y-58710355D02*
X114016160Y-58674641D01*
X114016160Y-58674641D02*
X114194732Y-58674641D01*
X114194732Y-58674641D02*
X114266160Y-58710355D01*
X114266160Y-58710355D02*
X114301875Y-58746070D01*
X114301875Y-58746070D02*
X114337589Y-58817498D01*
X114337589Y-58817498D02*
X114337589Y-59031784D01*
X114337589Y-59031784D02*
X114301875Y-59103212D01*
X114301875Y-59103212D02*
X114266160Y-59138927D01*
X95180499Y-67106016D02*
X94930499Y-66748873D01*
X94751928Y-67106016D02*
X94751928Y-66356016D01*
X94751928Y-66356016D02*
X95037642Y-66356016D01*
X95037642Y-66356016D02*
X95109071Y-66391730D01*
X95109071Y-66391730D02*
X95144785Y-66427444D01*
X95144785Y-66427444D02*
X95180499Y-66498873D01*
X95180499Y-66498873D02*
X95180499Y-66606016D01*
X95180499Y-66606016D02*
X95144785Y-66677444D01*
X95144785Y-66677444D02*
X95109071Y-66713159D01*
X95109071Y-66713159D02*
X95037642Y-66748873D01*
X95037642Y-66748873D02*
X94751928Y-66748873D01*
X95609071Y-66677444D02*
X95537642Y-66641730D01*
X95537642Y-66641730D02*
X95501928Y-66606016D01*
X95501928Y-66606016D02*
X95466214Y-66534587D01*
X95466214Y-66534587D02*
X95466214Y-66498873D01*
X95466214Y-66498873D02*
X95501928Y-66427444D01*
X95501928Y-66427444D02*
X95537642Y-66391730D01*
X95537642Y-66391730D02*
X95609071Y-66356016D01*
X95609071Y-66356016D02*
X95751928Y-66356016D01*
X95751928Y-66356016D02*
X95823357Y-66391730D01*
X95823357Y-66391730D02*
X95859071Y-66427444D01*
X95859071Y-66427444D02*
X95894785Y-66498873D01*
X95894785Y-66498873D02*
X95894785Y-66534587D01*
X95894785Y-66534587D02*
X95859071Y-66606016D01*
X95859071Y-66606016D02*
X95823357Y-66641730D01*
X95823357Y-66641730D02*
X95751928Y-66677444D01*
X95751928Y-66677444D02*
X95609071Y-66677444D01*
X95609071Y-66677444D02*
X95537642Y-66713159D01*
X95537642Y-66713159D02*
X95501928Y-66748873D01*
X95501928Y-66748873D02*
X95466214Y-66820302D01*
X95466214Y-66820302D02*
X95466214Y-66963159D01*
X95466214Y-66963159D02*
X95501928Y-67034587D01*
X95501928Y-67034587D02*
X95537642Y-67070302D01*
X95537642Y-67070302D02*
X95609071Y-67106016D01*
X95609071Y-67106016D02*
X95751928Y-67106016D01*
X95751928Y-67106016D02*
X95823357Y-67070302D01*
X95823357Y-67070302D02*
X95859071Y-67034587D01*
X95859071Y-67034587D02*
X95894785Y-66963159D01*
X95894785Y-66963159D02*
X95894785Y-66820302D01*
X95894785Y-66820302D02*
X95859071Y-66748873D01*
X95859071Y-66748873D02*
X95823357Y-66713159D01*
X95823357Y-66713159D02*
X95751928Y-66677444D01*
X109876160Y-63388927D02*
X109911875Y-63424641D01*
X109911875Y-63424641D02*
X109947589Y-63531784D01*
X109947589Y-63531784D02*
X109947589Y-63603212D01*
X109947589Y-63603212D02*
X109911875Y-63710355D01*
X109911875Y-63710355D02*
X109840446Y-63781784D01*
X109840446Y-63781784D02*
X109769017Y-63817498D01*
X109769017Y-63817498D02*
X109626160Y-63853212D01*
X109626160Y-63853212D02*
X109519017Y-63853212D01*
X109519017Y-63853212D02*
X109376160Y-63817498D01*
X109376160Y-63817498D02*
X109304732Y-63781784D01*
X109304732Y-63781784D02*
X109233303Y-63710355D01*
X109233303Y-63710355D02*
X109197589Y-63603212D01*
X109197589Y-63603212D02*
X109197589Y-63531784D01*
X109197589Y-63531784D02*
X109233303Y-63424641D01*
X109233303Y-63424641D02*
X109269017Y-63388927D01*
X109197589Y-62710355D02*
X109197589Y-63067498D01*
X109197589Y-63067498D02*
X109554732Y-63103212D01*
X109554732Y-63103212D02*
X109519017Y-63067498D01*
X109519017Y-63067498D02*
X109483303Y-62996070D01*
X109483303Y-62996070D02*
X109483303Y-62817498D01*
X109483303Y-62817498D02*
X109519017Y-62746070D01*
X109519017Y-62746070D02*
X109554732Y-62710355D01*
X109554732Y-62710355D02*
X109626160Y-62674641D01*
X109626160Y-62674641D02*
X109804732Y-62674641D01*
X109804732Y-62674641D02*
X109876160Y-62710355D01*
X109876160Y-62710355D02*
X109911875Y-62746070D01*
X109911875Y-62746070D02*
X109947589Y-62817498D01*
X109947589Y-62817498D02*
X109947589Y-62996070D01*
X109947589Y-62996070D02*
X109911875Y-63067498D01*
X109911875Y-63067498D02*
X109876160Y-63103212D01*
X100480499Y-62534587D02*
X100444785Y-62570302D01*
X100444785Y-62570302D02*
X100337642Y-62606016D01*
X100337642Y-62606016D02*
X100266214Y-62606016D01*
X100266214Y-62606016D02*
X100159071Y-62570302D01*
X100159071Y-62570302D02*
X100087642Y-62498873D01*
X100087642Y-62498873D02*
X100051928Y-62427444D01*
X100051928Y-62427444D02*
X100016214Y-62284587D01*
X100016214Y-62284587D02*
X100016214Y-62177444D01*
X100016214Y-62177444D02*
X100051928Y-62034587D01*
X100051928Y-62034587D02*
X100087642Y-61963159D01*
X100087642Y-61963159D02*
X100159071Y-61891730D01*
X100159071Y-61891730D02*
X100266214Y-61856016D01*
X100266214Y-61856016D02*
X100337642Y-61856016D01*
X100337642Y-61856016D02*
X100444785Y-61891730D01*
X100444785Y-61891730D02*
X100480499Y-61927444D01*
X101123357Y-61856016D02*
X100980499Y-61856016D01*
X100980499Y-61856016D02*
X100909071Y-61891730D01*
X100909071Y-61891730D02*
X100873357Y-61927444D01*
X100873357Y-61927444D02*
X100801928Y-62034587D01*
X100801928Y-62034587D02*
X100766214Y-62177444D01*
X100766214Y-62177444D02*
X100766214Y-62463159D01*
X100766214Y-62463159D02*
X100801928Y-62534587D01*
X100801928Y-62534587D02*
X100837642Y-62570302D01*
X100837642Y-62570302D02*
X100909071Y-62606016D01*
X100909071Y-62606016D02*
X101051928Y-62606016D01*
X101051928Y-62606016D02*
X101123357Y-62570302D01*
X101123357Y-62570302D02*
X101159071Y-62534587D01*
X101159071Y-62534587D02*
X101194785Y-62463159D01*
X101194785Y-62463159D02*
X101194785Y-62284587D01*
X101194785Y-62284587D02*
X101159071Y-62213159D01*
X101159071Y-62213159D02*
X101123357Y-62177444D01*
X101123357Y-62177444D02*
X101051928Y-62141730D01*
X101051928Y-62141730D02*
X100909071Y-62141730D01*
X100909071Y-62141730D02*
X100837642Y-62177444D01*
X100837642Y-62177444D02*
X100801928Y-62213159D01*
X100801928Y-62213159D02*
X100766214Y-62284587D01*
X117097589Y-67313926D02*
X117633303Y-67313926D01*
X117633303Y-67313926D02*
X117740446Y-67349641D01*
X117740446Y-67349641D02*
X117811875Y-67421069D01*
X117811875Y-67421069D02*
X117847589Y-67528212D01*
X117847589Y-67528212D02*
X117847589Y-67599641D01*
X117097589Y-67028212D02*
X117097589Y-66563926D01*
X117097589Y-66563926D02*
X117383303Y-66813926D01*
X117383303Y-66813926D02*
X117383303Y-66706783D01*
X117383303Y-66706783D02*
X117419017Y-66635355D01*
X117419017Y-66635355D02*
X117454732Y-66599640D01*
X117454732Y-66599640D02*
X117526160Y-66563926D01*
X117526160Y-66563926D02*
X117704732Y-66563926D01*
X117704732Y-66563926D02*
X117776160Y-66599640D01*
X117776160Y-66599640D02*
X117811875Y-66635355D01*
X117811875Y-66635355D02*
X117847589Y-66706783D01*
X117847589Y-66706783D02*
X117847589Y-66921069D01*
X117847589Y-66921069D02*
X117811875Y-66992497D01*
X117811875Y-66992497D02*
X117776160Y-67028212D01*
X106947589Y-55188927D02*
X106590446Y-55438927D01*
X106947589Y-55617498D02*
X106197589Y-55617498D01*
X106197589Y-55617498D02*
X106197589Y-55331784D01*
X106197589Y-55331784D02*
X106233303Y-55260355D01*
X106233303Y-55260355D02*
X106269017Y-55224641D01*
X106269017Y-55224641D02*
X106340446Y-55188927D01*
X106340446Y-55188927D02*
X106447589Y-55188927D01*
X106447589Y-55188927D02*
X106519017Y-55224641D01*
X106519017Y-55224641D02*
X106554732Y-55260355D01*
X106554732Y-55260355D02*
X106590446Y-55331784D01*
X106590446Y-55331784D02*
X106590446Y-55617498D01*
X106197589Y-54510355D02*
X106197589Y-54867498D01*
X106197589Y-54867498D02*
X106554732Y-54903212D01*
X106554732Y-54903212D02*
X106519017Y-54867498D01*
X106519017Y-54867498D02*
X106483303Y-54796070D01*
X106483303Y-54796070D02*
X106483303Y-54617498D01*
X106483303Y-54617498D02*
X106519017Y-54546070D01*
X106519017Y-54546070D02*
X106554732Y-54510355D01*
X106554732Y-54510355D02*
X106626160Y-54474641D01*
X106626160Y-54474641D02*
X106804732Y-54474641D01*
X106804732Y-54474641D02*
X106876160Y-54510355D01*
X106876160Y-54510355D02*
X106911875Y-54546070D01*
X106911875Y-54546070D02*
X106947589Y-54617498D01*
X106947589Y-54617498D02*
X106947589Y-54796070D01*
X106947589Y-54796070D02*
X106911875Y-54867498D01*
X106911875Y-54867498D02*
X106876160Y-54903212D01*
X94080499Y-65606016D02*
X93830499Y-65248873D01*
X93651928Y-65606016D02*
X93651928Y-64856016D01*
X93651928Y-64856016D02*
X93937642Y-64856016D01*
X93937642Y-64856016D02*
X94009071Y-64891730D01*
X94009071Y-64891730D02*
X94044785Y-64927444D01*
X94044785Y-64927444D02*
X94080499Y-64998873D01*
X94080499Y-64998873D02*
X94080499Y-65106016D01*
X94080499Y-65106016D02*
X94044785Y-65177444D01*
X94044785Y-65177444D02*
X94009071Y-65213159D01*
X94009071Y-65213159D02*
X93937642Y-65248873D01*
X93937642Y-65248873D02*
X93651928Y-65248873D01*
X94330499Y-64856016D02*
X94830499Y-64856016D01*
X94830499Y-64856016D02*
X94509071Y-65606016D01*
D10*
X114443595Y-64018746D02*
X115015023Y-64018746D01*
X114729309Y-65018746D02*
X114729309Y-64018746D01*
X115348357Y-65018746D02*
X115348357Y-64018746D01*
X115348357Y-64018746D02*
X115729309Y-64018746D01*
X115729309Y-64018746D02*
X115824547Y-64066365D01*
X115824547Y-64066365D02*
X115872166Y-64113984D01*
X115872166Y-64113984D02*
X115919785Y-64209222D01*
X115919785Y-64209222D02*
X115919785Y-64352079D01*
X115919785Y-64352079D02*
X115872166Y-64447317D01*
X115872166Y-64447317D02*
X115824547Y-64494936D01*
X115824547Y-64494936D02*
X115729309Y-64542555D01*
X115729309Y-64542555D02*
X115348357Y-64542555D01*
X116776928Y-64018746D02*
X116586452Y-64018746D01*
X116586452Y-64018746D02*
X116491214Y-64066365D01*
X116491214Y-64066365D02*
X116443595Y-64113984D01*
X116443595Y-64113984D02*
X116348357Y-64256841D01*
X116348357Y-64256841D02*
X116300738Y-64447317D01*
X116300738Y-64447317D02*
X116300738Y-64828269D01*
X116300738Y-64828269D02*
X116348357Y-64923507D01*
X116348357Y-64923507D02*
X116395976Y-64971127D01*
X116395976Y-64971127D02*
X116491214Y-65018746D01*
X116491214Y-65018746D02*
X116681690Y-65018746D01*
X116681690Y-65018746D02*
X116776928Y-64971127D01*
X116776928Y-64971127D02*
X116824547Y-64923507D01*
X116824547Y-64923507D02*
X116872166Y-64828269D01*
X116872166Y-64828269D02*
X116872166Y-64590174D01*
X116872166Y-64590174D02*
X116824547Y-64494936D01*
X116824547Y-64494936D02*
X116776928Y-64447317D01*
X116776928Y-64447317D02*
X116681690Y-64399698D01*
X116681690Y-64399698D02*
X116491214Y-64399698D01*
X116491214Y-64399698D02*
X116395976Y-64447317D01*
X116395976Y-64447317D02*
X116348357Y-64494936D01*
X116348357Y-64494936D02*
X116300738Y-64590174D01*
X96143595Y-59618746D02*
X96715023Y-59618746D01*
X96429309Y-60618746D02*
X96429309Y-59618746D01*
X97048357Y-60618746D02*
X97048357Y-59618746D01*
X97048357Y-59618746D02*
X97429309Y-59618746D01*
X97429309Y-59618746D02*
X97524547Y-59666365D01*
X97524547Y-59666365D02*
X97572166Y-59713984D01*
X97572166Y-59713984D02*
X97619785Y-59809222D01*
X97619785Y-59809222D02*
X97619785Y-59952079D01*
X97619785Y-59952079D02*
X97572166Y-60047317D01*
X97572166Y-60047317D02*
X97524547Y-60094936D01*
X97524547Y-60094936D02*
X97429309Y-60142555D01*
X97429309Y-60142555D02*
X97048357Y-60142555D01*
X97953119Y-59618746D02*
X98572166Y-59618746D01*
X98572166Y-59618746D02*
X98238833Y-59999698D01*
X98238833Y-59999698D02*
X98381690Y-59999698D01*
X98381690Y-59999698D02*
X98476928Y-60047317D01*
X98476928Y-60047317D02*
X98524547Y-60094936D01*
X98524547Y-60094936D02*
X98572166Y-60190174D01*
X98572166Y-60190174D02*
X98572166Y-60428269D01*
X98572166Y-60428269D02*
X98524547Y-60523507D01*
X98524547Y-60523507D02*
X98476928Y-60571127D01*
X98476928Y-60571127D02*
X98381690Y-60618746D01*
X98381690Y-60618746D02*
X98095976Y-60618746D01*
X98095976Y-60618746D02*
X98000738Y-60571127D01*
X98000738Y-60571127D02*
X97953119Y-60523507D01*
D12*
X114459071Y-86156016D02*
X114887643Y-86156016D01*
X114673357Y-86906016D02*
X114673357Y-86156016D01*
X115137643Y-86906016D02*
X115137643Y-86156016D01*
X115137643Y-86156016D02*
X115423357Y-86156016D01*
X115423357Y-86156016D02*
X115494786Y-86191730D01*
X115494786Y-86191730D02*
X115530500Y-86227444D01*
X115530500Y-86227444D02*
X115566214Y-86298873D01*
X115566214Y-86298873D02*
X115566214Y-86406016D01*
X115566214Y-86406016D02*
X115530500Y-86477444D01*
X115530500Y-86477444D02*
X115494786Y-86513159D01*
X115494786Y-86513159D02*
X115423357Y-86548873D01*
X115423357Y-86548873D02*
X115137643Y-86548873D01*
X116209072Y-86406016D02*
X116209072Y-86906016D01*
X116030500Y-86120302D02*
X115851929Y-86656016D01*
X115851929Y-86656016D02*
X116316214Y-86656016D01*
X91617589Y-66374641D02*
X90867589Y-66374641D01*
X90867589Y-66374641D02*
X90867589Y-66196070D01*
X90867589Y-66196070D02*
X90903303Y-66088927D01*
X90903303Y-66088927D02*
X90974732Y-66017498D01*
X90974732Y-66017498D02*
X91046160Y-65981784D01*
X91046160Y-65981784D02*
X91189017Y-65946070D01*
X91189017Y-65946070D02*
X91296160Y-65946070D01*
X91296160Y-65946070D02*
X91439017Y-65981784D01*
X91439017Y-65981784D02*
X91510446Y-66017498D01*
X91510446Y-66017498D02*
X91581875Y-66088927D01*
X91581875Y-66088927D02*
X91617589Y-66196070D01*
X91617589Y-66196070D02*
X91617589Y-66374641D01*
X91617589Y-65624641D02*
X90867589Y-65624641D01*
X91617589Y-64838927D02*
X91260446Y-65088927D01*
X91617589Y-65267498D02*
X90867589Y-65267498D01*
X90867589Y-65267498D02*
X90867589Y-64981784D01*
X90867589Y-64981784D02*
X90903303Y-64910355D01*
X90903303Y-64910355D02*
X90939017Y-64874641D01*
X90939017Y-64874641D02*
X91010446Y-64838927D01*
X91010446Y-64838927D02*
X91117589Y-64838927D01*
X91117589Y-64838927D02*
X91189017Y-64874641D01*
X91189017Y-64874641D02*
X91224732Y-64910355D01*
X91224732Y-64910355D02*
X91260446Y-64981784D01*
X91260446Y-64981784D02*
X91260446Y-65267498D01*
X91689017Y-64696070D02*
X91689017Y-64124641D01*
X91617589Y-63588926D02*
X91617589Y-63946069D01*
X91617589Y-63946069D02*
X90867589Y-63946069D01*
X91224732Y-63338926D02*
X91224732Y-63088926D01*
X91617589Y-62981783D02*
X91617589Y-63338926D01*
X91617589Y-63338926D02*
X90867589Y-63338926D01*
X90867589Y-63338926D02*
X90867589Y-62981783D01*
X91617589Y-62660355D02*
X90867589Y-62660355D01*
X90867589Y-62660355D02*
X90867589Y-62481784D01*
X90867589Y-62481784D02*
X90903303Y-62374641D01*
X90903303Y-62374641D02*
X90974732Y-62303212D01*
X90974732Y-62303212D02*
X91046160Y-62267498D01*
X91046160Y-62267498D02*
X91189017Y-62231784D01*
X91189017Y-62231784D02*
X91296160Y-62231784D01*
X91296160Y-62231784D02*
X91439017Y-62267498D01*
X91439017Y-62267498D02*
X91510446Y-62303212D01*
X91510446Y-62303212D02*
X91581875Y-62374641D01*
X91581875Y-62374641D02*
X91617589Y-62481784D01*
X91617589Y-62481784D02*
X91617589Y-62660355D01*
X90939017Y-61946069D02*
X90903303Y-61910355D01*
X90903303Y-61910355D02*
X90867589Y-61838927D01*
X90867589Y-61838927D02*
X90867589Y-61660355D01*
X90867589Y-61660355D02*
X90903303Y-61588927D01*
X90903303Y-61588927D02*
X90939017Y-61553212D01*
X90939017Y-61553212D02*
X91010446Y-61517498D01*
X91010446Y-61517498D02*
X91081875Y-61517498D01*
X91081875Y-61517498D02*
X91189017Y-61553212D01*
X91189017Y-61553212D02*
X91617589Y-61981784D01*
X91617589Y-61981784D02*
X91617589Y-61517498D01*
X110459071Y-77756016D02*
X110887643Y-77756016D01*
X110673357Y-78506016D02*
X110673357Y-77756016D01*
X111137643Y-78506016D02*
X111137643Y-77756016D01*
X111137643Y-77756016D02*
X111423357Y-77756016D01*
X111423357Y-77756016D02*
X111494786Y-77791730D01*
X111494786Y-77791730D02*
X111530500Y-77827444D01*
X111530500Y-77827444D02*
X111566214Y-77898873D01*
X111566214Y-77898873D02*
X111566214Y-78006016D01*
X111566214Y-78006016D02*
X111530500Y-78077444D01*
X111530500Y-78077444D02*
X111494786Y-78113159D01*
X111494786Y-78113159D02*
X111423357Y-78148873D01*
X111423357Y-78148873D02*
X111137643Y-78148873D01*
X111851929Y-77827444D02*
X111887643Y-77791730D01*
X111887643Y-77791730D02*
X111959072Y-77756016D01*
X111959072Y-77756016D02*
X112137643Y-77756016D01*
X112137643Y-77756016D02*
X112209072Y-77791730D01*
X112209072Y-77791730D02*
X112244786Y-77827444D01*
X112244786Y-77827444D02*
X112280500Y-77898873D01*
X112280500Y-77898873D02*
X112280500Y-77970302D01*
X112280500Y-77970302D02*
X112244786Y-78077444D01*
X112244786Y-78077444D02*
X111816214Y-78506016D01*
X111816214Y-78506016D02*
X112280500Y-78506016D01*
D10*
X110982167Y-48801127D02*
X111125024Y-48848746D01*
X111125024Y-48848746D02*
X111363119Y-48848746D01*
X111363119Y-48848746D02*
X111458357Y-48801127D01*
X111458357Y-48801127D02*
X111505976Y-48753507D01*
X111505976Y-48753507D02*
X111553595Y-48658269D01*
X111553595Y-48658269D02*
X111553595Y-48563031D01*
X111553595Y-48563031D02*
X111505976Y-48467793D01*
X111505976Y-48467793D02*
X111458357Y-48420174D01*
X111458357Y-48420174D02*
X111363119Y-48372555D01*
X111363119Y-48372555D02*
X111172643Y-48324936D01*
X111172643Y-48324936D02*
X111077405Y-48277317D01*
X111077405Y-48277317D02*
X111029786Y-48229698D01*
X111029786Y-48229698D02*
X110982167Y-48134460D01*
X110982167Y-48134460D02*
X110982167Y-48039222D01*
X110982167Y-48039222D02*
X111029786Y-47943984D01*
X111029786Y-47943984D02*
X111077405Y-47896365D01*
X111077405Y-47896365D02*
X111172643Y-47848746D01*
X111172643Y-47848746D02*
X111410738Y-47848746D01*
X111410738Y-47848746D02*
X111553595Y-47896365D01*
X111886929Y-47848746D02*
X112125024Y-48848746D01*
X112125024Y-48848746D02*
X112315500Y-48134460D01*
X112315500Y-48134460D02*
X112505976Y-48848746D01*
X112505976Y-48848746D02*
X112744072Y-47848746D01*
X113648833Y-48848746D02*
X113077405Y-48848746D01*
X113363119Y-48848746D02*
X113363119Y-47848746D01*
X113363119Y-47848746D02*
X113267881Y-47991603D01*
X113267881Y-47991603D02*
X113172643Y-48086841D01*
X113172643Y-48086841D02*
X113077405Y-48134460D01*
D13*
X112736702Y-50172386D02*
X112927178Y-50172386D01*
X112927178Y-50172386D02*
X113022416Y-50220005D01*
X113022416Y-50220005D02*
X113117654Y-50315243D01*
X113117654Y-50315243D02*
X113165273Y-50505719D01*
X113165273Y-50505719D02*
X113165273Y-50839052D01*
X113165273Y-50839052D02*
X113117654Y-51029528D01*
X113117654Y-51029528D02*
X113022416Y-51124767D01*
X113022416Y-51124767D02*
X112927178Y-51172386D01*
X112927178Y-51172386D02*
X112736702Y-51172386D01*
X112736702Y-51172386D02*
X112641464Y-51124767D01*
X112641464Y-51124767D02*
X112546226Y-51029528D01*
X112546226Y-51029528D02*
X112498607Y-50839052D01*
X112498607Y-50839052D02*
X112498607Y-50505719D01*
X112498607Y-50505719D02*
X112546226Y-50315243D01*
X112546226Y-50315243D02*
X112641464Y-50220005D01*
X112641464Y-50220005D02*
X112736702Y-50172386D01*
X113593845Y-51172386D02*
X113593845Y-50172386D01*
X113593845Y-50172386D02*
X114165273Y-51172386D01*
X114165273Y-51172386D02*
X114165273Y-50172386D01*
X112736702Y-51442386D02*
X112927178Y-51442386D01*
X112927178Y-51442386D02*
X113022416Y-51490005D01*
X113022416Y-51490005D02*
X113117654Y-51585243D01*
X113117654Y-51585243D02*
X113165273Y-51775719D01*
X113165273Y-51775719D02*
X113165273Y-52109052D01*
X113165273Y-52109052D02*
X113117654Y-52299528D01*
X113117654Y-52299528D02*
X113022416Y-52394767D01*
X113022416Y-52394767D02*
X112927178Y-52442386D01*
X112927178Y-52442386D02*
X112736702Y-52442386D01*
X112736702Y-52442386D02*
X112641464Y-52394767D01*
X112641464Y-52394767D02*
X112546226Y-52299528D01*
X112546226Y-52299528D02*
X112498607Y-52109052D01*
X112498607Y-52109052D02*
X112498607Y-51775719D01*
X112498607Y-51775719D02*
X112546226Y-51585243D01*
X112546226Y-51585243D02*
X112641464Y-51490005D01*
X112641464Y-51490005D02*
X112736702Y-51442386D01*
X113593845Y-52442386D02*
X113593845Y-51442386D01*
X113593845Y-51442386D02*
X114165273Y-52442386D01*
X114165273Y-52442386D02*
X114165273Y-51442386D01*
X112736702Y-52712386D02*
X112927178Y-52712386D01*
X112927178Y-52712386D02*
X113022416Y-52760005D01*
X113022416Y-52760005D02*
X113117654Y-52855243D01*
X113117654Y-52855243D02*
X113165273Y-53045719D01*
X113165273Y-53045719D02*
X113165273Y-53379052D01*
X113165273Y-53379052D02*
X113117654Y-53569528D01*
X113117654Y-53569528D02*
X113022416Y-53664767D01*
X113022416Y-53664767D02*
X112927178Y-53712386D01*
X112927178Y-53712386D02*
X112736702Y-53712386D01*
X112736702Y-53712386D02*
X112641464Y-53664767D01*
X112641464Y-53664767D02*
X112546226Y-53569528D01*
X112546226Y-53569528D02*
X112498607Y-53379052D01*
X112498607Y-53379052D02*
X112498607Y-53045719D01*
X112498607Y-53045719D02*
X112546226Y-52855243D01*
X112546226Y-52855243D02*
X112641464Y-52760005D01*
X112641464Y-52760005D02*
X112736702Y-52712386D01*
X113593845Y-53712386D02*
X113593845Y-52712386D01*
X113593845Y-52712386D02*
X114165273Y-53712386D01*
X114165273Y-53712386D02*
X114165273Y-52712386D01*
X112736702Y-53982386D02*
X112927178Y-53982386D01*
X112927178Y-53982386D02*
X113022416Y-54030005D01*
X113022416Y-54030005D02*
X113117654Y-54125243D01*
X113117654Y-54125243D02*
X113165273Y-54315719D01*
X113165273Y-54315719D02*
X113165273Y-54649052D01*
X113165273Y-54649052D02*
X113117654Y-54839528D01*
X113117654Y-54839528D02*
X113022416Y-54934767D01*
X113022416Y-54934767D02*
X112927178Y-54982386D01*
X112927178Y-54982386D02*
X112736702Y-54982386D01*
X112736702Y-54982386D02*
X112641464Y-54934767D01*
X112641464Y-54934767D02*
X112546226Y-54839528D01*
X112546226Y-54839528D02*
X112498607Y-54649052D01*
X112498607Y-54649052D02*
X112498607Y-54315719D01*
X112498607Y-54315719D02*
X112546226Y-54125243D01*
X112546226Y-54125243D02*
X112641464Y-54030005D01*
X112641464Y-54030005D02*
X112736702Y-53982386D01*
X113593845Y-54982386D02*
X113593845Y-53982386D01*
X113593845Y-53982386D02*
X114165273Y-54982386D01*
X114165273Y-54982386D02*
X114165273Y-53982386D01*
X112736702Y-55252386D02*
X112927178Y-55252386D01*
X112927178Y-55252386D02*
X113022416Y-55300005D01*
X113022416Y-55300005D02*
X113117654Y-55395243D01*
X113117654Y-55395243D02*
X113165273Y-55585719D01*
X113165273Y-55585719D02*
X113165273Y-55919052D01*
X113165273Y-55919052D02*
X113117654Y-56109528D01*
X113117654Y-56109528D02*
X113022416Y-56204767D01*
X113022416Y-56204767D02*
X112927178Y-56252386D01*
X112927178Y-56252386D02*
X112736702Y-56252386D01*
X112736702Y-56252386D02*
X112641464Y-56204767D01*
X112641464Y-56204767D02*
X112546226Y-56109528D01*
X112546226Y-56109528D02*
X112498607Y-55919052D01*
X112498607Y-55919052D02*
X112498607Y-55585719D01*
X112498607Y-55585719D02*
X112546226Y-55395243D01*
X112546226Y-55395243D02*
X112641464Y-55300005D01*
X112641464Y-55300005D02*
X112736702Y-55252386D01*
X113593845Y-56252386D02*
X113593845Y-55252386D01*
X113593845Y-55252386D02*
X114165273Y-56252386D01*
X114165273Y-56252386D02*
X114165273Y-55252386D01*
X112736702Y-56522386D02*
X112927178Y-56522386D01*
X112927178Y-56522386D02*
X113022416Y-56570005D01*
X113022416Y-56570005D02*
X113117654Y-56665243D01*
X113117654Y-56665243D02*
X113165273Y-56855719D01*
X113165273Y-56855719D02*
X113165273Y-57189052D01*
X113165273Y-57189052D02*
X113117654Y-57379528D01*
X113117654Y-57379528D02*
X113022416Y-57474767D01*
X113022416Y-57474767D02*
X112927178Y-57522386D01*
X112927178Y-57522386D02*
X112736702Y-57522386D01*
X112736702Y-57522386D02*
X112641464Y-57474767D01*
X112641464Y-57474767D02*
X112546226Y-57379528D01*
X112546226Y-57379528D02*
X112498607Y-57189052D01*
X112498607Y-57189052D02*
X112498607Y-56855719D01*
X112498607Y-56855719D02*
X112546226Y-56665243D01*
X112546226Y-56665243D02*
X112641464Y-56570005D01*
X112641464Y-56570005D02*
X112736702Y-56522386D01*
X113593845Y-57522386D02*
X113593845Y-56522386D01*
X113593845Y-56522386D02*
X114165273Y-57522386D01*
X114165273Y-57522386D02*
X114165273Y-56522386D01*
D10*
X107160319Y-78829121D02*
X107969842Y-78829121D01*
X107969842Y-78829121D02*
X108065080Y-78781502D01*
X108065080Y-78781502D02*
X108112700Y-78733883D01*
X108112700Y-78733883D02*
X108160319Y-78638645D01*
X108160319Y-78638645D02*
X108160319Y-78448169D01*
X108160319Y-78448169D02*
X108112700Y-78352931D01*
X108112700Y-78352931D02*
X108065080Y-78305312D01*
X108065080Y-78305312D02*
X107969842Y-78257693D01*
X107969842Y-78257693D02*
X107160319Y-78257693D01*
X107160319Y-77876740D02*
X107160319Y-77257693D01*
X107160319Y-77257693D02*
X107541271Y-77591026D01*
X107541271Y-77591026D02*
X107541271Y-77448169D01*
X107541271Y-77448169D02*
X107588890Y-77352931D01*
X107588890Y-77352931D02*
X107636509Y-77305312D01*
X107636509Y-77305312D02*
X107731747Y-77257693D01*
X107731747Y-77257693D02*
X107969842Y-77257693D01*
X107969842Y-77257693D02*
X108065080Y-77305312D01*
X108065080Y-77305312D02*
X108112700Y-77352931D01*
X108112700Y-77352931D02*
X108160319Y-77448169D01*
X108160319Y-77448169D02*
X108160319Y-77733883D01*
X108160319Y-77733883D02*
X108112700Y-77829121D01*
X108112700Y-77829121D02*
X108065080Y-77876740D01*
X110743595Y-64018746D02*
X111315023Y-64018746D01*
X111029309Y-65018746D02*
X111029309Y-64018746D01*
X111648357Y-65018746D02*
X111648357Y-64018746D01*
X111648357Y-64018746D02*
X112029309Y-64018746D01*
X112029309Y-64018746D02*
X112124547Y-64066365D01*
X112124547Y-64066365D02*
X112172166Y-64113984D01*
X112172166Y-64113984D02*
X112219785Y-64209222D01*
X112219785Y-64209222D02*
X112219785Y-64352079D01*
X112219785Y-64352079D02*
X112172166Y-64447317D01*
X112172166Y-64447317D02*
X112124547Y-64494936D01*
X112124547Y-64494936D02*
X112029309Y-64542555D01*
X112029309Y-64542555D02*
X111648357Y-64542555D01*
X112553119Y-64018746D02*
X113219785Y-64018746D01*
X113219785Y-64018746D02*
X112791214Y-65018746D01*
D12*
X110147589Y-67678927D02*
X109790446Y-67928927D01*
X110147589Y-68107498D02*
X109397589Y-68107498D01*
X109397589Y-68107498D02*
X109397589Y-67821784D01*
X109397589Y-67821784D02*
X109433303Y-67750355D01*
X109433303Y-67750355D02*
X109469017Y-67714641D01*
X109469017Y-67714641D02*
X109540446Y-67678927D01*
X109540446Y-67678927D02*
X109647589Y-67678927D01*
X109647589Y-67678927D02*
X109719017Y-67714641D01*
X109719017Y-67714641D02*
X109754732Y-67750355D01*
X109754732Y-67750355D02*
X109790446Y-67821784D01*
X109790446Y-67821784D02*
X109790446Y-68107498D01*
X109397589Y-67036070D02*
X109397589Y-67178927D01*
X109397589Y-67178927D02*
X109433303Y-67250355D01*
X109433303Y-67250355D02*
X109469017Y-67286070D01*
X109469017Y-67286070D02*
X109576160Y-67357498D01*
X109576160Y-67357498D02*
X109719017Y-67393212D01*
X109719017Y-67393212D02*
X110004732Y-67393212D01*
X110004732Y-67393212D02*
X110076160Y-67357498D01*
X110076160Y-67357498D02*
X110111875Y-67321784D01*
X110111875Y-67321784D02*
X110147589Y-67250355D01*
X110147589Y-67250355D02*
X110147589Y-67107498D01*
X110147589Y-67107498D02*
X110111875Y-67036070D01*
X110111875Y-67036070D02*
X110076160Y-67000355D01*
X110076160Y-67000355D02*
X110004732Y-66964641D01*
X110004732Y-66964641D02*
X109826160Y-66964641D01*
X109826160Y-66964641D02*
X109754732Y-67000355D01*
X109754732Y-67000355D02*
X109719017Y-67036070D01*
X109719017Y-67036070D02*
X109683303Y-67107498D01*
X109683303Y-67107498D02*
X109683303Y-67250355D01*
X109683303Y-67250355D02*
X109719017Y-67321784D01*
X109719017Y-67321784D02*
X109754732Y-67357498D01*
X109754732Y-67357498D02*
X109826160Y-67393212D01*
X94976160Y-57688927D02*
X95011875Y-57724641D01*
X95011875Y-57724641D02*
X95047589Y-57831784D01*
X95047589Y-57831784D02*
X95047589Y-57903212D01*
X95047589Y-57903212D02*
X95011875Y-58010355D01*
X95011875Y-58010355D02*
X94940446Y-58081784D01*
X94940446Y-58081784D02*
X94869017Y-58117498D01*
X94869017Y-58117498D02*
X94726160Y-58153212D01*
X94726160Y-58153212D02*
X94619017Y-58153212D01*
X94619017Y-58153212D02*
X94476160Y-58117498D01*
X94476160Y-58117498D02*
X94404732Y-58081784D01*
X94404732Y-58081784D02*
X94333303Y-58010355D01*
X94333303Y-58010355D02*
X94297589Y-57903212D01*
X94297589Y-57903212D02*
X94297589Y-57831784D01*
X94297589Y-57831784D02*
X94333303Y-57724641D01*
X94333303Y-57724641D02*
X94369017Y-57688927D01*
X94369017Y-57403212D02*
X94333303Y-57367498D01*
X94333303Y-57367498D02*
X94297589Y-57296070D01*
X94297589Y-57296070D02*
X94297589Y-57117498D01*
X94297589Y-57117498D02*
X94333303Y-57046070D01*
X94333303Y-57046070D02*
X94369017Y-57010355D01*
X94369017Y-57010355D02*
X94440446Y-56974641D01*
X94440446Y-56974641D02*
X94511875Y-56974641D01*
X94511875Y-56974641D02*
X94619017Y-57010355D01*
X94619017Y-57010355D02*
X95047589Y-57438927D01*
X95047589Y-57438927D02*
X95047589Y-56974641D01*
X94080499Y-62506016D02*
X93830499Y-62148873D01*
X93651928Y-62506016D02*
X93651928Y-61756016D01*
X93651928Y-61756016D02*
X93937642Y-61756016D01*
X93937642Y-61756016D02*
X94009071Y-61791730D01*
X94009071Y-61791730D02*
X94044785Y-61827444D01*
X94044785Y-61827444D02*
X94080499Y-61898873D01*
X94080499Y-61898873D02*
X94080499Y-62006016D01*
X94080499Y-62006016D02*
X94044785Y-62077444D01*
X94044785Y-62077444D02*
X94009071Y-62113159D01*
X94009071Y-62113159D02*
X93937642Y-62148873D01*
X93937642Y-62148873D02*
X93651928Y-62148873D01*
X94437642Y-62506016D02*
X94580499Y-62506016D01*
X94580499Y-62506016D02*
X94651928Y-62470302D01*
X94651928Y-62470302D02*
X94687642Y-62434587D01*
X94687642Y-62434587D02*
X94759071Y-62327444D01*
X94759071Y-62327444D02*
X94794785Y-62184587D01*
X94794785Y-62184587D02*
X94794785Y-61898873D01*
X94794785Y-61898873D02*
X94759071Y-61827444D01*
X94759071Y-61827444D02*
X94723357Y-61791730D01*
X94723357Y-61791730D02*
X94651928Y-61756016D01*
X94651928Y-61756016D02*
X94509071Y-61756016D01*
X94509071Y-61756016D02*
X94437642Y-61791730D01*
X94437642Y-61791730D02*
X94401928Y-61827444D01*
X94401928Y-61827444D02*
X94366214Y-61898873D01*
X94366214Y-61898873D02*
X94366214Y-62077444D01*
X94366214Y-62077444D02*
X94401928Y-62148873D01*
X94401928Y-62148873D02*
X94437642Y-62184587D01*
X94437642Y-62184587D02*
X94509071Y-62220302D01*
X94509071Y-62220302D02*
X94651928Y-62220302D01*
X94651928Y-62220302D02*
X94723357Y-62184587D01*
X94723357Y-62184587D02*
X94759071Y-62148873D01*
X94759071Y-62148873D02*
X94794785Y-62077444D01*
X100480499Y-63534587D02*
X100444785Y-63570302D01*
X100444785Y-63570302D02*
X100337642Y-63606016D01*
X100337642Y-63606016D02*
X100266214Y-63606016D01*
X100266214Y-63606016D02*
X100159071Y-63570302D01*
X100159071Y-63570302D02*
X100087642Y-63498873D01*
X100087642Y-63498873D02*
X100051928Y-63427444D01*
X100051928Y-63427444D02*
X100016214Y-63284587D01*
X100016214Y-63284587D02*
X100016214Y-63177444D01*
X100016214Y-63177444D02*
X100051928Y-63034587D01*
X100051928Y-63034587D02*
X100087642Y-62963159D01*
X100087642Y-62963159D02*
X100159071Y-62891730D01*
X100159071Y-62891730D02*
X100266214Y-62856016D01*
X100266214Y-62856016D02*
X100337642Y-62856016D01*
X100337642Y-62856016D02*
X100444785Y-62891730D01*
X100444785Y-62891730D02*
X100480499Y-62927444D01*
X101123357Y-63106016D02*
X101123357Y-63606016D01*
X100944785Y-62820302D02*
X100766214Y-63356016D01*
X100766214Y-63356016D02*
X101230499Y-63356016D01*
X105276160Y-61988927D02*
X105311875Y-62024641D01*
X105311875Y-62024641D02*
X105347589Y-62131784D01*
X105347589Y-62131784D02*
X105347589Y-62203212D01*
X105347589Y-62203212D02*
X105311875Y-62310355D01*
X105311875Y-62310355D02*
X105240446Y-62381784D01*
X105240446Y-62381784D02*
X105169017Y-62417498D01*
X105169017Y-62417498D02*
X105026160Y-62453212D01*
X105026160Y-62453212D02*
X104919017Y-62453212D01*
X104919017Y-62453212D02*
X104776160Y-62417498D01*
X104776160Y-62417498D02*
X104704732Y-62381784D01*
X104704732Y-62381784D02*
X104633303Y-62310355D01*
X104633303Y-62310355D02*
X104597589Y-62203212D01*
X104597589Y-62203212D02*
X104597589Y-62131784D01*
X104597589Y-62131784D02*
X104633303Y-62024641D01*
X104633303Y-62024641D02*
X104669017Y-61988927D01*
X104597589Y-61738927D02*
X104597589Y-61274641D01*
X104597589Y-61274641D02*
X104883303Y-61524641D01*
X104883303Y-61524641D02*
X104883303Y-61417498D01*
X104883303Y-61417498D02*
X104919017Y-61346070D01*
X104919017Y-61346070D02*
X104954732Y-61310355D01*
X104954732Y-61310355D02*
X105026160Y-61274641D01*
X105026160Y-61274641D02*
X105204732Y-61274641D01*
X105204732Y-61274641D02*
X105276160Y-61310355D01*
X105276160Y-61310355D02*
X105311875Y-61346070D01*
X105311875Y-61346070D02*
X105347589Y-61417498D01*
X105347589Y-61417498D02*
X105347589Y-61631784D01*
X105347589Y-61631784D02*
X105311875Y-61703212D01*
X105311875Y-61703212D02*
X105276160Y-61738927D01*
X97197589Y-53235355D02*
X97804732Y-53235355D01*
X97804732Y-53235355D02*
X97876160Y-53199641D01*
X97876160Y-53199641D02*
X97911875Y-53163927D01*
X97911875Y-53163927D02*
X97947589Y-53092498D01*
X97947589Y-53092498D02*
X97947589Y-52949641D01*
X97947589Y-52949641D02*
X97911875Y-52878212D01*
X97911875Y-52878212D02*
X97876160Y-52842498D01*
X97876160Y-52842498D02*
X97804732Y-52806784D01*
X97804732Y-52806784D02*
X97197589Y-52806784D01*
X97197589Y-52092498D02*
X97197589Y-52449641D01*
X97197589Y-52449641D02*
X97554732Y-52485355D01*
X97554732Y-52485355D02*
X97519017Y-52449641D01*
X97519017Y-52449641D02*
X97483303Y-52378213D01*
X97483303Y-52378213D02*
X97483303Y-52199641D01*
X97483303Y-52199641D02*
X97519017Y-52128213D01*
X97519017Y-52128213D02*
X97554732Y-52092498D01*
X97554732Y-52092498D02*
X97626160Y-52056784D01*
X97626160Y-52056784D02*
X97804732Y-52056784D01*
X97804732Y-52056784D02*
X97876160Y-52092498D01*
X97876160Y-52092498D02*
X97911875Y-52128213D01*
X97911875Y-52128213D02*
X97947589Y-52199641D01*
X97947589Y-52199641D02*
X97947589Y-52378213D01*
X97947589Y-52378213D02*
X97911875Y-52449641D01*
X97911875Y-52449641D02*
X97876160Y-52485355D01*
X90797589Y-70074641D02*
X91547589Y-69824641D01*
X91547589Y-69824641D02*
X90797589Y-69574641D01*
X91154732Y-69074641D02*
X91190446Y-68967498D01*
X91190446Y-68967498D02*
X91226160Y-68931784D01*
X91226160Y-68931784D02*
X91297589Y-68896070D01*
X91297589Y-68896070D02*
X91404732Y-68896070D01*
X91404732Y-68896070D02*
X91476160Y-68931784D01*
X91476160Y-68931784D02*
X91511875Y-68967498D01*
X91511875Y-68967498D02*
X91547589Y-69038927D01*
X91547589Y-69038927D02*
X91547589Y-69324641D01*
X91547589Y-69324641D02*
X90797589Y-69324641D01*
X90797589Y-69324641D02*
X90797589Y-69074641D01*
X90797589Y-69074641D02*
X90833303Y-69003213D01*
X90833303Y-69003213D02*
X90869017Y-68967498D01*
X90869017Y-68967498D02*
X90940446Y-68931784D01*
X90940446Y-68931784D02*
X91011875Y-68931784D01*
X91011875Y-68931784D02*
X91083303Y-68967498D01*
X91083303Y-68967498D02*
X91119017Y-69003213D01*
X91119017Y-69003213D02*
X91154732Y-69074641D01*
X91154732Y-69074641D02*
X91154732Y-69324641D01*
X90797589Y-68574641D02*
X91404732Y-68574641D01*
X91404732Y-68574641D02*
X91476160Y-68538927D01*
X91476160Y-68538927D02*
X91511875Y-68503213D01*
X91511875Y-68503213D02*
X91547589Y-68431784D01*
X91547589Y-68431784D02*
X91547589Y-68288927D01*
X91547589Y-68288927D02*
X91511875Y-68217498D01*
X91511875Y-68217498D02*
X91476160Y-68181784D01*
X91476160Y-68181784D02*
X91404732Y-68146070D01*
X91404732Y-68146070D02*
X90797589Y-68146070D01*
X91511875Y-67824641D02*
X91547589Y-67717499D01*
X91547589Y-67717499D02*
X91547589Y-67538927D01*
X91547589Y-67538927D02*
X91511875Y-67467499D01*
X91511875Y-67467499D02*
X91476160Y-67431784D01*
X91476160Y-67431784D02*
X91404732Y-67396070D01*
X91404732Y-67396070D02*
X91333303Y-67396070D01*
X91333303Y-67396070D02*
X91261875Y-67431784D01*
X91261875Y-67431784D02*
X91226160Y-67467499D01*
X91226160Y-67467499D02*
X91190446Y-67538927D01*
X91190446Y-67538927D02*
X91154732Y-67681784D01*
X91154732Y-67681784D02*
X91119017Y-67753213D01*
X91119017Y-67753213D02*
X91083303Y-67788927D01*
X91083303Y-67788927D02*
X91011875Y-67824641D01*
X91011875Y-67824641D02*
X90940446Y-67824641D01*
X90940446Y-67824641D02*
X90869017Y-67788927D01*
X90869017Y-67788927D02*
X90833303Y-67753213D01*
X90833303Y-67753213D02*
X90797589Y-67681784D01*
X90797589Y-67681784D02*
X90797589Y-67503213D01*
X90797589Y-67503213D02*
X90833303Y-67396070D01*
X91619017Y-67253213D02*
X91619017Y-66681784D01*
X91547589Y-66146069D02*
X91547589Y-66503212D01*
X91547589Y-66503212D02*
X90797589Y-66503212D01*
X91154732Y-65896069D02*
X91154732Y-65646069D01*
X91547589Y-65538926D02*
X91547589Y-65896069D01*
X91547589Y-65896069D02*
X90797589Y-65896069D01*
X90797589Y-65896069D02*
X90797589Y-65538926D01*
X91547589Y-65217498D02*
X90797589Y-65217498D01*
X90797589Y-65217498D02*
X90797589Y-65038927D01*
X90797589Y-65038927D02*
X90833303Y-64931784D01*
X90833303Y-64931784D02*
X90904732Y-64860355D01*
X90904732Y-64860355D02*
X90976160Y-64824641D01*
X90976160Y-64824641D02*
X91119017Y-64788927D01*
X91119017Y-64788927D02*
X91226160Y-64788927D01*
X91226160Y-64788927D02*
X91369017Y-64824641D01*
X91369017Y-64824641D02*
X91440446Y-64860355D01*
X91440446Y-64860355D02*
X91511875Y-64931784D01*
X91511875Y-64931784D02*
X91547589Y-65038927D01*
X91547589Y-65038927D02*
X91547589Y-65217498D01*
X90869017Y-64503212D02*
X90833303Y-64467498D01*
X90833303Y-64467498D02*
X90797589Y-64396070D01*
X90797589Y-64396070D02*
X90797589Y-64217498D01*
X90797589Y-64217498D02*
X90833303Y-64146070D01*
X90833303Y-64146070D02*
X90869017Y-64110355D01*
X90869017Y-64110355D02*
X90940446Y-64074641D01*
X90940446Y-64074641D02*
X91011875Y-64074641D01*
X91011875Y-64074641D02*
X91119017Y-64110355D01*
X91119017Y-64110355D02*
X91547589Y-64538927D01*
X91547589Y-64538927D02*
X91547589Y-64074641D01*
D10*
X96060319Y-86997260D02*
X96774604Y-86997260D01*
X96774604Y-86997260D02*
X96917461Y-87044879D01*
X96917461Y-87044879D02*
X97012700Y-87140117D01*
X97012700Y-87140117D02*
X97060319Y-87282974D01*
X97060319Y-87282974D02*
X97060319Y-87378212D01*
X97060319Y-85997260D02*
X97060319Y-86568688D01*
X97060319Y-86282974D02*
X96060319Y-86282974D01*
X96060319Y-86282974D02*
X96203176Y-86378212D01*
X96203176Y-86378212D02*
X96298414Y-86473450D01*
X96298414Y-86473450D02*
X96346033Y-86568688D01*
D12*
X92076160Y-56788927D02*
X92111875Y-56824641D01*
X92111875Y-56824641D02*
X92147589Y-56931784D01*
X92147589Y-56931784D02*
X92147589Y-57003212D01*
X92147589Y-57003212D02*
X92111875Y-57110355D01*
X92111875Y-57110355D02*
X92040446Y-57181784D01*
X92040446Y-57181784D02*
X91969017Y-57217498D01*
X91969017Y-57217498D02*
X91826160Y-57253212D01*
X91826160Y-57253212D02*
X91719017Y-57253212D01*
X91719017Y-57253212D02*
X91576160Y-57217498D01*
X91576160Y-57217498D02*
X91504732Y-57181784D01*
X91504732Y-57181784D02*
X91433303Y-57110355D01*
X91433303Y-57110355D02*
X91397589Y-57003212D01*
X91397589Y-57003212D02*
X91397589Y-56931784D01*
X91397589Y-56931784D02*
X91433303Y-56824641D01*
X91433303Y-56824641D02*
X91469017Y-56788927D01*
X92147589Y-56074641D02*
X92147589Y-56503212D01*
X92147589Y-56288927D02*
X91397589Y-56288927D01*
X91397589Y-56288927D02*
X91504732Y-56360355D01*
X91504732Y-56360355D02*
X91576160Y-56431784D01*
X91576160Y-56431784D02*
X91611875Y-56503212D01*
X104347589Y-60588927D02*
X103990446Y-60838927D01*
X104347589Y-61017498D02*
X103597589Y-61017498D01*
X103597589Y-61017498D02*
X103597589Y-60731784D01*
X103597589Y-60731784D02*
X103633303Y-60660355D01*
X103633303Y-60660355D02*
X103669017Y-60624641D01*
X103669017Y-60624641D02*
X103740446Y-60588927D01*
X103740446Y-60588927D02*
X103847589Y-60588927D01*
X103847589Y-60588927D02*
X103919017Y-60624641D01*
X103919017Y-60624641D02*
X103954732Y-60660355D01*
X103954732Y-60660355D02*
X103990446Y-60731784D01*
X103990446Y-60731784D02*
X103990446Y-61017498D01*
X104347589Y-59874641D02*
X104347589Y-60303212D01*
X104347589Y-60088927D02*
X103597589Y-60088927D01*
X103597589Y-60088927D02*
X103704732Y-60160355D01*
X103704732Y-60160355D02*
X103776160Y-60231784D01*
X103776160Y-60231784D02*
X103811875Y-60303212D01*
X103034071Y-63056016D02*
X103034071Y-63663159D01*
X103034071Y-63663159D02*
X103069785Y-63734587D01*
X103069785Y-63734587D02*
X103105500Y-63770302D01*
X103105500Y-63770302D02*
X103176928Y-63806016D01*
X103176928Y-63806016D02*
X103319785Y-63806016D01*
X103319785Y-63806016D02*
X103391214Y-63770302D01*
X103391214Y-63770302D02*
X103426928Y-63734587D01*
X103426928Y-63734587D02*
X103462642Y-63663159D01*
X103462642Y-63663159D02*
X103462642Y-63056016D01*
X104212642Y-63806016D02*
X103784071Y-63806016D01*
X103998356Y-63806016D02*
X103998356Y-63056016D01*
X103998356Y-63056016D02*
X103926928Y-63163159D01*
X103926928Y-63163159D02*
X103855499Y-63234587D01*
X103855499Y-63234587D02*
X103784071Y-63270302D01*
X99141213Y-68406016D02*
X99141213Y-67656016D01*
X99141213Y-68013159D02*
X99569784Y-68013159D01*
X99569784Y-68406016D02*
X99569784Y-67656016D01*
X99926927Y-68406016D02*
X99926927Y-67656016D01*
X99926927Y-67656016D02*
X100105498Y-67656016D01*
X100105498Y-67656016D02*
X100212641Y-67691730D01*
X100212641Y-67691730D02*
X100284070Y-67763159D01*
X100284070Y-67763159D02*
X100319784Y-67834587D01*
X100319784Y-67834587D02*
X100355498Y-67977444D01*
X100355498Y-67977444D02*
X100355498Y-68084587D01*
X100355498Y-68084587D02*
X100319784Y-68227444D01*
X100319784Y-68227444D02*
X100284070Y-68298873D01*
X100284070Y-68298873D02*
X100212641Y-68370302D01*
X100212641Y-68370302D02*
X100105498Y-68406016D01*
X100105498Y-68406016D02*
X99926927Y-68406016D01*
X100605498Y-67656016D02*
X101069784Y-67656016D01*
X101069784Y-67656016D02*
X100819784Y-67941730D01*
X100819784Y-67941730D02*
X100926927Y-67941730D01*
X100926927Y-67941730D02*
X100998356Y-67977444D01*
X100998356Y-67977444D02*
X101034070Y-68013159D01*
X101034070Y-68013159D02*
X101069784Y-68084587D01*
X101069784Y-68084587D02*
X101069784Y-68263159D01*
X101069784Y-68263159D02*
X101034070Y-68334587D01*
X101034070Y-68334587D02*
X100998356Y-68370302D01*
X100998356Y-68370302D02*
X100926927Y-68406016D01*
X100926927Y-68406016D02*
X100712641Y-68406016D01*
X100712641Y-68406016D02*
X100641213Y-68370302D01*
X100641213Y-68370302D02*
X100605498Y-68334587D01*
X101355499Y-68370302D02*
X101462642Y-68406016D01*
X101462642Y-68406016D02*
X101641213Y-68406016D01*
X101641213Y-68406016D02*
X101712642Y-68370302D01*
X101712642Y-68370302D02*
X101748356Y-68334587D01*
X101748356Y-68334587D02*
X101784070Y-68263159D01*
X101784070Y-68263159D02*
X101784070Y-68191730D01*
X101784070Y-68191730D02*
X101748356Y-68120302D01*
X101748356Y-68120302D02*
X101712642Y-68084587D01*
X101712642Y-68084587D02*
X101641213Y-68048873D01*
X101641213Y-68048873D02*
X101498356Y-68013159D01*
X101498356Y-68013159D02*
X101426927Y-67977444D01*
X101426927Y-67977444D02*
X101391213Y-67941730D01*
X101391213Y-67941730D02*
X101355499Y-67870302D01*
X101355499Y-67870302D02*
X101355499Y-67798873D01*
X101355499Y-67798873D02*
X101391213Y-67727444D01*
X101391213Y-67727444D02*
X101426927Y-67691730D01*
X101426927Y-67691730D02*
X101498356Y-67656016D01*
X101498356Y-67656016D02*
X101676927Y-67656016D01*
X101676927Y-67656016D02*
X101784070Y-67691730D01*
X102069785Y-68370302D02*
X102176928Y-68406016D01*
X102176928Y-68406016D02*
X102355499Y-68406016D01*
X102355499Y-68406016D02*
X102426928Y-68370302D01*
X102426928Y-68370302D02*
X102462642Y-68334587D01*
X102462642Y-68334587D02*
X102498356Y-68263159D01*
X102498356Y-68263159D02*
X102498356Y-68191730D01*
X102498356Y-68191730D02*
X102462642Y-68120302D01*
X102462642Y-68120302D02*
X102426928Y-68084587D01*
X102426928Y-68084587D02*
X102355499Y-68048873D01*
X102355499Y-68048873D02*
X102212642Y-68013159D01*
X102212642Y-68013159D02*
X102141213Y-67977444D01*
X102141213Y-67977444D02*
X102105499Y-67941730D01*
X102105499Y-67941730D02*
X102069785Y-67870302D01*
X102069785Y-67870302D02*
X102069785Y-67798873D01*
X102069785Y-67798873D02*
X102105499Y-67727444D01*
X102105499Y-67727444D02*
X102141213Y-67691730D01*
X102141213Y-67691730D02*
X102212642Y-67656016D01*
X102212642Y-67656016D02*
X102391213Y-67656016D01*
X102391213Y-67656016D02*
X102498356Y-67691730D01*
X102748356Y-67656016D02*
X103212642Y-67656016D01*
X103212642Y-67656016D02*
X102962642Y-67941730D01*
X102962642Y-67941730D02*
X103069785Y-67941730D01*
X103069785Y-67941730D02*
X103141214Y-67977444D01*
X103141214Y-67977444D02*
X103176928Y-68013159D01*
X103176928Y-68013159D02*
X103212642Y-68084587D01*
X103212642Y-68084587D02*
X103212642Y-68263159D01*
X103212642Y-68263159D02*
X103176928Y-68334587D01*
X103176928Y-68334587D02*
X103141214Y-68370302D01*
X103141214Y-68370302D02*
X103069785Y-68406016D01*
X103069785Y-68406016D02*
X102855499Y-68406016D01*
X102855499Y-68406016D02*
X102784071Y-68370302D01*
X102784071Y-68370302D02*
X102748356Y-68334587D01*
X103498357Y-67727444D02*
X103534071Y-67691730D01*
X103534071Y-67691730D02*
X103605500Y-67656016D01*
X103605500Y-67656016D02*
X103784071Y-67656016D01*
X103784071Y-67656016D02*
X103855500Y-67691730D01*
X103855500Y-67691730D02*
X103891214Y-67727444D01*
X103891214Y-67727444D02*
X103926928Y-67798873D01*
X103926928Y-67798873D02*
X103926928Y-67870302D01*
X103926928Y-67870302D02*
X103891214Y-67977444D01*
X103891214Y-67977444D02*
X103462642Y-68406016D01*
X103462642Y-68406016D02*
X103926928Y-68406016D01*
X104212643Y-67727444D02*
X104248357Y-67691730D01*
X104248357Y-67691730D02*
X104319786Y-67656016D01*
X104319786Y-67656016D02*
X104498357Y-67656016D01*
X104498357Y-67656016D02*
X104569786Y-67691730D01*
X104569786Y-67691730D02*
X104605500Y-67727444D01*
X104605500Y-67727444D02*
X104641214Y-67798873D01*
X104641214Y-67798873D02*
X104641214Y-67870302D01*
X104641214Y-67870302D02*
X104605500Y-67977444D01*
X104605500Y-67977444D02*
X104176928Y-68406016D01*
X104176928Y-68406016D02*
X104641214Y-68406016D01*
X105105500Y-67656016D02*
X105176929Y-67656016D01*
X105176929Y-67656016D02*
X105248357Y-67691730D01*
X105248357Y-67691730D02*
X105284072Y-67727444D01*
X105284072Y-67727444D02*
X105319786Y-67798873D01*
X105319786Y-67798873D02*
X105355500Y-67941730D01*
X105355500Y-67941730D02*
X105355500Y-68120302D01*
X105355500Y-68120302D02*
X105319786Y-68263159D01*
X105319786Y-68263159D02*
X105284072Y-68334587D01*
X105284072Y-68334587D02*
X105248357Y-68370302D01*
X105248357Y-68370302D02*
X105176929Y-68406016D01*
X105176929Y-68406016D02*
X105105500Y-68406016D01*
X105105500Y-68406016D02*
X105034072Y-68370302D01*
X105034072Y-68370302D02*
X104998357Y-68334587D01*
X104998357Y-68334587D02*
X104962643Y-68263159D01*
X104962643Y-68263159D02*
X104926929Y-68120302D01*
X104926929Y-68120302D02*
X104926929Y-67941730D01*
X104926929Y-67941730D02*
X104962643Y-67798873D01*
X104962643Y-67798873D02*
X104998357Y-67727444D01*
X104998357Y-67727444D02*
X105034072Y-67691730D01*
X105034072Y-67691730D02*
X105105500Y-67656016D01*
X106105500Y-68406016D02*
X105855500Y-68048873D01*
X105676929Y-68406016D02*
X105676929Y-67656016D01*
X105676929Y-67656016D02*
X105962643Y-67656016D01*
X105962643Y-67656016D02*
X106034072Y-67691730D01*
X106034072Y-67691730D02*
X106069786Y-67727444D01*
X106069786Y-67727444D02*
X106105500Y-67798873D01*
X106105500Y-67798873D02*
X106105500Y-67906016D01*
X106105500Y-67906016D02*
X106069786Y-67977444D01*
X106069786Y-67977444D02*
X106034072Y-68013159D01*
X106034072Y-68013159D02*
X105962643Y-68048873D01*
X105962643Y-68048873D02*
X105676929Y-68048873D01*
X94080499Y-64506016D02*
X93830499Y-64148873D01*
X93651928Y-64506016D02*
X93651928Y-63756016D01*
X93651928Y-63756016D02*
X93937642Y-63756016D01*
X93937642Y-63756016D02*
X94009071Y-63791730D01*
X94009071Y-63791730D02*
X94044785Y-63827444D01*
X94044785Y-63827444D02*
X94080499Y-63898873D01*
X94080499Y-63898873D02*
X94080499Y-64006016D01*
X94080499Y-64006016D02*
X94044785Y-64077444D01*
X94044785Y-64077444D02*
X94009071Y-64113159D01*
X94009071Y-64113159D02*
X93937642Y-64148873D01*
X93937642Y-64148873D02*
X93651928Y-64148873D01*
X94366214Y-63827444D02*
X94401928Y-63791730D01*
X94401928Y-63791730D02*
X94473357Y-63756016D01*
X94473357Y-63756016D02*
X94651928Y-63756016D01*
X94651928Y-63756016D02*
X94723357Y-63791730D01*
X94723357Y-63791730D02*
X94759071Y-63827444D01*
X94759071Y-63827444D02*
X94794785Y-63898873D01*
X94794785Y-63898873D02*
X94794785Y-63970302D01*
X94794785Y-63970302D02*
X94759071Y-64077444D01*
X94759071Y-64077444D02*
X94330499Y-64506016D01*
X94330499Y-64506016D02*
X94794785Y-64506016D01*
X114459071Y-77756016D02*
X114887643Y-77756016D01*
X114673357Y-78506016D02*
X114673357Y-77756016D01*
X115137643Y-78506016D02*
X115137643Y-77756016D01*
X115137643Y-77756016D02*
X115423357Y-77756016D01*
X115423357Y-77756016D02*
X115494786Y-77791730D01*
X115494786Y-77791730D02*
X115530500Y-77827444D01*
X115530500Y-77827444D02*
X115566214Y-77898873D01*
X115566214Y-77898873D02*
X115566214Y-78006016D01*
X115566214Y-78006016D02*
X115530500Y-78077444D01*
X115530500Y-78077444D02*
X115494786Y-78113159D01*
X115494786Y-78113159D02*
X115423357Y-78148873D01*
X115423357Y-78148873D02*
X115137643Y-78148873D01*
X116280500Y-78506016D02*
X115851929Y-78506016D01*
X116066214Y-78506016D02*
X116066214Y-77756016D01*
X116066214Y-77756016D02*
X115994786Y-77863159D01*
X115994786Y-77863159D02*
X115923357Y-77934587D01*
X115923357Y-77934587D02*
X115851929Y-77970302D01*
X106080499Y-58806016D02*
X105830499Y-58448873D01*
X105651928Y-58806016D02*
X105651928Y-58056016D01*
X105651928Y-58056016D02*
X105937642Y-58056016D01*
X105937642Y-58056016D02*
X106009071Y-58091730D01*
X106009071Y-58091730D02*
X106044785Y-58127444D01*
X106044785Y-58127444D02*
X106080499Y-58198873D01*
X106080499Y-58198873D02*
X106080499Y-58306016D01*
X106080499Y-58306016D02*
X106044785Y-58377444D01*
X106044785Y-58377444D02*
X106009071Y-58413159D01*
X106009071Y-58413159D02*
X105937642Y-58448873D01*
X105937642Y-58448873D02*
X105651928Y-58448873D01*
X106723357Y-58306016D02*
X106723357Y-58806016D01*
X106544785Y-58020302D02*
X106366214Y-58556016D01*
X106366214Y-58556016D02*
X106830499Y-58556016D01*
D10*
X100860319Y-78829121D02*
X101669842Y-78829121D01*
X101669842Y-78829121D02*
X101765080Y-78781502D01*
X101765080Y-78781502D02*
X101812700Y-78733883D01*
X101812700Y-78733883D02*
X101860319Y-78638645D01*
X101860319Y-78638645D02*
X101860319Y-78448169D01*
X101860319Y-78448169D02*
X101812700Y-78352931D01*
X101812700Y-78352931D02*
X101765080Y-78305312D01*
X101765080Y-78305312D02*
X101669842Y-78257693D01*
X101669842Y-78257693D02*
X100860319Y-78257693D01*
X100955557Y-77829121D02*
X100907938Y-77781502D01*
X100907938Y-77781502D02*
X100860319Y-77686264D01*
X100860319Y-77686264D02*
X100860319Y-77448169D01*
X100860319Y-77448169D02*
X100907938Y-77352931D01*
X100907938Y-77352931D02*
X100955557Y-77305312D01*
X100955557Y-77305312D02*
X101050795Y-77257693D01*
X101050795Y-77257693D02*
X101146033Y-77257693D01*
X101146033Y-77257693D02*
X101288890Y-77305312D01*
X101288890Y-77305312D02*
X101860319Y-77876740D01*
X101860319Y-77876740D02*
X101860319Y-77257693D01*
%TO.C,TP5*%
D14*
X113105500Y-84263927D02*
G75*
G02*
X110305500Y-84263927I-1400000J0D01*
G01*
X110305500Y-84263927D02*
G75*
G02*
X113105500Y-84263927I1400000J0D01*
G01*
%TO.C,U4*%
X99995500Y-58148927D02*
X99995500Y-57148927D01*
X102815500Y-58148927D02*
X102815500Y-57358927D01*
X102815500Y-57028927D02*
X102815500Y-56748927D01*
X103095500Y-57028927D01*
X102815500Y-57028927D01*
G36*
X103095500Y-57028927D02*
G01*
X102815500Y-57028927D01*
X102815500Y-56748927D01*
X103095500Y-57028927D01*
G37*
%TO.C,R3*%
X115649141Y-58883927D02*
X115341859Y-58883927D01*
X115649141Y-59643927D02*
X115341859Y-59643927D01*
%TO.C,R8*%
X93725500Y-66917568D02*
X93725500Y-66610286D01*
X94485500Y-66917568D02*
X94485500Y-66610286D01*
%TO.C,C5*%
X106045500Y-63877675D02*
X106045500Y-65300179D01*
X108765500Y-63877675D02*
X108765500Y-65300179D01*
%TO.C,C6*%
X98417664Y-62703927D02*
X98633336Y-62703927D01*
X98417664Y-63423927D02*
X98633336Y-63423927D01*
%TO.C,J3*%
X111085500Y-66663927D02*
X112465500Y-66663927D01*
X111085500Y-68043927D02*
X111085500Y-66663927D01*
X111085500Y-69313927D02*
X111085500Y-77043927D01*
X111085500Y-69313927D02*
X113735500Y-69313927D01*
X111085500Y-77043927D02*
X116385500Y-77043927D01*
X113735500Y-66663927D02*
X116385500Y-66663927D01*
X113735500Y-69313927D02*
X113735500Y-66663927D01*
X116385500Y-66663927D02*
X116385500Y-77043927D01*
%TO.C,R5*%
X108209141Y-54963927D02*
X107901859Y-54963927D01*
X108209141Y-55723927D02*
X107901859Y-55723927D01*
%TO.C,R7*%
X95751859Y-64883927D02*
X96059141Y-64883927D01*
X95751859Y-65643927D02*
X96059141Y-65643927D01*
%TO.C,TP6*%
X117105500Y-62263927D02*
G75*
G02*
X114305500Y-62263927I-1400000J0D01*
G01*
X114305500Y-62263927D02*
G75*
G02*
X117105500Y-62263927I1400000J0D01*
G01*
%TO.C,TP3*%
X94705500Y-60163927D02*
G75*
G02*
X91905500Y-60163927I-1400000J0D01*
G01*
X91905500Y-60163927D02*
G75*
G02*
X94705500Y-60163927I1400000J0D01*
G01*
%TO.C,TP4*%
X116705500Y-84263927D02*
G75*
G02*
X113905500Y-84263927I-1400000J0D01*
G01*
X113905500Y-84263927D02*
G75*
G02*
X116705500Y-84263927I1400000J0D01*
G01*
%TO.C,DIR_LED2*%
X91970500Y-63163927D02*
X91970500Y-65448927D01*
X91970500Y-65448927D02*
X93440500Y-65448927D01*
X93440500Y-65448927D02*
X93440500Y-63163927D01*
%TO.C,TP2*%
X113105500Y-80263927D02*
G75*
G02*
X110305500Y-80263927I-1400000J0D01*
G01*
X110305500Y-80263927D02*
G75*
G02*
X113105500Y-80263927I1400000J0D01*
G01*
%TO.C,SW1*%
D15*
X111105500Y-49263927D02*
X116505500Y-49263927D01*
X111105500Y-58463927D02*
X111105500Y-49263927D01*
X111265500Y-50053927D02*
X116345500Y-50053927D01*
X111265500Y-51323927D02*
X111265500Y-50053927D01*
X111265500Y-51323927D02*
X116345500Y-51323927D01*
X111265500Y-52593927D02*
X111265500Y-51323927D01*
X111265500Y-52593927D02*
X111265500Y-53863927D01*
X111265500Y-52593927D02*
X116345500Y-52593927D01*
X111265500Y-53863927D02*
X111265500Y-55133927D01*
X111265500Y-53863927D02*
X116345500Y-53863927D01*
X111265500Y-53863927D02*
X116345500Y-53863927D01*
X111265500Y-55133927D02*
X116345500Y-55133927D01*
X111265500Y-55133927D02*
X116345500Y-55133927D01*
X111265500Y-55133927D02*
X116345500Y-55133927D01*
X111265500Y-56403927D02*
X111265500Y-55133927D01*
X111265500Y-56403927D02*
X111265500Y-57673927D01*
X111265500Y-56403927D02*
X116345500Y-56403927D01*
X111265500Y-56403927D02*
X116345500Y-56403927D01*
X111265500Y-57673927D02*
X116345500Y-57673927D01*
X114435500Y-50693927D02*
X115075500Y-50053927D01*
X114435500Y-51323927D02*
X114435500Y-50053927D01*
X114435500Y-51323927D02*
X115705500Y-50053927D01*
X114435500Y-51953927D02*
X115075500Y-51323927D01*
X114435500Y-52593927D02*
X114435500Y-51323927D01*
X114435500Y-52593927D02*
X115705500Y-51323927D01*
X114435500Y-53233927D02*
X115075500Y-52593927D01*
X114435500Y-53863927D02*
X114435500Y-52593927D01*
X114435500Y-53863927D02*
X114435500Y-55133927D01*
X114435500Y-54493927D02*
X115075500Y-53863927D01*
X114435500Y-55133927D02*
X114435500Y-56403927D01*
X114435500Y-55133927D02*
X115705500Y-53863927D01*
X114435500Y-55773927D02*
X115075500Y-55133927D01*
X114435500Y-56403927D02*
X114435500Y-57673927D01*
X114435500Y-56403927D02*
X115705500Y-55133927D01*
X114435500Y-57043927D02*
X115075500Y-56403927D01*
X114435500Y-57673927D02*
X115705500Y-56403927D01*
X115075500Y-51323927D02*
X115705500Y-50693927D01*
X115075500Y-52593927D02*
X115705500Y-51953927D01*
X115075500Y-53863927D02*
X115705500Y-53233927D01*
X115075500Y-55133927D02*
X115705500Y-54493927D01*
X115075500Y-56403927D02*
X115705500Y-55773927D01*
X115075500Y-57673927D02*
X115705500Y-57043927D01*
X115705500Y-50053927D02*
X115705500Y-51323927D01*
X115705500Y-51323927D02*
X115705500Y-52593927D01*
X115705500Y-52593927D02*
X114435500Y-53863927D01*
X115705500Y-53863927D02*
X115705500Y-52593927D01*
X115705500Y-55133927D02*
X115705500Y-53863927D01*
X115705500Y-56403927D02*
X115705500Y-55133927D01*
X115705500Y-57673927D02*
X115705500Y-56403927D01*
X116345500Y-50053927D02*
X116345500Y-51323927D01*
X116345500Y-51323927D02*
X111265500Y-51323927D01*
X116345500Y-51323927D02*
X116345500Y-52593927D01*
X116345500Y-52593927D02*
X111265500Y-52593927D01*
X116345500Y-52593927D02*
X111265500Y-52593927D01*
X116345500Y-53863927D02*
X111265500Y-53863927D01*
X116345500Y-53863927D02*
X111265500Y-53863927D01*
X116345500Y-53863927D02*
X116345500Y-52593927D01*
X116345500Y-55133927D02*
X111265500Y-55133927D01*
X116345500Y-55133927D02*
X111265500Y-55133927D01*
X116345500Y-55133927D02*
X116345500Y-53863927D01*
X116345500Y-55133927D02*
X116345500Y-56403927D01*
X116345500Y-56403927D02*
X111265500Y-56403927D01*
X116345500Y-56403927D02*
X111265500Y-56403927D01*
X116345500Y-56403927D02*
X111265500Y-56403927D01*
X116345500Y-56403927D02*
X111265500Y-56403927D01*
X116345500Y-57673927D02*
X116345500Y-56403927D01*
X116505500Y-49263927D02*
X116505500Y-58463927D01*
X116505500Y-58463927D02*
X111105500Y-58463927D01*
D16*
X118085500Y-58463927D02*
G75*
G02*
X118025500Y-58463927I-30000J0D01*
G01*
X118025500Y-58463927D02*
G75*
G02*
X118085500Y-58463927I30000J0D01*
G01*
%TO.C,U3*%
D14*
X103795500Y-78548927D02*
X103795500Y-77548927D01*
X106615500Y-78548927D02*
X106615500Y-77758927D01*
X106615500Y-77428927D02*
X106615500Y-77148927D01*
X106895500Y-77428927D01*
X106615500Y-77428927D01*
G36*
X106895500Y-77428927D02*
G01*
X106615500Y-77428927D01*
X106615500Y-77148927D01*
X106895500Y-77428927D01*
G37*
%TO.C,TP7*%
X113405500Y-62263927D02*
G75*
G02*
X110605500Y-62263927I-1400000J0D01*
G01*
X110605500Y-62263927D02*
G75*
G02*
X113405500Y-62263927I1400000J0D01*
G01*
%TO.C,R6*%
X109425500Y-66017568D02*
X109425500Y-65710286D01*
X110185500Y-66017568D02*
X110185500Y-65710286D01*
%TO.C,C2*%
X93233336Y-57103927D02*
X93017664Y-57103927D01*
X93233336Y-57823927D02*
X93017664Y-57823927D01*
%TO.C,R9*%
X94649141Y-62783927D02*
X94341859Y-62783927D01*
X94649141Y-63543927D02*
X94341859Y-63543927D01*
%TO.C,C4*%
X98417664Y-63703927D02*
X98633336Y-63703927D01*
X98417664Y-64423927D02*
X98633336Y-64423927D01*
D17*
%TO.C,G\u002A\u002A\u002A*%
G36*
X113109463Y-42066409D02*
G01*
X113128083Y-42066608D01*
X113388642Y-42069739D01*
X113513028Y-42283937D01*
X113551623Y-42351454D01*
X113585343Y-42412455D01*
X113612199Y-42463178D01*
X113630203Y-42499858D01*
X113637368Y-42518733D01*
X113637413Y-42519388D01*
X113631258Y-42536674D01*
X113614130Y-42572035D01*
X113588039Y-42621652D01*
X113554993Y-42681709D01*
X113517002Y-42748388D01*
X113515969Y-42750171D01*
X113477136Y-42816323D01*
X113441801Y-42874932D01*
X113412218Y-42922384D01*
X113390643Y-42955062D01*
X113379333Y-42969350D01*
X113379170Y-42969461D01*
X113362184Y-42972482D01*
X113323915Y-42975143D01*
X113322458Y-42975199D01*
X113268529Y-42977288D01*
X113200194Y-42978759D01*
X113123076Y-42979401D01*
X113114047Y-42979414D01*
X113026319Y-42979218D01*
X112960640Y-42978306D01*
X112913609Y-42976422D01*
X112881829Y-42973311D01*
X112881557Y-42973248D01*
X112861900Y-42968720D01*
X112850425Y-42962394D01*
X112847545Y-42959447D01*
X112834932Y-42941008D01*
X112813092Y-42905819D01*
X112784428Y-42858046D01*
X112751341Y-42801854D01*
X112716231Y-42741411D01*
X112681500Y-42680881D01*
X112649549Y-42624431D01*
X112622779Y-42576228D01*
X112603592Y-42540437D01*
X112596983Y-42526641D01*
X112711083Y-42526641D01*
X112718440Y-42542463D01*
X112735228Y-42573927D01*
X112758646Y-42616157D01*
X112785892Y-42664277D01*
X112814166Y-42713410D01*
X112840666Y-42758681D01*
X112862591Y-42795211D01*
X112877140Y-42818125D01*
X112881557Y-42823419D01*
X112888671Y-42812013D01*
X112906235Y-42782716D01*
X112931826Y-42739596D01*
X112963025Y-42686720D01*
X112973026Y-42669716D01*
X113061673Y-42518891D01*
X112972539Y-42366945D01*
X112936719Y-42306601D01*
X112911065Y-42265723D01*
X112893339Y-42241553D01*
X112881304Y-42231330D01*
X112872722Y-42232298D01*
X112867806Y-42237810D01*
X112845423Y-42272767D01*
X112818429Y-42318208D01*
X112789596Y-42369024D01*
X112761700Y-42420101D01*
X112737512Y-42466330D01*
X112719807Y-42502598D01*
X112711359Y-42523794D01*
X112711083Y-42526641D01*
X112596983Y-42526641D01*
X112594388Y-42521224D01*
X112593926Y-42519425D01*
X112600119Y-42504643D01*
X112617081Y-42472251D01*
X112642391Y-42426405D01*
X112673629Y-42371259D01*
X112708372Y-42310968D01*
X112744199Y-42249689D01*
X112778689Y-42191577D01*
X112788460Y-42175427D01*
X112977811Y-42175427D01*
X112985487Y-42189745D01*
X113003436Y-42221553D01*
X113029099Y-42266362D01*
X113059919Y-42319681D01*
X113064768Y-42328032D01*
X113147484Y-42470389D01*
X113322458Y-42470490D01*
X113385873Y-42469974D01*
X113439039Y-42468490D01*
X113477361Y-42466246D01*
X113496245Y-42463452D01*
X113497433Y-42462512D01*
X113491382Y-42449088D01*
X113474824Y-42418076D01*
X113450152Y-42373828D01*
X113419759Y-42320695D01*
X113413450Y-42309807D01*
X113329466Y-42165180D01*
X113151518Y-42165180D01*
X113087971Y-42165865D01*
X113035065Y-42167748D01*
X112997212Y-42170569D01*
X112978822Y-42174066D01*
X112977811Y-42175427D01*
X112788460Y-42175427D01*
X112809419Y-42140786D01*
X112833969Y-42101473D01*
X112849918Y-42077792D01*
X112854095Y-42072971D01*
X112870385Y-42070249D01*
X112908094Y-42068139D01*
X112963194Y-42066733D01*
X113031660Y-42066125D01*
X113109463Y-42066409D01*
G37*
G36*
X115379100Y-42063449D02*
G01*
X115481640Y-42063737D01*
X115563604Y-42064347D01*
X115627429Y-42065385D01*
X115675553Y-42066957D01*
X115710412Y-42069170D01*
X115734443Y-42072128D01*
X115750084Y-42075939D01*
X115759773Y-42080707D01*
X115765193Y-42085646D01*
X115777571Y-42103490D01*
X115800174Y-42139462D01*
X115830593Y-42189598D01*
X115866421Y-42249931D01*
X115902370Y-42311523D01*
X116020248Y-42515130D01*
X115967759Y-42612709D01*
X115944153Y-42657389D01*
X115926052Y-42693165D01*
X115916245Y-42714460D01*
X115915269Y-42717694D01*
X115927043Y-42720969D01*
X115958561Y-42723502D01*
X116004120Y-42724923D01*
X116028781Y-42725100D01*
X116142292Y-42725100D01*
X116270564Y-42945430D01*
X116309725Y-43013401D01*
X116344061Y-43074347D01*
X116371624Y-43124701D01*
X116390469Y-43160894D01*
X116398647Y-43179357D01*
X116398836Y-43180484D01*
X116392699Y-43197476D01*
X116376307Y-43230277D01*
X116352687Y-43272985D01*
X116341572Y-43292067D01*
X116316045Y-43335805D01*
X116296378Y-43370569D01*
X116285527Y-43391084D01*
X116284307Y-43394237D01*
X116296103Y-43396537D01*
X116327776Y-43398335D01*
X116373753Y-43399382D01*
X116403227Y-43399549D01*
X116462087Y-43400399D01*
X116500902Y-43403526D01*
X116525037Y-43409795D01*
X116539860Y-43420070D01*
X116541446Y-43421818D01*
X116560957Y-43448356D01*
X116587724Y-43490271D01*
X116619438Y-43543337D01*
X116653791Y-43603325D01*
X116688477Y-43666010D01*
X116721185Y-43727163D01*
X116749609Y-43782558D01*
X116771439Y-43827967D01*
X116784369Y-43859164D01*
X116786745Y-43871077D01*
X116773691Y-43884662D01*
X116742127Y-43907861D01*
X116695903Y-43938123D01*
X116655546Y-43962731D01*
X116638866Y-43972902D01*
X116592362Y-43999819D01*
X116405199Y-44105811D01*
X116678154Y-44112174D01*
X116951110Y-44118537D01*
X117075825Y-44334731D01*
X117114273Y-44402045D01*
X117147912Y-44462209D01*
X117174790Y-44511626D01*
X117192953Y-44546697D01*
X117200450Y-44563826D01*
X117200540Y-44564499D01*
X117194280Y-44577096D01*
X117176043Y-44610277D01*
X117146642Y-44662624D01*
X117106891Y-44732716D01*
X117057605Y-44819136D01*
X116999597Y-44920465D01*
X116933680Y-45035282D01*
X116860669Y-45162171D01*
X116781377Y-45299710D01*
X116696618Y-45446483D01*
X116607206Y-45601069D01*
X116513954Y-45762049D01*
X116492527Y-45799006D01*
X116398227Y-45961524D01*
X116307267Y-46118095D01*
X116234528Y-46243145D01*
X116220486Y-46267285D01*
X116138724Y-46407660D01*
X116062819Y-46537783D01*
X115993613Y-46656221D01*
X115931942Y-46761539D01*
X115878649Y-46852302D01*
X115834570Y-46927074D01*
X115800547Y-46984422D01*
X115777418Y-47022911D01*
X115766023Y-47041106D01*
X115765204Y-47042209D01*
X115761146Y-47045650D01*
X115754345Y-47048718D01*
X115743409Y-47051435D01*
X115726945Y-47053822D01*
X115703560Y-47055899D01*
X115671862Y-47057690D01*
X115630459Y-47059214D01*
X115577957Y-47060492D01*
X115512964Y-47061547D01*
X115434087Y-47062400D01*
X115339934Y-47063071D01*
X115255409Y-47063460D01*
X115229112Y-47063581D01*
X115100229Y-47063953D01*
X114951891Y-47064208D01*
X114782706Y-47064366D01*
X114591281Y-47064448D01*
X114376224Y-47064477D01*
X114330462Y-47064478D01*
X114305500Y-47064478D01*
X114082936Y-47064462D01*
X113884431Y-47064398D01*
X113708591Y-47064265D01*
X113554025Y-47064043D01*
X113419340Y-47063709D01*
X113303142Y-47063243D01*
X113204040Y-47062624D01*
X113120642Y-47061829D01*
X113051553Y-47060838D01*
X112995383Y-47059630D01*
X112950737Y-47058184D01*
X112916225Y-47056478D01*
X112901490Y-47055341D01*
X112890453Y-47054490D01*
X112872028Y-47052200D01*
X112859559Y-47049587D01*
X112851652Y-47046629D01*
X112846915Y-47043304D01*
X112845884Y-47042209D01*
X112826370Y-47015685D01*
X112799536Y-46973863D01*
X112767706Y-46920963D01*
X112733205Y-46861202D01*
X112698361Y-46798798D01*
X112665497Y-46737969D01*
X112636939Y-46682933D01*
X112615013Y-46637909D01*
X112612389Y-46631679D01*
X112721181Y-46631679D01*
X112727301Y-46645790D01*
X112744098Y-46677513D01*
X112769232Y-46722589D01*
X112800360Y-46776763D01*
X112811336Y-46795549D01*
X112901490Y-46949235D01*
X112961336Y-46914597D01*
X112983580Y-46901766D01*
X113025628Y-46877554D01*
X113085218Y-46843262D01*
X113160086Y-46800192D01*
X113247971Y-46749646D01*
X113346610Y-46692923D01*
X113453740Y-46631327D01*
X113567100Y-46566157D01*
X113627878Y-46531220D01*
X113741217Y-46465898D01*
X113847532Y-46404290D01*
X113944844Y-46347565D01*
X114031173Y-46296894D01*
X114104539Y-46253447D01*
X114162963Y-46218393D01*
X114204465Y-46192903D01*
X114227067Y-46178146D01*
X114230723Y-46174907D01*
X114223285Y-46161658D01*
X114205593Y-46130639D01*
X114180099Y-46086135D01*
X114149253Y-46032431D01*
X114140843Y-46017810D01*
X114108648Y-45963092D01*
X114080380Y-45917359D01*
X114058645Y-45884660D01*
X114046052Y-45869047D01*
X114044581Y-45868286D01*
X114031156Y-45874442D01*
X113998252Y-45892013D01*
X113948206Y-45919650D01*
X113883351Y-45956008D01*
X113806024Y-45999739D01*
X113718559Y-46049495D01*
X113623293Y-46103931D01*
X113522559Y-46161698D01*
X113418694Y-46221450D01*
X113314033Y-46281840D01*
X113210910Y-46341520D01*
X113111662Y-46399144D01*
X113018623Y-46453364D01*
X112934129Y-46502833D01*
X112860515Y-46546205D01*
X112800117Y-46582132D01*
X112755268Y-46609266D01*
X112728306Y-46626262D01*
X112721181Y-46631679D01*
X112612389Y-46631679D01*
X112602043Y-46607115D01*
X112599669Y-46595589D01*
X112612621Y-46582160D01*
X112644039Y-46558983D01*
X112690104Y-46528602D01*
X112746997Y-46493563D01*
X112794381Y-46465814D01*
X112982053Y-46358216D01*
X112710102Y-46351853D01*
X112503661Y-46347024D01*
X112438151Y-46345491D01*
X112311918Y-46130159D01*
X112273135Y-46062696D01*
X112239574Y-46001813D01*
X112213162Y-45951212D01*
X112198258Y-45919737D01*
X112303599Y-45919737D01*
X112394679Y-46078123D01*
X112436662Y-46148832D01*
X112468518Y-46197208D01*
X112490796Y-46224018D01*
X112503661Y-46230188D01*
X112517820Y-46222806D01*
X112551936Y-46203913D01*
X112603913Y-46174699D01*
X112671652Y-46136355D01*
X112753058Y-46090074D01*
X112846032Y-46037045D01*
X112948479Y-45978461D01*
X113058300Y-45915511D01*
X113113483Y-45883827D01*
X113184840Y-45842835D01*
X114157683Y-45842835D01*
X114203179Y-45922369D01*
X114234118Y-45976720D01*
X114267370Y-46035540D01*
X114289569Y-46075075D01*
X114330462Y-46148246D01*
X114748515Y-46148246D01*
X115166568Y-46148246D01*
X115127161Y-46081437D01*
X115100071Y-46034762D01*
X115068041Y-45978507D01*
X115040214Y-45928817D01*
X114992674Y-45843005D01*
X114804261Y-45842967D01*
X114575178Y-45842920D01*
X114157683Y-45842835D01*
X113184840Y-45842835D01*
X113273613Y-45791838D01*
X115075492Y-45791838D01*
X115160195Y-45938609D01*
X115192138Y-45992419D01*
X115220196Y-46036820D01*
X115241733Y-46067848D01*
X115254116Y-46081542D01*
X115255409Y-46081818D01*
X115263366Y-46070723D01*
X115282113Y-46040960D01*
X115309674Y-45995876D01*
X115344072Y-45938820D01*
X115383330Y-45873139D01*
X115425471Y-45802182D01*
X115468517Y-45729296D01*
X115510492Y-45657830D01*
X115549418Y-45591132D01*
X115583319Y-45532549D01*
X115610217Y-45485430D01*
X115628135Y-45453122D01*
X115635097Y-45438974D01*
X115635122Y-45438802D01*
X115623229Y-45437655D01*
X115590448Y-45436692D01*
X115541345Y-45435994D01*
X115480481Y-45435645D01*
X115458469Y-45435621D01*
X115281628Y-45435621D01*
X115178560Y-45613729D01*
X115075492Y-45791838D01*
X113273613Y-45791838D01*
X113705405Y-45543787D01*
X113338201Y-45540407D01*
X112970998Y-45537026D01*
X112965971Y-45539883D01*
X112811094Y-45627897D01*
X112737699Y-45669734D01*
X112652326Y-45718600D01*
X112565007Y-45768743D01*
X112485775Y-45814408D01*
X112477395Y-45819252D01*
X112303599Y-45919737D01*
X112198258Y-45919737D01*
X112195823Y-45914594D01*
X112189482Y-45895663D01*
X112189540Y-45894814D01*
X112198163Y-45880269D01*
X112220700Y-45860173D01*
X112259222Y-45833092D01*
X112315805Y-45797592D01*
X112392522Y-45752237D01*
X112411896Y-45741032D01*
X112511211Y-45683767D01*
X112280184Y-45680303D01*
X112077795Y-45677269D01*
X112049157Y-45676840D01*
X111920690Y-45456174D01*
X111881565Y-45388491D01*
X111847242Y-45328202D01*
X111819656Y-45278782D01*
X111800745Y-45243707D01*
X111792442Y-45226452D01*
X111792223Y-45225491D01*
X111796580Y-45214507D01*
X111910747Y-45214507D01*
X111914470Y-45231151D01*
X111929173Y-45265009D01*
X111952655Y-45311524D01*
X111982713Y-45366138D01*
X111990673Y-45379965D01*
X112025387Y-45439437D01*
X112049836Y-45479628D01*
X112066484Y-45503297D01*
X112077795Y-45513203D01*
X112086232Y-45512105D01*
X112094260Y-45502760D01*
X112096875Y-45498885D01*
X112111225Y-45475914D01*
X112136245Y-45434259D01*
X112170662Y-45376126D01*
X112213203Y-45303717D01*
X112262595Y-45219239D01*
X112317566Y-45124893D01*
X112330485Y-45102662D01*
X112787628Y-45102662D01*
X112792444Y-45116965D01*
X112808139Y-45148842D01*
X112832478Y-45194051D01*
X112863230Y-45248351D01*
X112874998Y-45268554D01*
X112965971Y-45423635D01*
X113005826Y-45400297D01*
X113024465Y-45389515D01*
X113062919Y-45367377D01*
X113118922Y-45335184D01*
X113190209Y-45294237D01*
X113274514Y-45245837D01*
X113369571Y-45191285D01*
X113473115Y-45131882D01*
X113582880Y-45068929D01*
X113610383Y-45053159D01*
X113716753Y-44992166D01*
X114617785Y-44992166D01*
X114623630Y-45008252D01*
X114640022Y-45040239D01*
X114664040Y-45083275D01*
X114692764Y-45132507D01*
X114723273Y-45183084D01*
X114752647Y-45230151D01*
X114777965Y-45268857D01*
X114796306Y-45294349D01*
X114804261Y-45302004D01*
X114817162Y-45295906D01*
X114849664Y-45278503D01*
X114899423Y-45251129D01*
X114964098Y-45215118D01*
X115041344Y-45171806D01*
X115128818Y-45122527D01*
X115224179Y-45068615D01*
X115325083Y-45011405D01*
X115429187Y-44952232D01*
X115534149Y-44892430D01*
X115637624Y-44833335D01*
X115737272Y-44776279D01*
X115830747Y-44722599D01*
X115915708Y-44673629D01*
X115989812Y-44630703D01*
X116050716Y-44595156D01*
X116096077Y-44568322D01*
X116123551Y-44551537D01*
X116131093Y-44546191D01*
X116125266Y-44533979D01*
X116108902Y-44503821D01*
X116084258Y-44459772D01*
X116053585Y-44405891D01*
X116040706Y-44383487D01*
X116007695Y-44327563D01*
X115978655Y-44280882D01*
X115956082Y-44247269D01*
X115942474Y-44230547D01*
X115940136Y-44229430D01*
X115924552Y-44237429D01*
X115889755Y-44256623D01*
X115838077Y-44285666D01*
X115771850Y-44323211D01*
X115693407Y-44367915D01*
X115605081Y-44418431D01*
X115509204Y-44473415D01*
X115408108Y-44531520D01*
X115304126Y-44591402D01*
X115199590Y-44651715D01*
X115096833Y-44711113D01*
X114998187Y-44768252D01*
X114905984Y-44821786D01*
X114822558Y-44870370D01*
X114750240Y-44912658D01*
X114691363Y-44947304D01*
X114648260Y-44972965D01*
X114623263Y-44988293D01*
X114617785Y-44992166D01*
X113716753Y-44992166D01*
X114175085Y-44729358D01*
X113806338Y-44725988D01*
X113439132Y-44722631D01*
X113437591Y-44722617D01*
X113114412Y-44907234D01*
X113057974Y-44939672D01*
X113032143Y-44954518D01*
X112957349Y-44998059D01*
X112892818Y-45036190D01*
X112841336Y-45067244D01*
X112805690Y-45089555D01*
X112788668Y-45101456D01*
X112787628Y-45102662D01*
X112330485Y-45102662D01*
X112376843Y-45022886D01*
X112439154Y-44915420D01*
X112503225Y-44804701D01*
X112567784Y-44692932D01*
X112631559Y-44582317D01*
X112693277Y-44475062D01*
X112751665Y-44373369D01*
X112805451Y-44279443D01*
X112806281Y-44277988D01*
X113264260Y-44277988D01*
X113266575Y-44291612D01*
X113280007Y-44322944D01*
X113302561Y-44367875D01*
X113332243Y-44422301D01*
X113346457Y-44447179D01*
X113439132Y-44607251D01*
X113477827Y-44583936D01*
X113495861Y-44573392D01*
X113533856Y-44551426D01*
X113589683Y-44519262D01*
X113661216Y-44478120D01*
X113746326Y-44429225D01*
X113842887Y-44373798D01*
X113948770Y-44313061D01*
X114061847Y-44248238D01*
X114143250Y-44201596D01*
X114144461Y-44200901D01*
X116052621Y-44200901D01*
X116093715Y-44274248D01*
X116122052Y-44324381D01*
X116155610Y-44383115D01*
X116184668Y-44433492D01*
X116234528Y-44519388D01*
X116647544Y-44519388D01*
X116747140Y-44519106D01*
X116838064Y-44518305D01*
X116917330Y-44517053D01*
X116981954Y-44515422D01*
X117028949Y-44513478D01*
X117055331Y-44511292D01*
X117060027Y-44509844D01*
X117053700Y-44495912D01*
X117036750Y-44464478D01*
X117011600Y-44419896D01*
X116980670Y-44366516D01*
X116973291Y-44353957D01*
X116887088Y-44207615D01*
X116469855Y-44204258D01*
X116052621Y-44200901D01*
X114144461Y-44200901D01*
X114258660Y-44135372D01*
X114367193Y-44072879D01*
X114466883Y-44015264D01*
X114555765Y-43963673D01*
X114631874Y-43919252D01*
X114693245Y-43883147D01*
X114737913Y-43856504D01*
X114763912Y-43840468D01*
X114769979Y-43836094D01*
X114763964Y-43823336D01*
X114747433Y-43792674D01*
X114722654Y-43748212D01*
X114691896Y-43694052D01*
X114679018Y-43671617D01*
X114643189Y-43609833D01*
X114617368Y-43567231D01*
X114599059Y-43540822D01*
X114585765Y-43527620D01*
X114574993Y-43524638D01*
X114564245Y-43528887D01*
X114561307Y-43530705D01*
X114545551Y-43540052D01*
X114509770Y-43560840D01*
X114456038Y-43591877D01*
X114386423Y-43631974D01*
X114336820Y-43660493D01*
X114302999Y-43679939D01*
X114207836Y-43734581D01*
X114103004Y-43794709D01*
X113990576Y-43859132D01*
X113904648Y-43908331D01*
X113788566Y-43974825D01*
X113679048Y-44037663D01*
X113578096Y-44095688D01*
X113487713Y-44147745D01*
X113409902Y-44192676D01*
X113346667Y-44229327D01*
X113300009Y-44256540D01*
X113271932Y-44273160D01*
X113264260Y-44277988D01*
X112806281Y-44277988D01*
X112853361Y-44195489D01*
X112894124Y-44123710D01*
X112926467Y-44066312D01*
X112949116Y-44025497D01*
X112960799Y-44003470D01*
X112962141Y-44000269D01*
X112956354Y-43983634D01*
X112939936Y-43949749D01*
X112915268Y-43903236D01*
X112884731Y-43848718D01*
X112878164Y-43837319D01*
X112793363Y-43690833D01*
X112771323Y-43726529D01*
X112758036Y-43748728D01*
X112733927Y-43789725D01*
X112700279Y-43847298D01*
X112658376Y-43919230D01*
X112609502Y-44003300D01*
X112554939Y-44097289D01*
X112495972Y-44198977D01*
X112437590Y-44299749D01*
X112433884Y-44306146D01*
X112369959Y-44416576D01*
X112305480Y-44528047D01*
X112241731Y-44638340D01*
X112179995Y-44745236D01*
X112121557Y-44846515D01*
X112067699Y-44939957D01*
X112019706Y-45023344D01*
X111978861Y-45094456D01*
X111946447Y-45151074D01*
X111923748Y-45190978D01*
X111912048Y-45211948D01*
X111910747Y-45214507D01*
X111796580Y-45214507D01*
X111798186Y-45210458D01*
X111814011Y-45179495D01*
X111836604Y-45138577D01*
X111843125Y-45127184D01*
X111866980Y-45084501D01*
X111884846Y-45050047D01*
X111893618Y-45029883D01*
X111894027Y-45027766D01*
X111882239Y-45022538D01*
X111850626Y-45017763D01*
X111804812Y-45014155D01*
X111777273Y-45012977D01*
X111696782Y-45010454D01*
X111660520Y-45009318D01*
X111534793Y-44793155D01*
X111494338Y-44722029D01*
X111460426Y-44659308D01*
X111434743Y-44608337D01*
X111418977Y-44572461D01*
X111417588Y-44566738D01*
X111516543Y-44566738D01*
X111600300Y-44708508D01*
X111632555Y-44761426D01*
X111661090Y-44805137D01*
X111683100Y-44835562D01*
X111695781Y-44848623D01*
X111696782Y-44848827D01*
X111705708Y-44837971D01*
X111725318Y-44808227D01*
X111753721Y-44762813D01*
X111789025Y-44704951D01*
X111829342Y-44637862D01*
X111872779Y-44564767D01*
X111917446Y-44488886D01*
X111961454Y-44413440D01*
X112002911Y-44341651D01*
X112039926Y-44276738D01*
X112070609Y-44221923D01*
X112093070Y-44180427D01*
X112105417Y-44155470D01*
X112107160Y-44149704D01*
X112100032Y-44136582D01*
X112082813Y-44105729D01*
X112057972Y-44061549D01*
X112027979Y-44008447D01*
X112023300Y-44000180D01*
X111992451Y-43946801D01*
X111965699Y-43902566D01*
X111945646Y-43871631D01*
X111934895Y-43858157D01*
X111934222Y-43857899D01*
X111926060Y-43868566D01*
X111906824Y-43898708D01*
X111878084Y-43945713D01*
X111841410Y-44006967D01*
X111798371Y-44079859D01*
X111750539Y-44161774D01*
X111721192Y-44212435D01*
X111516543Y-44566738D01*
X111417588Y-44566738D01*
X111414776Y-44555156D01*
X111422280Y-44539510D01*
X111441164Y-44504453D01*
X111469980Y-44452558D01*
X111507277Y-44386394D01*
X111551606Y-44308533D01*
X111601517Y-44221544D01*
X111655560Y-44127998D01*
X111660296Y-44119830D01*
X111732283Y-43996609D01*
X111792582Y-43895376D01*
X111841487Y-43815663D01*
X111855424Y-43794038D01*
X112019807Y-43794038D01*
X112065491Y-43873572D01*
X112096513Y-43927852D01*
X112129833Y-43986567D01*
X112152125Y-44026126D01*
X112193075Y-44099146D01*
X112315333Y-44099297D01*
X112437590Y-44099448D01*
X112521297Y-43956287D01*
X112552629Y-43902107D01*
X112578754Y-43855807D01*
X112597222Y-43821810D01*
X112605586Y-43804537D01*
X112605827Y-43803582D01*
X112593935Y-43800871D01*
X112560127Y-43798460D01*
X112507938Y-43796463D01*
X112440903Y-43794996D01*
X112362555Y-43794174D01*
X112313230Y-43794038D01*
X112019807Y-43794038D01*
X111855424Y-43794038D01*
X111879293Y-43757004D01*
X111906294Y-43718933D01*
X111922785Y-43700983D01*
X111925698Y-43699460D01*
X111944702Y-43697674D01*
X111985659Y-43696048D01*
X112045069Y-43694644D01*
X112119435Y-43693527D01*
X112205258Y-43692761D01*
X112299039Y-43692408D01*
X112313967Y-43692395D01*
X112676642Y-43692208D01*
X112710874Y-43631256D01*
X112719578Y-43617175D01*
X112871051Y-43617175D01*
X112880800Y-43640554D01*
X112900241Y-43677525D01*
X112926410Y-43723305D01*
X112956341Y-43773109D01*
X112987069Y-43822152D01*
X113015628Y-43865649D01*
X113039053Y-43898817D01*
X113054379Y-43916871D01*
X113057974Y-43918767D01*
X113073197Y-43911488D01*
X113107670Y-43892896D01*
X113159057Y-43864344D01*
X113225020Y-43827184D01*
X113303223Y-43782768D01*
X113391328Y-43732449D01*
X113486998Y-43677580D01*
X113587896Y-43619512D01*
X113691686Y-43559598D01*
X113757226Y-43521655D01*
X114315998Y-43521655D01*
X114319314Y-43535292D01*
X114336820Y-43539586D01*
X114358902Y-43534204D01*
X114372678Y-43523622D01*
X114381598Y-43509604D01*
X114386564Y-43501352D01*
X114695546Y-43501352D01*
X114782434Y-43650876D01*
X114869321Y-43800400D01*
X115762433Y-43803668D01*
X116655546Y-43806936D01*
X116616089Y-43740041D01*
X116588969Y-43693313D01*
X116556916Y-43637019D01*
X116529092Y-43587334D01*
X116481552Y-43501523D01*
X115588549Y-43501437D01*
X115432687Y-43501422D01*
X115036269Y-43501384D01*
X114695546Y-43501352D01*
X114386564Y-43501352D01*
X114401909Y-43475852D01*
X114432263Y-43424665D01*
X114447049Y-43399549D01*
X114858542Y-43399549D01*
X115036269Y-43399549D01*
X115213995Y-43399549D01*
X115277166Y-43294564D01*
X115304367Y-43249059D01*
X115325945Y-43212395D01*
X115338980Y-43189564D01*
X115341480Y-43184605D01*
X115335945Y-43172357D01*
X115319973Y-43142231D01*
X115295837Y-43098399D01*
X115265812Y-43045033D01*
X115256727Y-43029070D01*
X115224959Y-42974158D01*
X115197539Y-42928210D01*
X115176939Y-42895261D01*
X115165631Y-42879344D01*
X115164468Y-42878489D01*
X115156421Y-42888972D01*
X115137943Y-42918112D01*
X115111149Y-42962416D01*
X115078151Y-43018395D01*
X115043576Y-43078172D01*
X115043088Y-43079022D01*
X115003871Y-43147370D01*
X114965899Y-43213483D01*
X114932557Y-43271473D01*
X114906739Y-43316304D01*
X114893794Y-43338713D01*
X114858542Y-43399549D01*
X114447049Y-43399549D01*
X114471310Y-43358339D01*
X114517699Y-43279173D01*
X114570080Y-43189464D01*
X114627104Y-43091510D01*
X114672308Y-43013667D01*
X114780650Y-42826903D01*
X115251470Y-42826903D01*
X115276666Y-42868261D01*
X115294114Y-42897298D01*
X115320147Y-42941093D01*
X115350488Y-42992439D01*
X115367274Y-43020966D01*
X115432687Y-43132314D01*
X115846832Y-43132314D01*
X115946365Y-43132000D01*
X116037049Y-43131110D01*
X116115939Y-43129720D01*
X116180089Y-43127907D01*
X116226553Y-43125747D01*
X116252386Y-43123317D01*
X116256735Y-43121665D01*
X116249073Y-43107174D01*
X116231173Y-43075201D01*
X116205591Y-43030262D01*
X116174885Y-42976876D01*
X116170308Y-42968960D01*
X116088121Y-42826903D01*
X115669796Y-42826903D01*
X115251470Y-42826903D01*
X114780650Y-42826903D01*
X114958906Y-42519619D01*
X114876056Y-42377394D01*
X114844308Y-42323308D01*
X114816820Y-42277249D01*
X114796285Y-42243674D01*
X114785392Y-42227038D01*
X114784773Y-42226296D01*
X114776612Y-42234708D01*
X114757381Y-42262692D01*
X114728641Y-42307727D01*
X114691955Y-42367292D01*
X114648885Y-42438865D01*
X114600992Y-42519923D01*
X114570199Y-42572738D01*
X114364058Y-42928053D01*
X114433263Y-43046090D01*
X114461659Y-43095856D01*
X114484438Y-43138312D01*
X114498880Y-43168228D01*
X114502606Y-43179420D01*
X114496539Y-43195458D01*
X114479793Y-43228941D01*
X114454707Y-43275444D01*
X114423622Y-43330542D01*
X114412800Y-43349247D01*
X114379700Y-43406535D01*
X114351063Y-43456881D01*
X114329440Y-43495743D01*
X114317380Y-43518581D01*
X114315998Y-43521655D01*
X113757226Y-43521655D01*
X113796030Y-43499190D01*
X113898591Y-43439641D01*
X113997032Y-43382304D01*
X114089016Y-43328529D01*
X114172206Y-43279671D01*
X114244265Y-43237081D01*
X114302856Y-43202112D01*
X114345641Y-43176116D01*
X114370285Y-43160446D01*
X114375490Y-43156353D01*
X114369378Y-43142230D01*
X114352623Y-43110549D01*
X114327593Y-43065624D01*
X114296656Y-43011771D01*
X114287514Y-42996116D01*
X114254695Y-42941609D01*
X114225731Y-42896289D01*
X114203270Y-42864098D01*
X114189961Y-42848975D01*
X114188207Y-42848341D01*
X114172345Y-42855629D01*
X114137373Y-42874294D01*
X114085617Y-42902978D01*
X114019400Y-42940326D01*
X113941050Y-42984979D01*
X113852890Y-43035580D01*
X113757246Y-43090773D01*
X113656443Y-43149199D01*
X113552806Y-43209502D01*
X113448660Y-43270325D01*
X113346331Y-43330309D01*
X113248143Y-43388099D01*
X113156422Y-43442337D01*
X113073492Y-43491666D01*
X113001680Y-43534728D01*
X112943309Y-43570166D01*
X112900706Y-43596624D01*
X112876195Y-43612743D01*
X112871051Y-43617175D01*
X112719578Y-43617175D01*
X112734554Y-43592947D01*
X112757547Y-43561855D01*
X112768139Y-43550696D01*
X112785818Y-43538714D01*
X112822888Y-43515931D01*
X112877081Y-43483637D01*
X112946126Y-43443120D01*
X113027752Y-43395670D01*
X113119689Y-43342576D01*
X113219666Y-43285129D01*
X113325415Y-43224617D01*
X113434663Y-43162330D01*
X113545141Y-43099557D01*
X113654580Y-43037587D01*
X113760707Y-42977711D01*
X113861254Y-42921217D01*
X113953949Y-42869395D01*
X114036523Y-42823534D01*
X114106705Y-42784924D01*
X114162225Y-42754854D01*
X114200813Y-42734613D01*
X114220198Y-42725492D01*
X114221775Y-42725100D01*
X114244213Y-42736282D01*
X114269715Y-42766475D01*
X114276217Y-42776858D01*
X114306783Y-42828616D01*
X114514904Y-42468266D01*
X114565869Y-42380344D01*
X114613482Y-42298817D01*
X114656077Y-42226489D01*
X114691991Y-42166163D01*
X114692586Y-42165180D01*
X114870308Y-42165180D01*
X114915805Y-42244714D01*
X114946743Y-42299065D01*
X114979996Y-42357884D01*
X115002194Y-42397419D01*
X115043088Y-42470591D01*
X115461141Y-42470591D01*
X115879194Y-42470591D01*
X115839787Y-42403782D01*
X115812696Y-42357106D01*
X115780666Y-42300851D01*
X115752839Y-42251162D01*
X115705299Y-42165350D01*
X115287804Y-42165265D01*
X114870308Y-42165180D01*
X114692586Y-42165180D01*
X114719557Y-42120643D01*
X114737111Y-42092734D01*
X114742111Y-42085646D01*
X114748576Y-42079970D01*
X114758906Y-42075343D01*
X114775537Y-42071660D01*
X114800905Y-42068814D01*
X114837447Y-42066699D01*
X114887598Y-42065209D01*
X114953795Y-42064238D01*
X115038474Y-42063680D01*
X115144070Y-42063428D01*
X115253546Y-42063376D01*
X115379100Y-42063449D01*
G37*
%TO.C,C3*%
D14*
X104645500Y-63756091D02*
X104645500Y-63971763D01*
X105365500Y-63756091D02*
X105365500Y-63971763D01*
%TO.C,U5*%
D10*
X94265500Y-52133927D02*
X96915500Y-52133927D01*
X94265500Y-56793927D02*
X96915500Y-56793927D01*
X96915500Y-52133927D02*
X96915500Y-53283927D01*
X96915500Y-56793927D02*
X96915500Y-55643927D01*
D16*
X93275500Y-52213927D02*
G75*
G02*
X93215500Y-52213927I-30000J0D01*
G01*
X93215500Y-52213927D02*
G75*
G02*
X93275500Y-52213927I30000J0D01*
G01*
%TO.C,VBUS_LED2*%
D14*
X91970500Y-66238927D02*
X91970500Y-68523927D01*
X91970500Y-68523927D02*
X93440500Y-68523927D01*
X93440500Y-68523927D02*
X93440500Y-66238927D01*
%TO.C,J2*%
D18*
X94855564Y-33763876D02*
X108855614Y-33763876D01*
X94855564Y-45332761D02*
X94855564Y-33763876D01*
X97392292Y-48763902D02*
X95868848Y-48763902D01*
X98392317Y-48763902D02*
X98318835Y-48763902D01*
X99392317Y-48763902D02*
X99318861Y-48763902D01*
X100392317Y-48763902D02*
X100318861Y-48763902D01*
X101392317Y-48763902D02*
X101318861Y-48763902D01*
X102392317Y-48763902D02*
X102318861Y-48763902D01*
X103392317Y-48763902D02*
X103318861Y-48763902D01*
X104392317Y-48763902D02*
X104318861Y-48763902D01*
X105392317Y-48763902D02*
X105318861Y-48763902D01*
X107842330Y-48763902D02*
X106318861Y-48763902D01*
X108855614Y-33763876D02*
X108855614Y-45332761D01*
D19*
X109885586Y-48753945D02*
G75*
G02*
X109825592Y-48753945I-29997J0D01*
G01*
X109825592Y-48753945D02*
G75*
G02*
X109885586Y-48753945I29997J0D01*
G01*
D14*
X95335574Y-48313889D02*
X93835548Y-48313889D01*
X93835548Y-45813864D01*
X95335574Y-45813864D01*
X95335574Y-48313889D01*
G36*
X95335574Y-48313889D02*
G01*
X93835548Y-48313889D01*
X93835548Y-45813864D01*
X95335574Y-45813864D01*
X95335574Y-48313889D01*
G37*
X98100572Y-48323897D02*
X97610555Y-48323897D01*
X97610555Y-47203907D01*
X98100572Y-47203907D01*
X98100572Y-48323897D01*
G36*
X98100572Y-48323897D02*
G01*
X97610555Y-48323897D01*
X97610555Y-47203907D01*
X98100572Y-47203907D01*
X98100572Y-48323897D01*
G37*
X99100598Y-48323897D02*
X98610580Y-48323897D01*
X98610580Y-47203907D01*
X99100598Y-47203907D01*
X99100598Y-48323897D01*
G36*
X99100598Y-48323897D02*
G01*
X98610580Y-48323897D01*
X98610580Y-47203907D01*
X99100598Y-47203907D01*
X99100598Y-48323897D01*
G37*
X100100598Y-48323897D02*
X99610580Y-48323897D01*
X99610580Y-47203907D01*
X100100598Y-47203907D01*
X100100598Y-48323897D01*
G36*
X100100598Y-48323897D02*
G01*
X99610580Y-48323897D01*
X99610580Y-47203907D01*
X100100598Y-47203907D01*
X100100598Y-48323897D01*
G37*
X101100598Y-48323897D02*
X100610580Y-48323897D01*
X100610580Y-47203907D01*
X101100598Y-47203907D01*
X101100598Y-48323897D01*
G36*
X101100598Y-48323897D02*
G01*
X100610580Y-48323897D01*
X100610580Y-47203907D01*
X101100598Y-47203907D01*
X101100598Y-48323897D01*
G37*
X102100598Y-48323897D02*
X101610580Y-48323897D01*
X101610580Y-47203907D01*
X102100598Y-47203907D01*
X102100598Y-48323897D01*
G36*
X102100598Y-48323897D02*
G01*
X101610580Y-48323897D01*
X101610580Y-47203907D01*
X102100598Y-47203907D01*
X102100598Y-48323897D01*
G37*
X103100598Y-48323897D02*
X102610580Y-48323897D01*
X102610580Y-47203907D01*
X103100598Y-47203907D01*
X103100598Y-48323897D01*
G36*
X103100598Y-48323897D02*
G01*
X102610580Y-48323897D01*
X102610580Y-47203907D01*
X103100598Y-47203907D01*
X103100598Y-48323897D01*
G37*
X104100598Y-48323897D02*
X103610580Y-48323897D01*
X103610580Y-47203907D01*
X104100598Y-47203907D01*
X104100598Y-48323897D01*
G36*
X104100598Y-48323897D02*
G01*
X103610580Y-48323897D01*
X103610580Y-47203907D01*
X104100598Y-47203907D01*
X104100598Y-48323897D01*
G37*
X105100598Y-48323897D02*
X104610580Y-48323897D01*
X104610580Y-47203907D01*
X105100598Y-47203907D01*
X105100598Y-48323897D01*
G36*
X105100598Y-48323897D02*
G01*
X104610580Y-48323897D01*
X104610580Y-47203907D01*
X105100598Y-47203907D01*
X105100598Y-48323897D01*
G37*
X106100598Y-48323897D02*
X105610580Y-48323897D01*
X105610580Y-47203907D01*
X106100598Y-47203907D01*
X106100598Y-48323897D01*
G36*
X106100598Y-48323897D02*
G01*
X105610580Y-48323897D01*
X105610580Y-47203907D01*
X106100598Y-47203907D01*
X106100598Y-48323897D01*
G37*
X108405576Y-34303907D02*
X108405576Y-48753945D01*
X95305551Y-48753945D01*
X95305551Y-34303907D01*
X108405576Y-34303907D01*
G36*
X108405576Y-48753945D02*
G01*
X95305551Y-48753945D01*
X95305551Y-34303907D01*
X108405576Y-34303907D01*
X108405576Y-48753945D01*
G37*
X109855589Y-48313889D02*
X108355564Y-48313889D01*
X108355564Y-45813864D01*
X109855589Y-45813864D01*
X109855589Y-48313889D01*
G36*
X109855589Y-48313889D02*
G01*
X108355564Y-48313889D01*
X108355564Y-45813864D01*
X109855589Y-45813864D01*
X109855589Y-48313889D01*
G37*
%TO.C,J1*%
D15*
X98015500Y-84298927D02*
X98015500Y-83048927D01*
X98015500Y-88858927D02*
X98015500Y-88048927D01*
X98015500Y-88858927D02*
X106655500Y-88858927D01*
X98635500Y-80628927D02*
X99325500Y-80628927D01*
X106035500Y-80628927D02*
X105585500Y-80628927D01*
X106655500Y-84298927D02*
X106655500Y-83048927D01*
X106655500Y-88858927D02*
X106655500Y-88048927D01*
%TO.C,C1*%
D14*
X91365500Y-54836091D02*
X91365500Y-55051763D01*
X92085500Y-54836091D02*
X92085500Y-55051763D01*
%TO.C,R1*%
X103270500Y-57836863D02*
X103270500Y-58290991D01*
X104740500Y-57836863D02*
X104740500Y-58290991D01*
%TO.C,U1*%
D11*
X99005498Y-64063928D02*
X99005500Y-64263930D01*
X99005498Y-64063928D02*
X99205502Y-64063933D01*
X99005505Y-67063924D02*
X99005500Y-67263929D01*
X99205502Y-67263926D02*
X99005500Y-67263929D01*
X104005498Y-67263921D02*
X104205502Y-67263926D01*
X104205500Y-64063925D02*
X103805501Y-64063928D01*
X104205500Y-64063925D02*
X104205500Y-64463927D01*
X104205500Y-67063924D02*
X104205502Y-67263926D01*
%TO.C,R2*%
D14*
X95741859Y-63783927D02*
X96049141Y-63783927D01*
X95741859Y-64543927D02*
X96049141Y-64543927D01*
%TO.C,TP1*%
X116805500Y-80263927D02*
G75*
G02*
X114005500Y-80263927I-1400000J0D01*
G01*
X114005500Y-80263927D02*
G75*
G02*
X116805500Y-80263927I1400000J0D01*
G01*
%TO.C,R4*%
X107530064Y-56108927D02*
X107075936Y-56108927D01*
X107530064Y-57578927D02*
X107075936Y-57578927D01*
D17*
%TO.C,G\u002A\u002A\u002A*%
G36*
X102611323Y-69077985D02*
G01*
X102700955Y-69106742D01*
X102787923Y-69152138D01*
X102868568Y-69211295D01*
X102939232Y-69281340D01*
X102996257Y-69359397D01*
X103016546Y-69396476D01*
X103056150Y-69498447D01*
X103076781Y-69603092D01*
X103078486Y-69708635D01*
X103061316Y-69813296D01*
X103025321Y-69915297D01*
X103000712Y-69963970D01*
X102947311Y-70041798D01*
X102879545Y-70112742D01*
X102801950Y-70172822D01*
X102719062Y-70218062D01*
X102703882Y-70224340D01*
X102678136Y-70236187D01*
X102662782Y-70246665D01*
X102660686Y-70251261D01*
X102668960Y-70258476D01*
X102691530Y-70276379D01*
X102727051Y-70303944D01*
X102774180Y-70340147D01*
X102831574Y-70383962D01*
X102897890Y-70434363D01*
X102971783Y-70490326D01*
X103051911Y-70550826D01*
X103136931Y-70614836D01*
X103149147Y-70624020D01*
X103236213Y-70689675D01*
X103319651Y-70753015D01*
X103397966Y-70812877D01*
X103469662Y-70868100D01*
X103533243Y-70917518D01*
X103587213Y-70959971D01*
X103630076Y-70994295D01*
X103660337Y-71019326D01*
X103676501Y-71033903D01*
X103676903Y-71034327D01*
X103705505Y-71069545D01*
X103732421Y-71110232D01*
X103745258Y-71134081D01*
X103755317Y-71157036D01*
X103762460Y-71178923D01*
X103767299Y-71203968D01*
X103770447Y-71236400D01*
X103772515Y-71280444D01*
X103773923Y-71331846D01*
X103777290Y-71475879D01*
X103847222Y-71512214D01*
X103931770Y-71566415D01*
X104002090Y-71632619D01*
X104057497Y-71708742D01*
X104097304Y-71792702D01*
X104120825Y-71882416D01*
X104127373Y-71975802D01*
X104116263Y-72070776D01*
X104086809Y-72165257D01*
X104072686Y-72196502D01*
X104047675Y-72237086D01*
X104011340Y-72282963D01*
X103968698Y-72328713D01*
X103924767Y-72368917D01*
X103887847Y-72396148D01*
X103807072Y-72435824D01*
X103717649Y-72460936D01*
X103624871Y-72470611D01*
X103534029Y-72463976D01*
X103508258Y-72458749D01*
X103419386Y-72428268D01*
X103338140Y-72381794D01*
X103266405Y-72321676D01*
X103206068Y-72250266D01*
X103159017Y-72169913D01*
X103127139Y-72082969D01*
X103112319Y-71991784D01*
X103111482Y-71964466D01*
X103120716Y-71872803D01*
X103147173Y-71783922D01*
X103188985Y-71700812D01*
X103244282Y-71626463D01*
X103311198Y-71563865D01*
X103387863Y-71516008D01*
X103393418Y-71513347D01*
X103462498Y-71480889D01*
X103462600Y-71368543D01*
X103462702Y-71256197D01*
X103061140Y-70953350D01*
X102983124Y-70894559D01*
X102909590Y-70839232D01*
X102842056Y-70788507D01*
X102782043Y-70743521D01*
X102731071Y-70705412D01*
X102690660Y-70675318D01*
X102662330Y-70654376D01*
X102647601Y-70643724D01*
X102646039Y-70642692D01*
X102643944Y-70643740D01*
X102642069Y-70650083D01*
X102640405Y-70662696D01*
X102638938Y-70682554D01*
X102637657Y-70710630D01*
X102636551Y-70747898D01*
X102635608Y-70795333D01*
X102634815Y-70853910D01*
X102634162Y-70924602D01*
X102633636Y-71008383D01*
X102633226Y-71106229D01*
X102632920Y-71219112D01*
X102632707Y-71348009D01*
X102632574Y-71493892D01*
X102632510Y-71657735D01*
X102632500Y-71768596D01*
X102632500Y-72902312D01*
X102801544Y-72902312D01*
X102863298Y-72902447D01*
X102909099Y-72903124D01*
X102942530Y-72904756D01*
X102967174Y-72907753D01*
X102986617Y-72912527D01*
X103004442Y-72919489D01*
X103021139Y-72927503D01*
X103076366Y-72965589D01*
X103119963Y-73017634D01*
X103141017Y-73058620D01*
X103150837Y-73100094D01*
X103152985Y-73150275D01*
X103147650Y-73199984D01*
X103137361Y-73235041D01*
X103129016Y-73250791D01*
X103111534Y-73281156D01*
X103086103Y-73324162D01*
X103053908Y-73377835D01*
X103016135Y-73440201D01*
X102973972Y-73509286D01*
X102928605Y-73583116D01*
X102911297Y-73611156D01*
X102852987Y-73705129D01*
X102803485Y-73783810D01*
X102761600Y-73848693D01*
X102726141Y-73901274D01*
X102695915Y-73943047D01*
X102669732Y-73975505D01*
X102646400Y-74000143D01*
X102624728Y-74018456D01*
X102603524Y-74031936D01*
X102581597Y-74042080D01*
X102562222Y-74048962D01*
X102509107Y-74061970D01*
X102460978Y-74063024D01*
X102408021Y-74052221D01*
X102402177Y-74050520D01*
X102377824Y-74042825D01*
X102356243Y-74034252D01*
X102336214Y-74023282D01*
X102316515Y-74008393D01*
X102295926Y-73988064D01*
X102273227Y-73960773D01*
X102247196Y-73925000D01*
X102216612Y-73879223D01*
X102180254Y-73821920D01*
X102136903Y-73751571D01*
X102085336Y-73666655D01*
X102058568Y-73622361D01*
X102012305Y-73545417D01*
X101968701Y-73472255D01*
X101928918Y-73404871D01*
X101894116Y-73345259D01*
X101865458Y-73295415D01*
X101844104Y-73257335D01*
X101831216Y-73233014D01*
X101828429Y-73226941D01*
X101814402Y-73166428D01*
X101817081Y-73103105D01*
X101835318Y-73042093D01*
X101867962Y-72988514D01*
X101886361Y-72968830D01*
X101913682Y-72945740D01*
X101941648Y-72928598D01*
X101973746Y-72916564D01*
X102013461Y-72908797D01*
X102064280Y-72904454D01*
X102129689Y-72902696D01*
X102161135Y-72902527D01*
X102319885Y-72902312D01*
X102319885Y-71910735D01*
X102319862Y-71773354D01*
X102319793Y-71641612D01*
X102319683Y-71516809D01*
X102319534Y-71400243D01*
X102319350Y-71293211D01*
X102319134Y-71197012D01*
X102318889Y-71112944D01*
X102318618Y-71042306D01*
X102318325Y-70986395D01*
X102318012Y-70946511D01*
X102317683Y-70923950D01*
X102317443Y-70919160D01*
X102309177Y-70924555D01*
X102286463Y-70940006D01*
X102250892Y-70964415D01*
X102204056Y-70996684D01*
X102147549Y-71035715D01*
X102082961Y-71080408D01*
X102011885Y-71129666D01*
X101943770Y-71176935D01*
X101572539Y-71434709D01*
X101569853Y-71586290D01*
X101567168Y-71737871D01*
X101657776Y-71741467D01*
X101720725Y-71746640D01*
X101769958Y-71757852D01*
X101810889Y-71777170D01*
X101848933Y-71806658D01*
X101862330Y-71819526D01*
X101881950Y-71839386D01*
X101897618Y-71857079D01*
X101909803Y-71875036D01*
X101918976Y-71895686D01*
X101925605Y-71921459D01*
X101930162Y-71954786D01*
X101933115Y-71998094D01*
X101934934Y-72053816D01*
X101936089Y-72124380D01*
X101936982Y-72205651D01*
X101937553Y-72298146D01*
X101937225Y-72377368D01*
X101936028Y-72441909D01*
X101933996Y-72490362D01*
X101931160Y-72521320D01*
X101929658Y-72529069D01*
X101905571Y-72583484D01*
X101865525Y-72633224D01*
X101813093Y-72674236D01*
X101791004Y-72686518D01*
X101730610Y-72716697D01*
X101412229Y-72716601D01*
X101324878Y-72716539D01*
X101254778Y-72716317D01*
X101199639Y-72715790D01*
X101157174Y-72714817D01*
X101125093Y-72713254D01*
X101101108Y-72710959D01*
X101082931Y-72707788D01*
X101068274Y-72703600D01*
X101054847Y-72698250D01*
X101044796Y-72693664D01*
X100981925Y-72654128D01*
X100932659Y-72600604D01*
X100906840Y-72555709D01*
X100900186Y-72540801D01*
X100894967Y-72526326D01*
X100891010Y-72509783D01*
X100888141Y-72488671D01*
X100886184Y-72460491D01*
X100884966Y-72422741D01*
X100884312Y-72372923D01*
X100884048Y-72308534D01*
X100883999Y-72228235D01*
X100884050Y-72147011D01*
X100884318Y-72082824D01*
X100884978Y-72033176D01*
X100886204Y-71995564D01*
X100888172Y-71967490D01*
X100891054Y-71946453D01*
X100895026Y-71929951D01*
X100900261Y-71915486D01*
X100906840Y-71900761D01*
X100946377Y-71837890D01*
X100999901Y-71788624D01*
X101044796Y-71762806D01*
X101077423Y-71750021D01*
X101111381Y-71742895D01*
X101154256Y-71740084D01*
X101174443Y-71739869D01*
X101255039Y-71739774D01*
X101255039Y-71580354D01*
X101256995Y-71489523D01*
X101263500Y-71414835D01*
X101275512Y-71353228D01*
X101293988Y-71301640D01*
X101319886Y-71257008D01*
X101354163Y-71216272D01*
X101375206Y-71195984D01*
X101390868Y-71183459D01*
X101421007Y-71161011D01*
X101464006Y-71129790D01*
X101518247Y-71090947D01*
X101582109Y-71045632D01*
X101653974Y-70994996D01*
X101732224Y-70940188D01*
X101815239Y-70882361D01*
X101867823Y-70845889D01*
X102319291Y-70533274D01*
X102319588Y-70391570D01*
X102319885Y-70249866D01*
X102261076Y-70227063D01*
X102169680Y-70181529D01*
X102086614Y-70120213D01*
X102014280Y-70045802D01*
X101955075Y-69960988D01*
X101911399Y-69868461D01*
X101895312Y-69816996D01*
X101885030Y-69758514D01*
X101880351Y-69689752D01*
X101881280Y-69618652D01*
X101887823Y-69553152D01*
X101895105Y-69517274D01*
X101931136Y-69416506D01*
X101982541Y-69326045D01*
X102047433Y-69247047D01*
X102123925Y-69180672D01*
X102210129Y-69128076D01*
X102304156Y-69090417D01*
X102404121Y-69068853D01*
X102508135Y-69064542D01*
X102611323Y-69077985D01*
G37*
%TO.C,U2*%
D14*
X97495500Y-78548927D02*
X97495500Y-77548927D01*
X100315500Y-78548927D02*
X100315500Y-77758927D01*
X100315500Y-77428927D02*
X100315500Y-77148927D01*
X100595500Y-77428927D01*
X100315500Y-77428927D01*
G36*
X100595500Y-77428927D02*
G01*
X100315500Y-77428927D01*
X100315500Y-77148927D01*
X100595500Y-77428927D01*
G37*
%TD*%
M02*
