%TF.GenerationSoftware,KiCad,Pcbnew,10.0.4*%
%TF.CreationDate,2026-08-05T09:18:05-04:00*%
%TF.ProjectId,HD3SS3220-breakout,48443353-5333-4323-9230-2d627265616b,R1*%
%TF.SameCoordinates,Original*%
%TF.FileFunction,Paste,Top*%
%TF.FilePolarity,Positive*%
%FSLAX46Y46*%
G04 Gerber Fmt 4.6, Leading zero omitted, Abs format (unit mm)*
G04 Created by KiCad (PCBNEW 10.0.4) date 2026-08-05 09:18:05*
%MOMM*%
%LPD*%
G01*
G04 APERTURE LIST*
G04 Aperture macros list*
%AMRoundRect*
0 Rectangle with rounded corners*
0 $1 Rounding radius*
0 $2 $3 $4 $5 $6 $7 $8 $9 X,Y pos of 4 corners*
0 Add a 4 corners polygon primitive as box body*
4,1,4,$2,$3,$4,$5,$6,$7,$8,$9,$2,$3,0*
0 Add four circle primitives for the rounded corners*
1,1,$1+$1,$2,$3*
1,1,$1+$1,$4,$5*
1,1,$1+$1,$6,$7*
1,1,$1+$1,$8,$9*
0 Add four rect primitives between the rounded corners*
20,1,$1+$1,$2,$3,$4,$5,0*
20,1,$1+$1,$4,$5,$6,$7,0*
20,1,$1+$1,$6,$7,$8,$9,0*
20,1,$1+$1,$8,$9,$2,$3,0*%
%AMFreePoly0*
4,1,487,0.927811,1.049957,0.929009,1.049943,0.929623,1.049932,0.974149,1.048865,0.975309,1.048823,0.977618,1.048714,0.978767,1.048647,1.023192,1.045523,1.024371,1.045426,1.026708,1.045206,1.027866,1.045083,1.072113,1.039876,1.073253,1.039729,1.075564,1.039403,1.076735,1.039224,1.120677,1.031960,1.121858,1.031750,1.124194,1.031306,1.125349,1.031072,1.168910,1.021724,
1.170049,1.021466,1.172307,1.020926,1.173426,1.020644,1.216479,1.009291,1.217599,1.008982,1.219847,1.008333,1.220975,1.007993,1.263469,0.994632,1.264583,0.994267,1.266810,0.993509,1.267923,0.993116,1.309731,0.977775,1.310835,0.977355,1.313028,0.976491,1.314117,0.976047,1.355164,0.958749,1.356227,0.958286,1.358334,0.957340,1.359378,0.956857,1.399586,0.937680,
1.400642,0.937161,1.402758,0.936090,1.403818,0.935538,1.443061,0.914482,1.444109,0.913903,1.446152,0.912743,1.447147,0.912162,1.485374,0.889276,1.486358,0.888672,1.488331,0.887428,1.489320,0.886788,1.526429,0.862150,1.527402,0.861488,1.529315,0.860152,1.530255,0.859478,1.566171,0.833138,1.567099,0.832442,1.568966,0.831005,1.569905,0.830264,1.604525,0.802274,
1.605446,0.801510,1.607239,0.799988,1.608111,0.799230,1.641410,0.769613,1.642263,0.768838,1.643973,0.767245,1.644830,0.766427,1.676682,0.735312,1.677513,0.734481,1.679148,0.732807,1.679952,0.731964,1.710330,0.699376,1.711121,0.698508,1.712678,0.696757,1.713444,0.695874,1.742248,0.661914,1.742996,0.661011,1.744475,0.659182,1.745206,0.658256,1.772384,0.622976,
1.773094,0.622031,1.774480,0.620141,1.775156,0.619196,1.800658,0.582670,1.801320,0.581698,1.802619,0.579741,1.803256,0.578756,1.827005,0.541088,1.827607,0.540109,1.828810,0.538100,1.829411,0.537070,1.851382,0.498310,1.851950,0.497280,1.853047,0.495234,1.853576,0.494218,1.873718,0.454492,1.876132,0.448916,1.880265,0.437511,1.881984,0.431682,1.882377,0.429971,
3.500095,0.429971,3.519230,0.426165,3.554585,0.411520,3.581644,0.384461,3.596289,0.349106,3.600095,0.329971,3.600095,-0.330022,3.596289,-0.349157,3.581644,-0.384512,3.554585,-0.411571,3.519230,-0.426216,3.500095,-0.430022,1.882389,-0.430022,1.881987,-0.431772,1.880267,-0.437607,1.876132,-0.449018,1.873718,-0.454594,1.853576,-0.494319,1.853042,-0.495344,1.851945,-0.497389,
1.851382,-0.498409,1.829411,-0.537170,1.828816,-0.538192,1.827613,-0.540202,1.827005,-0.541190,1.803256,-0.578858,1.802626,-0.579834,1.801327,-0.581792,1.800658,-0.582774,1.775156,-0.619299,1.774473,-0.620253,1.773087,-0.622142,1.772384,-0.623077,1.745206,-0.658358,1.744475,-0.659284,1.742996,-0.661113,1.742248,-0.662016,1.713444,-0.695976,1.712678,-0.696859,1.711121,-0.698610,
1.710330,-0.699478,1.679952,-0.732066,1.679148,-0.732909,1.677513,-0.734583,1.676682,-0.735414,1.644830,-0.766529,1.643984,-0.767336,1.642274,-0.768930,1.641410,-0.769717,1.608111,-0.799333,1.607214,-0.800111,1.605421,-0.801631,1.604525,-0.802373,1.569905,-0.830364,1.568979,-0.831095,1.567112,-0.832533,1.566171,-0.833240,1.530255,-0.859580,1.529315,-0.860254,1.527402,-0.861590,
1.526429,-0.862252,1.489320,-0.886890,1.488347,-0.887520,1.486374,-0.888765,1.485374,-0.889380,1.447147,-0.912265,1.446129,-0.912858,1.444087,-0.914016,1.443063,-0.914581,1.403820,-0.935638,1.402767,-0.936187,1.400650,-0.937259,1.399586,-0.937782,1.359378,-0.956959,1.358325,-0.957446,1.356217,-0.958392,1.355162,-0.958851,1.314115,-0.976148,1.313023,-0.976593,1.310832,-0.977456,
1.309733,-0.977874,1.267925,-0.993216,1.266817,-0.993608,1.264588,-0.994367,1.263467,-0.994734,1.220973,-1.008094,1.219857,-1.008431,1.217611,-1.009080,1.216481,-1.009392,1.173428,-1.020746,1.172298,-1.021030,1.170038,-1.021570,1.168908,-1.021826,1.125347,-1.031173,1.124181,-1.031409,1.121847,-1.031852,1.120679,-1.032059,1.076737,-1.039324,1.075583,-1.039501,1.073271,-1.039828,
1.072113,-1.039978,1.027866,-1.045185,1.026708,-1.045308,1.024371,-1.045528,1.023192,-1.045625,0.978767,-1.048749,0.977618,-1.048816,0.975309,-1.048925,0.974149,-1.048967,0.929623,-1.050034,0.929009,-1.050045,0.927811,-1.050059,0.927227,-1.050062,-0.926973,-1.050062,-0.927557,-1.050059,-0.928755,-1.050045,-0.929369,-1.050034,-0.973895,-1.048967,-0.975055,-1.048925,-0.977364,-1.048816,
-0.978513,-1.048749,-1.022938,-1.045625,-1.024117,-1.045528,-1.026454,-1.045308,-1.027612,-1.045185,-1.071859,-1.039978,-1.073017,-1.039828,-1.075329,-1.039501,-1.076483,-1.039324,-1.120425,-1.032059,-1.121593,-1.031852,-1.123927,-1.031409,-1.125093,-1.031173,-1.168654,-1.021826,-1.169784,-1.021570,-1.172044,-1.021030,-1.173174,-1.020746,-1.216227,-1.009392,-1.217357,-1.009080,-1.219603,-1.008431,
-1.220719,-1.008094,-1.263213,-0.994734,-1.264334,-0.994367,-1.266563,-0.993608,-1.267671,-0.993216,-1.309479,-0.977874,-1.310578,-0.977456,-1.312769,-0.976593,-1.313861,-0.976148,-1.354908,-0.958851,-1.355963,-0.958392,-1.358071,-0.957446,-1.359124,-0.956959,-1.399332,-0.937782,-1.400396,-0.937259,-1.402513,-0.936187,-1.403566,-0.935638,-1.442809,-0.914581,-1.443833,-0.914016,-1.445875,-0.912858,
-1.446893,-0.912265,-1.485120,-0.889380,-1.486120,-0.888765,-1.488093,-0.887520,-1.489066,-0.886890,-1.526175,-0.862252,-1.527148,-0.861590,-1.529061,-0.860254,-1.530001,-0.859580,-1.565917,-0.833240,-1.566858,-0.832533,-1.568725,-0.831095,-1.569651,-0.830364,-1.604271,-0.802373,-1.605167,-0.801631,-1.606960,-0.800111,-1.607857,-0.799333,-1.641156,-0.769717,-1.642020,-0.768930,-1.643730,-0.767336,
-1.644576,-0.766529,-1.676428,-0.735414,-1.677259,-0.734583,-1.678894,-0.732909,-1.679698,-0.732066,-1.710076,-0.699478,-1.710867,-0.698610,-1.712424,-0.696859,-1.713190,-0.695976,-1.741994,-0.662016,-1.742742,-0.661113,-1.744221,-0.659284,-1.744952,-0.658358,-1.772130,-0.623077,-1.772833,-0.622142,-1.774219,-0.620253,-1.774902,-0.619299,-1.800404,-0.582774,-1.801073,-0.581792,-1.802372,-0.579834,
-1.803002,-0.578858,-1.826751,-0.541190,-1.827359,-0.540202,-1.828562,-0.538192,-1.829157,-0.537170,-1.851128,-0.498409,-1.851691,-0.497389,-1.852788,-0.495344,-1.853322,-0.494319,-1.873464,-0.454594,-1.873988,-0.453530,-1.875010,-0.451390,-1.875508,-0.450314,-1.893745,-0.409674,-1.894203,-0.408622,-1.895102,-0.406489,-1.895543,-0.405408,-1.911875,-0.363980,-1.912302,-0.362856,-1.913119,-0.360628,
-1.913509,-0.359524,-1.927860,-0.317360,-1.928220,-0.316262,-1.928921,-0.314035,-1.929262,-0.312906,-1.941632,-0.270107,-1.941947,-0.268968,-1.942548,-0.266688,-1.942834,-0.265547,-1.953172,-0.222215,-1.953429,-0.221078,-1.953916,-0.218803,-1.954146,-0.217665,-1.962452,-0.173926,-1.962657,-0.172773,-1.963041,-0.170456,-1.963220,-0.169292,-1.969468,-0.125172,-1.969619,-0.124009,-1.969894,-0.121674,
-1.970018,-0.120502,-1.974184,-0.076154,-1.974280,-0.074977,-1.974444,-0.072639,-1.974512,-0.071478,-1.976594,-0.027003,-1.976635,-0.025841,-1.976690,-0.023503,-1.976704,-0.022327,-1.976704,0.022225,-1.976690,0.023401,-1.976635,0.025739,-1.976594,0.026901,-1.974512,0.071376,-1.974444,0.072537,-1.974280,0.074875,-1.974184,0.076052,-1.970018,0.120401,-1.969894,0.121573,-1.969619,0.123908,
-1.969468,0.125071,-1.963220,0.169191,-1.963041,0.170355,-1.962657,0.172672,-1.962452,0.173825,-1.954146,0.217563,-1.953916,0.218701,-1.953429,0.220976,-1.953172,0.222113,-1.942834,0.265446,-1.942548,0.266587,-1.941947,0.268867,-1.941632,0.270006,-1.929262,0.312805,-1.928921,0.313934,-1.928220,0.316161,-1.927860,0.317259,-1.913509,0.359423,-1.913119,0.360527,-1.912302,0.362755,
-1.911875,0.363879,-1.895543,0.405306,-1.895102,0.406387,-1.894203,0.408520,-1.893745,0.409572,-1.875508,0.450212,-1.875010,0.451288,-1.873988,0.453428,-1.873464,0.454492,-1.853322,0.494218,-1.852793,0.495234,-1.851696,0.497280,-1.851128,0.498310,-1.829157,0.537070,-1.828556,0.538100,-1.827353,0.540109,-1.826751,0.541088,-1.803002,0.578756,-1.802365,0.579741,-1.801066,0.581698,
-1.800404,0.582670,-1.774902,0.619196,-1.774226,0.620141,-1.772840,0.622031,-1.772130,0.622976,-1.744952,0.658256,-1.744221,0.659182,-1.742742,0.661011,-1.741994,0.661914,-1.713190,0.695874,-1.712424,0.696757,-1.710867,0.698508,-1.710076,0.699376,-1.679698,0.731964,-1.678894,0.732807,-1.677259,0.734481,-1.676428,0.735312,-1.644576,0.766427,-1.643719,0.767245,-1.642009,0.768838,
-1.641156,0.769613,-1.607857,0.799230,-1.606985,0.799988,-1.605192,0.801510,-1.604271,0.802274,-1.569651,0.830264,-1.568712,0.831005,-1.566845,0.832442,-1.565917,0.833138,-1.530001,0.859478,-1.529061,0.860152,-1.527148,0.861488,-1.526175,0.862150,-1.489066,0.886788,-1.488077,0.887428,-1.486104,0.888672,-1.485120,0.889276,-1.446893,0.912162,-1.445898,0.912743,-1.443855,0.913903,
-1.442807,0.914482,-1.403564,0.935538,-1.402504,0.936090,-1.400388,0.937161,-1.399332,0.937680,-1.359124,0.956857,-1.358080,0.957340,-1.355973,0.958286,-1.354910,0.958749,-1.313863,0.976047,-1.312774,0.976491,-1.310581,0.977355,-1.309477,0.977775,-1.267669,0.993116,-1.266556,0.993509,-1.264329,0.994267,-1.263215,0.994632,-1.220721,1.007993,-1.219593,1.008333,-1.217345,1.008982,
-1.216225,1.009291,-1.173172,1.020644,-1.172053,1.020926,-1.169795,1.021466,-1.168656,1.021724,-1.125095,1.031072,-1.123940,1.031306,-1.121604,1.031750,-1.120423,1.031960,-1.076481,1.039224,-1.075310,1.039403,-1.072999,1.039729,-1.071859,1.039876,-1.027612,1.045083,-1.026454,1.045206,-1.024117,1.045426,-1.022938,1.045523,-0.978513,1.048647,-0.977364,1.048714,-0.975055,1.048823,
-0.973895,1.048865,-0.929369,1.049932,-0.928755,1.049943,-0.927557,1.049957,-0.926973,1.049960,0.927227,1.049960,0.927811,1.049957,0.927811,1.049957,$1*%
G04 Aperture macros list end*
%ADD10C,0.000000*%
%ADD11RoundRect,0.125000X0.075000X0.200000X-0.075000X0.200000X-0.075000X-0.200000X0.075000X-0.200000X0*%
%ADD12RoundRect,0.185000X0.135000X0.185000X-0.135000X0.185000X-0.135000X-0.185000X0.135000X-0.185000X0*%
%ADD13RoundRect,0.185000X0.185000X-0.135000X0.185000X0.135000X-0.185000X0.135000X-0.185000X-0.135000X0*%
%ADD14RoundRect,0.300000X-1.100000X0.325000X-1.100000X-0.325000X1.100000X-0.325000X1.100000X0.325000X0*%
%ADD15RoundRect,0.190000X-0.140000X-0.170000X0.140000X-0.170000X0.140000X0.170000X-0.140000X0.170000X0*%
%ADD16RoundRect,0.185000X-0.135000X-0.185000X0.135000X-0.185000X0.135000X0.185000X-0.135000X0.185000X0*%
%ADD17RoundRect,0.268750X0.256250X-0.218750X0.256250X0.218750X-0.256250X0.218750X-0.256250X-0.218750X0*%
%ADD18RoundRect,0.050000X-0.635000X-0.381000X0.635000X-0.381000X0.635000X0.381000X-0.635000X0.381000X0*%
%ADD19RoundRect,0.190000X0.140000X0.170000X-0.140000X0.170000X-0.140000X-0.170000X0.140000X-0.170000X0*%
%ADD20RoundRect,0.190000X-0.170000X0.140000X-0.170000X-0.140000X0.170000X-0.140000X0.170000X0.140000X0*%
%ADD21RoundRect,0.050000X0.787500X0.336000X-0.787500X0.336000X-0.787500X-0.336000X0.787500X-0.336000X0*%
%ADD22FreePoly0,180.000000*%
%ADD23RoundRect,0.050000X0.350000X0.800000X-0.350000X0.800000X-0.350000X-0.800000X0.350000X-0.800000X0*%
%ADD24RoundRect,0.050000X1.000000X1.500000X-1.000000X1.500000X-1.000000X-1.500000X1.000000X-1.500000X0*%
%ADD25RoundRect,0.050000X-0.150000X-0.475000X0.150000X-0.475000X0.150000X0.475000X-0.150000X0.475000X0*%
%ADD26RoundRect,0.050000X0.150000X0.475000X-0.150000X0.475000X-0.150000X-0.475000X0.150000X-0.475000X0*%
%ADD27RoundRect,0.300000X-0.450000X0.262500X-0.450000X-0.262500X0.450000X-0.262500X0.450000X0.262500X0*%
%ADD28RoundRect,0.050000X-0.100000X0.249999X-0.100000X-0.249999X0.100000X-0.249999X0.100000X0.249999X0*%
%ADD29RoundRect,0.050000X-0.100000X0.249999X-0.100000X-0.249999X0.100000X-0.249999X0.100000X0.249999X0*%
%ADD30RoundRect,0.050000X-0.249995X-0.100000X0.249995X-0.100000X0.249995X0.100000X-0.249995X0.100000X0*%
%ADD31RoundRect,0.050000X-0.249999X-0.100000X0.249999X-0.100000X0.249999X0.100000X-0.249999X0.100000X0*%
%ADD32RoundRect,0.300000X0.262500X0.450000X-0.262500X0.450000X-0.262500X-0.450000X0.262500X-0.450000X0*%
G04 APERTURE END LIST*
D10*
%TO.C,U1*%
G36*
X101464571Y-65099905D02*
G01*
X101474111Y-65102798D01*
X101482902Y-65107497D01*
X101490606Y-65113821D01*
X101496930Y-65121525D01*
X101501629Y-65130316D01*
X101504522Y-65139856D01*
X101505500Y-65149778D01*
X101505500Y-66178076D01*
X101504522Y-66187998D01*
X101501629Y-66197538D01*
X101496930Y-66206329D01*
X101490606Y-66214033D01*
X101482902Y-66220357D01*
X101474111Y-66225056D01*
X101464571Y-66227949D01*
X101454649Y-66228927D01*
X100166351Y-66228927D01*
X100156430Y-66227949D01*
X100146890Y-66225056D01*
X100138099Y-66220357D01*
X100130395Y-66214033D01*
X100124070Y-66206329D01*
X100119371Y-66197538D01*
X100116478Y-66187998D01*
X100115500Y-66178076D01*
X100115500Y-65149778D01*
X100116478Y-65139856D01*
X100119371Y-65130316D01*
X100124070Y-65121525D01*
X100130395Y-65113821D01*
X100138099Y-65107497D01*
X100146890Y-65102798D01*
X100156430Y-65099905D01*
X100166351Y-65098927D01*
X101454649Y-65098927D01*
X101464571Y-65099905D01*
G37*
G36*
X103054570Y-65099905D02*
G01*
X103064110Y-65102798D01*
X103072901Y-65107497D01*
X103080605Y-65113821D01*
X103086930Y-65121525D01*
X103091629Y-65130316D01*
X103094522Y-65139856D01*
X103095500Y-65149778D01*
X103095500Y-66178076D01*
X103094522Y-66187998D01*
X103091629Y-66197538D01*
X103086930Y-66206329D01*
X103080605Y-66214033D01*
X103072901Y-66220357D01*
X103064110Y-66225056D01*
X103054570Y-66227949D01*
X103044649Y-66228927D01*
X101756351Y-66228927D01*
X101746429Y-66227949D01*
X101736889Y-66225056D01*
X101728098Y-66220357D01*
X101720394Y-66214033D01*
X101714070Y-66206329D01*
X101709371Y-66197538D01*
X101706478Y-66187998D01*
X101705500Y-66178076D01*
X101705500Y-65149778D01*
X101706478Y-65139856D01*
X101709371Y-65130316D01*
X101714070Y-65121525D01*
X101720394Y-65113821D01*
X101728098Y-65107497D01*
X101736889Y-65102798D01*
X101746429Y-65099905D01*
X101756351Y-65098927D01*
X103044649Y-65098927D01*
X103054570Y-65099905D01*
G37*
%TD*%
D11*
%TO.C,U4*%
X102405500Y-57263927D03*
X101905500Y-57263927D03*
X101405500Y-57263927D03*
X100905500Y-57263927D03*
X100405500Y-57263927D03*
X100405500Y-58033927D03*
X100905500Y-58033927D03*
X101405500Y-58033927D03*
X101905500Y-58033927D03*
X102405500Y-58033927D03*
%TD*%
D12*
%TO.C,R3*%
X116005500Y-59263927D03*
X114985500Y-59263927D03*
%TD*%
D13*
%TO.C,R8*%
X94105500Y-67273927D03*
X94105500Y-66253927D03*
%TD*%
D14*
%TO.C,C5*%
X107405500Y-63113927D03*
X107405500Y-66063927D03*
%TD*%
D15*
%TO.C,C6*%
X98045500Y-63063927D03*
X99005500Y-63063927D03*
%TD*%
D12*
%TO.C,R5*%
X108565500Y-55343927D03*
X107545500Y-55343927D03*
%TD*%
D16*
%TO.C,R7*%
X95395500Y-65263927D03*
X96415500Y-65263927D03*
%TD*%
D17*
%TO.C,DIR*%
X92705500Y-64751427D03*
X92705500Y-63176427D03*
%TD*%
D18*
%TO.C,SW1*%
X117615500Y-57043927D03*
X117615500Y-55773927D03*
X117615500Y-54493927D03*
X117615500Y-53233927D03*
X117615500Y-51953927D03*
X117615500Y-50693927D03*
X109995500Y-50693927D03*
X109995500Y-51953927D03*
X109995500Y-53233927D03*
X109995500Y-54493927D03*
X109995500Y-55773927D03*
X109995500Y-57043927D03*
%TD*%
D11*
%TO.C,U3*%
X106205500Y-77663927D03*
X105705500Y-77663927D03*
X105205500Y-77663927D03*
X104705500Y-77663927D03*
X104205500Y-77663927D03*
X104205500Y-78433927D03*
X104705500Y-78433927D03*
X105205500Y-78433927D03*
X105705500Y-78433927D03*
X106205500Y-78433927D03*
%TD*%
D13*
%TO.C,R6*%
X109805500Y-66373927D03*
X109805500Y-65353927D03*
%TD*%
D19*
%TO.C,C2*%
X93605500Y-57463927D03*
X92645500Y-57463927D03*
%TD*%
D12*
%TO.C,R9*%
X95005500Y-63163927D03*
X93985500Y-63163927D03*
%TD*%
D15*
%TO.C,C4*%
X98045500Y-64063927D03*
X99005500Y-64063927D03*
%TD*%
D20*
%TO.C,C3*%
X105005500Y-63383927D03*
X105005500Y-64343927D03*
%TD*%
D21*
%TO.C,U5*%
X93605500Y-52963927D03*
D22*
X96325500Y-54463927D03*
D21*
X93605500Y-55963927D03*
%TD*%
D17*
%TO.C,VBUS*%
X92705500Y-67826427D03*
X92705500Y-66251427D03*
%TD*%
D23*
%TO.C,J2*%
X104855589Y-47763902D03*
X102855589Y-47763902D03*
X100855589Y-47763902D03*
X98855589Y-47763902D03*
X97855589Y-47763902D03*
X99855589Y-47763902D03*
X101855589Y-47763902D03*
X103855589Y-47763902D03*
X105855589Y-47763902D03*
D24*
X108955665Y-47063876D03*
X94755513Y-47063876D03*
%TD*%
D25*
%TO.C,J1*%
X99705500Y-80938927D03*
X100205500Y-80938927D03*
X100705500Y-80938927D03*
X101205500Y-80938927D03*
X101705500Y-80938927D03*
X102205500Y-80938927D03*
X102705500Y-80938927D03*
X103205500Y-80938927D03*
X103705500Y-80938927D03*
X104205500Y-80938927D03*
X104705500Y-80938927D03*
X105205500Y-80938927D03*
D26*
X104955500Y-82288927D03*
X104455500Y-82288927D03*
X103955500Y-82288927D03*
X103455500Y-82288927D03*
X102955500Y-82288927D03*
X102455500Y-82288927D03*
X101955500Y-82288927D03*
X101455500Y-82288927D03*
X100955500Y-82288927D03*
X100455500Y-82288927D03*
X99955500Y-82288927D03*
X99455500Y-82288927D03*
%TD*%
D20*
%TO.C,C1*%
X91725500Y-54463927D03*
X91725500Y-55423927D03*
%TD*%
D27*
%TO.C,R1*%
X104005500Y-57151427D03*
X104005500Y-58976427D03*
%TD*%
D28*
%TO.C,U1*%
X103405500Y-64463927D03*
D29*
X103005500Y-64463927D03*
X102605498Y-64463927D03*
X102205499Y-64463927D03*
X101805500Y-64463927D03*
X101405500Y-64463927D03*
X101005501Y-64463927D03*
X100605499Y-64463927D03*
X100205500Y-64463927D03*
D28*
X99805500Y-64463927D03*
D30*
X99405500Y-64863927D03*
D31*
X99405502Y-65263928D03*
X99405502Y-65663927D03*
X99405502Y-66063929D03*
D30*
X99405500Y-66463927D03*
D28*
X99805501Y-66863926D03*
D29*
X100205500Y-66863927D03*
X100605499Y-66863927D03*
X101005501Y-66863927D03*
X101405500Y-66863927D03*
X101805500Y-66863927D03*
X102205499Y-66863927D03*
X102605498Y-66863927D03*
X103005500Y-66863927D03*
D28*
X103405500Y-66863927D03*
D30*
X103815500Y-66463927D03*
D31*
X103805501Y-66063929D03*
X103805501Y-65663927D03*
X103805501Y-65263928D03*
D30*
X103810779Y-64858330D03*
%TD*%
D16*
%TO.C,R2*%
X95385500Y-64163927D03*
X96405500Y-64163927D03*
%TD*%
D32*
%TO.C,R4*%
X108215500Y-56843927D03*
X106390500Y-56843927D03*
%TD*%
D11*
%TO.C,U2*%
X99905500Y-77663927D03*
X99405500Y-77663927D03*
X98905500Y-77663927D03*
X98405500Y-77663927D03*
X97905500Y-77663927D03*
X97905500Y-78433927D03*
X98405500Y-78433927D03*
X98905500Y-78433927D03*
X99405500Y-78433927D03*
X99905500Y-78433927D03*
%TD*%
M02*
